<?xml version="1.0" encoding="UTF-8"?>
<svg version="1.1" xmlns="http://www.w3.org/2000/svg" width="32" height="32">
<path d="M0 0 C2.31 0 4.62 0 7 0 C13.45803641 10.5949235 13.7695166 18.99350217 12 31 C11 32 11 32 8.13256836 32.11352539 C6.88096924 32.10828857 5.62937012 32.10305176 4.33984375 32.09765625 C3.34314415 32.09553383 3.34314415 32.09553383 2.3263092 32.09336853 C0.19666101 32.08775518 -1.93288339 32.07520054 -4.0625 32.0625 C-5.50325369 32.05748671 -6.94400903 32.05292351 -8.38476562 32.04882812 C-11.92321102 32.03778145 -15.46159539 32.02050792 -19 32 C-19 30.68 -19 29.36 -19 28 C-13.00146328 27.12748557 -7.11418142 26.89027078 -1.0625 26.875 C-0.30461182 26.87048828 0.45327637 26.86597656 1.23413086 26.86132812 C6.75248182 26.87624091 6.75248182 26.87624091 9 28 C9 27.01 9 26.02 9 25 C-0.24 25 -9.48 25 -19 25 C-19 22.69 -19 20.38 -19 18 C-9.76 18 -0.52 18 9 18 C7.85749293 10.51449576 7.85749293 10.51449576 5 8 C2.64644661 11.11785113 2.64644661 11.11785113 2 16 C-4.93 16 -11.86 16 -19 16 C-19 14.02 -19 12.04 -19 10 C-13.06 10 -7.12 10 -1 10 C-0.67 6.7 -0.34 3.4 0 0 Z " fill="#FF9B00" transform="translate(19,0)"/>
<path d="M0 0 C9.24 0 18.48 0 28 0 C28 2.31 28 4.62 28 7 C18.76 7 9.52 7 0 7 C0 4.69 0 2.38 0 0 Z " fill="#202020" transform="translate(0,18)"/>
<path d="M0 0 C0 1.65 0 3.3 0 5 C-8.58 5 -17.16 5 -26 5 C-26 3.68 -26 2.36 -26 1 C-17.3387414 -0.25981943 -8.72998757 -0.09020653 0 0 Z " fill="#232323" transform="translate(26,27)"/>
<path d="M0 0 C2.64 0 5.28 0 8 0 C8.33 1.32 8.66 2.64 9 4 C6.03 4 3.06 4 0 4 C0 2.68 0 1.36 0 0 Z " fill="#FD7D00" transform="translate(0,28)"/>
</svg>
