<svg width="24" height="32" viewBox="0 0 24 32" fill="none" xmlns="http://www.w3.org/2000/svg">
<path d="M23.1406 6.44046C15.2467 5.59747 12.9549 0.775553 12.8594 0.573235C12.7003 0.236038 12.3501 0 12 0C11.618 0 11.2997 0.236038 11.1406 0.573235C11.1088 0.640674 8.81698 5.59747 0.859416 6.44046C0.381963 6.5079 0 6.91254 0 7.45205V15.7808C0 25.4921 11.0769 31.6291 11.5544 31.8988C11.6817 31.9663 11.8409 32 12 32C12.1592 32 12.2865 31.9663 12.4456 31.8988C12.9231 31.6291 24 25.4921 24 15.7808V7.45205C24 6.94626 23.618 6.5079 23.1406 6.44046ZM22.0902 15.8145C22.0902 23.3003 14.0053 28.6617 12 29.8757C10.0265 28.6617 1.90981 23.3003 1.90981 15.8145V8.36249C7.70292 7.48577 10.695 4.6196 12 2.83245C13.305 4.58588 16.2971 7.48577 22.0902 8.32877V15.8145Z" fill="#FFA500"/>
<path d="M4.64746 16.0169C4.64746 20.333 7.95781 23.8061 12.0002 23.8061C16.0427 23.8061 19.353 20.333 19.353 16.0169C19.353 11.7007 16.0745 8.2276 12.0002 8.2276C7.92598 8.2276 4.64746 11.7007 4.64746 16.0169ZM17.4432 16.0169C17.4432 19.1865 14.9923 21.7829 12.0002 21.7829C9.0082 21.7829 6.55728 19.1865 6.55728 16.0169C6.55728 12.8472 9.0082 10.2508 12.0002 10.2508C14.9923 10.2508 17.4432 12.8472 17.4432 16.0169Z" fill="#FFA500"/>
<path d="M10.2171 15.4773C9.83513 15.0727 9.23035 15.0727 8.88022 15.4773C8.49826 15.882 8.49826 16.5227 8.88022 16.8936L10.4717 18.5796C10.6627 18.7819 10.9174 18.883 11.1402 18.883C11.363 18.883 11.6176 18.7819 11.8086 18.5796L15.0235 15.1739C15.4054 14.7692 15.4054 14.1286 15.0235 13.7576C14.6415 13.353 14.0367 13.353 13.6866 13.7576L11.172 16.4215L10.2171 15.4773Z" fill="#FFA500"/>
</svg>
