<svg width="40" height="32" viewBox="0 0 40 32" fill="none" xmlns="http://www.w3.org/2000/svg">
<path d="M10.4418 24.6215C10.6481 24.7459 10.8525 24.8091 11.0493 24.809C11.335 24.809 11.5895 24.6763 11.7662 24.4352C11.9081 24.2412 12.0604 23.8932 11.9771 23.3383L11.7442 21.7804L12.7314 20.6768C13.0747 20.2937 13.202 19.8281 13.0815 19.3996C12.9606 18.9708 12.6197 18.6797 12.1458 18.6009L10.7793 18.3732L10.1683 16.9543C9.95656 16.4621 9.61079 16.1797 9.21928 16.1797C8.82744 16.1797 8.48139 16.4622 8.27021 16.9543L7.65957 18.3734L6.29333 18.6009C5.81909 18.6797 5.47792 18.971 5.35708 19.3999C5.23624 19.8286 5.36379 20.2941 5.70681 20.6766L6.69432 21.7805L6.46179 23.3372C6.37817 23.8925 6.52985 24.2407 6.67204 24.435C6.9699 24.8427 7.49051 24.9266 7.99615 24.6215L9.21928 23.8845L10.4418 24.6215ZM7.75935 23.1408L8.03768 21.277L6.85941 19.9598L8.48839 19.6884L9.21928 17.9898L9.95044 19.6885L11.5791 19.9598L10.4009 21.2772L10.6795 23.1411L9.21928 22.2609L7.75935 23.1408Z" fill="#FFA500"/>
<path d="M5.89093 14.7774L5.6944 13.3989L6.52231 12.4277C6.83634 12.0588 6.94833 11.613 6.82993 11.2047C6.71243 10.8007 6.3966 10.5256 5.96355 10.4503L4.8433 10.254L4.33704 9.01896C4.05964 8.34268 3.61621 8.26965 3.43832 8.26965C3.2601 8.26965 2.81636 8.34268 2.53991 9.01896L2.03332 10.254L0.913044 10.4501C0.479401 10.5258 0.163254 10.8011 0.0460702 11.2054C-0.0723324 11.6139 0.0399814 12.0595 0.35428 12.4278L1.18191 13.3989L0.985386 14.7767C0.909076 15.3086 1.05589 15.641 1.1926 15.826C1.47853 16.2142 1.97382 16.2923 2.44284 15.996L3.438 15.366L4.43344 15.996C4.62631 16.118 4.81918 16.1798 5.00686 16.1798C5.27451 16.1798 5.51466 16.0544 5.68281 15.8267C5.81921 15.642 5.9663 15.31 5.89093 14.7774ZM4.35838 12.9122L4.57687 14.4454L3.438 13.7245L2.29972 14.444L2.51793 12.9122L1.56244 11.7912L2.87986 11.5605L3.43832 10.1982L3.99676 11.5605L5.31326 11.7921L4.35838 12.9122Z" fill="#FFA500"/>
<path d="M33.7069 18.6009L32.3404 18.3734L31.73 16.9547C31.5185 16.4622 31.1725 16.1797 30.7807 16.1797C30.3891 16.1797 30.0434 16.4621 29.8316 16.9541L29.2206 18.3732L27.8541 18.6009C27.3802 18.6797 27.0393 18.9708 26.9185 19.3996C26.7979 19.8281 26.9252 20.2937 27.2682 20.6766L28.2557 21.7804L28.0229 23.3381C27.9396 23.8932 28.0918 24.2412 28.2337 24.4354C28.5322 24.842 29.0522 24.9266 29.5585 24.6215L30.7807 23.8845L32.0038 24.6215C32.2101 24.7459 32.4145 24.809 32.6114 24.809C32.897 24.809 33.1515 24.6763 33.3279 24.435C33.4701 24.2408 33.6218 23.8927 33.5381 23.3383L33.3056 21.7805L34.2928 20.6769C34.6361 20.2941 34.7637 19.8286 34.6429 19.3999C34.522 18.971 34.1808 18.6797 33.7069 18.6009ZM31.9623 21.277L32.2406 23.1408L30.7807 22.2609L29.3204 23.1411L29.5991 21.2772L28.4208 19.9598L30.0495 19.6885L30.7807 17.9898L31.5115 19.6884L33.1405 19.9598L31.9623 21.277Z" fill="#FFA500"/>
<path d="M39.954 11.2054C39.8368 10.8011 39.5207 10.5258 39.0873 10.4503L37.9668 10.254L37.4605 9.01982C37.1837 8.34268 36.74 8.26965 36.5618 8.26965C36.3839 8.26965 35.9404 8.34268 35.663 9.01914L35.1568 10.254L34.0368 10.4501C33.6035 10.5256 33.2876 10.8007 33.1701 11.2047C33.0517 11.613 33.1637 12.0588 33.4781 12.4278L34.3057 13.3989L34.1091 14.7783C34.0338 15.31 34.1809 15.642 34.3173 15.8269C34.6038 16.2138 35.0985 16.2916 35.5666 15.996L36.5621 15.366L37.5575 15.9961C37.7504 16.118 37.9433 16.1798 38.1309 16.1798C38.3992 16.1798 38.6394 16.0542 38.8075 15.826C38.9442 15.641 39.091 15.3086 39.0147 14.7774L38.8182 13.3989L39.6455 12.4282C39.9601 12.0595 40.0724 11.6139 39.954 11.2054ZM37.4821 12.9122L37.7007 14.4452L36.5621 13.7245L35.4232 14.444L35.6417 12.9122L34.6862 11.7912L36.0033 11.5605L36.5618 10.1982L37.1202 11.5605L38.437 11.7921L37.4821 12.9122Z" fill="#FFA500"/>
<path d="M19.9998 12.2247C22.9343 12.2247 25.3122 9.48807 25.3122 6.11164C25.3122 2.73578 22.9343 0 19.9998 0C17.0666 0 14.6875 2.73578 14.6875 6.11164C14.6875 9.48807 17.0666 12.2247 19.9998 12.2247ZM19.9998 1.4382C22.2398 1.4382 24.0622 3.53478 24.0622 6.11164C24.0622 8.68944 22.2398 10.7865 19.9998 10.7865C17.7599 10.7865 15.9375 8.68944 15.9375 6.11164C15.9375 3.53478 17.7599 1.4382 19.9998 1.4382Z" fill="#FFA500"/>
<path d="M23.492 27.4264L25.1344 25.4982C25.5614 24.9979 25.7197 24.4127 25.5693 23.8927C25.4207 23.3804 25.0005 23.0281 24.4167 22.9259L22.1685 22.533L21.1584 20.0674C20.784 19.1548 20.2237 19.0562 20.0003 19.0562C19.7763 19.0562 19.2157 19.1548 18.8428 20.0677L17.8321 22.5328L15.5836 22.9259C14.9995 23.0281 14.579 23.3808 14.4307 23.8934C14.28 24.4136 14.4386 24.9986 14.865 25.4977L16.5083 27.4266L16.1198 30.1562C16.0145 30.8906 16.2025 31.3297 16.3786 31.5686C16.7387 32.057 17.3682 32.1396 17.9957 31.7426L20.0003 30.4743L22.0043 31.7426C22.2741 31.9134 22.5384 32.0002 22.7892 32C23.1206 32 23.416 31.8469 23.6211 31.5686C23.7975 31.3297 23.9858 30.8908 23.8808 30.1573L23.492 27.4264ZM22.6473 30.3902C22.654 30.4373 22.6577 30.4784 22.6595 30.5135C22.6434 30.5049 22.626 30.4945 22.6067 30.4824L20.0003 28.8332L17.3936 30.4822C17.3744 30.4944 17.357 30.5045 17.3411 30.5133C17.3426 30.478 17.3466 30.4369 17.3533 30.3897L17.8443 26.9399L15.757 24.4903C15.7188 24.4452 15.6904 24.4055 15.6703 24.3727C15.6974 24.3637 15.731 24.355 15.7716 24.3479L18.6786 23.8397L19.9734 20.6805C19.9829 20.6576 19.9918 20.6371 20.0006 20.6187C20.0095 20.6373 20.0186 20.658 20.0281 20.6811L21.322 23.8395L24.2287 24.3479C24.2693 24.355 24.3028 24.3637 24.3297 24.3727C24.3093 24.4057 24.2809 24.4456 24.2421 24.491L22.156 26.9401L22.6473 30.3902Z" fill="#FFA500"/>
<path d="M11.4893 16.782C11.825 16.0864 12.2162 15.4704 12.6676 14.937C13.6566 13.7681 14.9648 12.9677 16.5731 12.5388C16.13 12.2247 15.7177 11.8585 15.3524 11.4361C13.2046 12.2395 11.7334 13.6782 10.7334 15.4498C10.9525 15.6874 11.1426 15.9761 11.2888 16.3162L11.4893 16.782Z" fill="#FFA500"/>
<path d="M10.3826 26.5486C10.1785 26.5486 10.0158 26.3629 10.0125 26.2024C10.0106 26.1245 10.0113 26.0504 10.0097 25.9731C9.96028 25.9473 9.91085 25.925 9.86172 25.8955L9.21903 25.5081L8.75488 25.7879C8.75701 25.9396 8.75944 26.0909 8.76282 26.2407C8.78479 27.2061 9.52511 27.9868 10.3826 27.9868H15.1625L15.1728 27.9131L14.0102 26.5486H10.3826Z" fill="#FFA500"/>
<path d="M23.3574 12.588C24.9257 13.0375 26.2138 13.8451 27.204 15.0072C27.677 15.5625 28.0896 16.208 28.4433 16.9394L28.7119 16.3158C28.8367 16.0256 28.9951 15.7745 29.1742 15.5581C28.1641 13.7876 26.6969 12.3381 24.5845 11.5049C24.2156 11.9203 23.8027 12.2812 23.3574 12.588Z" fill="#FFA500"/>
<path d="M30.1392 25.8954C30.0922 25.9238 30.0431 25.9412 29.9955 25.9659C29.9946 26.0488 29.9958 26.1289 29.9943 26.2124C29.9916 26.3647 29.8286 26.5486 29.6302 26.5486H25.9902L24.8281 27.9129L24.8385 27.9868H29.6302C30.4865 27.9868 31.2275 27.2061 31.244 26.2407C31.2464 26.0915 31.2479 25.9408 31.2488 25.7898L30.7816 25.5081L30.1392 25.8954Z" fill="#FFA500"/>
</svg>
