<svg width="32" height="32" viewBox="0 0 32 32" fill="none" xmlns="http://www.w3.org/2000/svg">
<path d="M29.3333 2.13333H28.2667V1.6C28.2667 1.17565 28.0981 0.768687 27.798 0.468629C27.498 0.168571 27.091 6.7435e-08 26.6667 6.7435e-08C26.2423 6.7435e-08 25.8354 0.168571 25.5353 0.468629C25.2352 0.768687 25.0667 1.17565 25.0667 1.6V2.13333H22.9333V1.6C22.9333 1.17565 22.7648 0.768687 22.4647 0.468629C22.1646 0.168571 21.7577 0 21.3333 0C20.909 0 20.502 0.168571 20.202 0.468629C19.9019 0.768687 19.7333 1.17565 19.7333 1.6V2.13333H17.6V1.6C17.6 1.17565 17.4314 0.768687 17.1314 0.468629C16.8313 0.168571 16.4243 0 16 0C15.5757 0 15.1687 0.168571 14.8686 0.468629C14.5686 0.768687 14.4 1.17565 14.4 1.6V2.13333H12.2667V1.6C12.2667 1.17565 12.0981 0.768687 11.798 0.468629C11.498 0.168571 11.091 0 10.6667 0C10.2423 0 9.83535 0.168571 9.5353 0.468629C9.23524 0.768687 9.06667 1.17565 9.06667 1.6V2.13333H6.93333V1.6C6.93333 1.17565 6.76476 0.768687 6.4647 0.468629C6.16465 0.168571 5.75768 0 5.33333 0C4.90899 0 4.50202 0.168571 4.20196 0.468629C3.9019 0.768687 3.73333 1.17565 3.73333 1.6V2.13333H2.66667C1.95968 2.13418 1.2819 2.4154 0.781984 2.91532C0.28207 3.41523 0.000846857 4.09302 0 4.8L0 29.3333C0.000846857 30.0403 0.28207 30.7181 0.781984 31.218C1.2819 31.7179 1.95968 31.9992 2.66667 32H29.3333C30.0403 31.9992 30.7181 31.7179 31.218 31.218C31.7179 30.7181 31.9992 30.0403 32 29.3333V4.8C31.9992 4.09302 31.7179 3.41523 31.218 2.91532C30.7181 2.4154 30.0403 2.13418 29.3333 2.13333ZM26.1333 1.6C26.1333 1.45855 26.1895 1.3229 26.2895 1.22288C26.3896 1.12286 26.5252 1.06667 26.6667 1.06667C26.8081 1.06667 26.9438 1.12286 27.0438 1.22288C27.1438 1.3229 27.2 1.45855 27.2 1.6V3.73333C27.2 3.87478 27.1438 4.01044 27.0438 4.11046C26.9438 4.21048 26.8081 4.26667 26.6667 4.26667C26.5252 4.26667 26.3896 4.21048 26.2895 4.11046C26.1895 4.01044 26.1333 3.87478 26.1333 3.73333V1.6ZM20.8 1.6C20.8 1.45855 20.8562 1.3229 20.9562 1.22288C21.0562 1.12286 21.1919 1.06667 21.3333 1.06667C21.4748 1.06667 21.6104 1.12286 21.7105 1.22288C21.8105 1.3229 21.8667 1.45855 21.8667 1.6V3.73333C21.8667 3.87478 21.8105 4.01044 21.7105 4.11046C21.6104 4.21048 21.4748 4.26667 21.3333 4.26667C21.1919 4.26667 21.0562 4.21048 20.9562 4.11046C20.8562 4.01044 20.8 3.87478 20.8 3.73333V1.6ZM15.4667 1.6C15.4667 1.45855 15.5229 1.3229 15.6229 1.22288C15.7229 1.12286 15.8586 1.06667 16 1.06667C16.1414 1.06667 16.2771 1.12286 16.3771 1.22288C16.4771 1.3229 16.5333 1.45855 16.5333 1.6V3.73333C16.5333 3.87478 16.4771 4.01044 16.3771 4.11046C16.2771 4.21048 16.1414 4.26667 16 4.26667C15.8586 4.26667 15.7229 4.21048 15.6229 4.11046C15.5229 4.01044 15.4667 3.87478 15.4667 3.73333V1.6ZM10.1333 1.6C10.1333 1.45855 10.1895 1.3229 10.2895 1.22288C10.3896 1.12286 10.5252 1.06667 10.6667 1.06667C10.8081 1.06667 10.9438 1.12286 11.0438 1.22288C11.1438 1.3229 11.2 1.45855 11.2 1.6V3.73333C11.2 3.87478 11.1438 4.01044 11.0438 4.11046C10.9438 4.21048 10.8081 4.26667 10.6667 4.26667C10.5252 4.26667 10.3896 4.21048 10.2895 4.11046C10.1895 4.01044 10.1333 3.87478 10.1333 3.73333V1.6ZM4.8 1.6C4.8 1.45855 4.85619 1.3229 4.95621 1.22288C5.05623 1.12286 5.19188 1.06667 5.33333 1.06667C5.47478 1.06667 5.61044 1.12286 5.71046 1.22288C5.81048 1.3229 5.86667 1.45855 5.86667 1.6V3.73333C5.86667 3.87478 5.81048 4.01044 5.71046 4.11046C5.61044 4.21048 5.47478 4.26667 5.33333 4.26667C5.19188 4.26667 5.05623 4.21048 4.95621 4.11046C4.85619 4.01044 4.8 3.87478 4.8 3.73333V1.6ZM2.66667 3.2H3.73333V3.73333C3.73333 4.15768 3.9019 4.56465 4.20196 4.8647C4.50202 5.16476 4.90899 5.33333 5.33333 5.33333C5.75768 5.33333 6.16465 5.16476 6.4647 4.8647C6.76476 4.56465 6.93333 4.15768 6.93333 3.73333V3.2H9.06667V3.73333C9.06667 4.15768 9.23524 4.56465 9.5353 4.8647C9.83535 5.16476 10.2423 5.33333 10.6667 5.33333C11.091 5.33333 11.498 5.16476 11.798 4.8647C12.0981 4.56465 12.2667 4.15768 12.2667 3.73333V3.2H14.4V3.73333C14.4 4.15768 14.5686 4.56465 14.8686 4.8647C15.1687 5.16476 15.5757 5.33333 16 5.33333C16.4243 5.33333 16.8313 5.16476 17.1314 4.8647C17.4314 4.56465 17.6 4.15768 17.6 3.73333V3.2H19.7333V3.73333C19.7333 4.15768 19.9019 4.56465 20.202 4.8647C20.502 5.16476 20.909 5.33333 21.3333 5.33333C21.7577 5.33333 22.1646 5.16476 22.4647 4.8647C22.7648 4.56465 22.9333 4.15768 22.9333 3.73333V3.2H25.0667V3.73333C25.0667 4.15768 25.2352 4.56465 25.5353 4.8647C25.8354 5.16476 26.2423 5.33333 26.6667 5.33333C27.091 5.33333 27.498 5.16476 27.798 4.8647C28.0981 4.56465 28.2667 4.15768 28.2667 3.73333V3.2H29.3333C29.7577 3.2 30.1646 3.36857 30.4647 3.66863C30.7648 3.96869 30.9333 4.37565 30.9333 4.8V6.4H1.06667V4.8C1.06667 4.37565 1.23524 3.96869 1.5353 3.66863C1.83535 3.36857 2.24232 3.2 2.66667 3.2ZM29.3333 30.9333H2.66667C2.24232 30.9333 1.83535 30.7648 1.5353 30.4647C1.23524 30.1646 1.06667 29.7577 1.06667 29.3333V7.46667H30.9333V29.3333C30.9333 29.7577 30.7648 30.1646 30.4647 30.4647C30.1646 30.7648 29.7577 30.9333 29.3333 30.9333Z" fill="#FFA500"/>
<path d="M22.3997 12.2667C20.5615 12.2688 18.7992 12.9999 17.4994 14.2997C16.1996 15.5995 15.4685 17.3618 15.4664 19.2C15.4678 20.3507 15.1307 21.4764 14.4972 22.437C13.8636 23.3977 12.9616 24.1508 11.9033 24.6026C10.845 25.0544 9.6772 25.1851 8.54522 24.9782C7.41324 24.7714 6.36709 24.2362 5.53695 23.4394C4.70682 22.6425 4.12937 21.6191 3.87647 20.4965C3.62357 19.3739 3.70639 18.2017 4.11462 17.1258C4.52285 16.05 5.23847 15.1179 6.1724 14.4457C7.10634 13.7734 8.21735 13.3907 9.36716 13.3451L8.6893 14.0229C8.63836 14.0721 8.59773 14.131 8.56978 14.196C8.54182 14.2611 8.52711 14.3311 8.52649 14.4019C8.52588 14.4727 8.53937 14.543 8.56619 14.6085C8.59301 14.6741 8.63261 14.7336 8.68268 14.7837C8.73276 14.8338 8.79231 14.8734 8.85785 14.9002C8.9234 14.927 8.99363 14.9405 9.06444 14.9399C9.13526 14.9392 9.20524 14.9245 9.27031 14.8966C9.33538 14.8686 9.39423 14.828 9.44343 14.7771L11.0434 13.1771C11.1434 13.077 11.1996 12.9414 11.1996 12.8C11.1996 12.6586 11.1434 12.5229 11.0434 12.4229L9.44343 10.8229C9.34284 10.7258 9.20812 10.672 9.06828 10.6732C8.92844 10.6745 8.79468 10.7305 8.69579 10.8294C8.59691 10.9283 8.54082 11.0621 8.5396 11.2019C8.53839 11.3418 8.59214 11.4765 8.6893 11.5771L9.38956 12.2773C8.02862 12.3194 6.71021 12.7614 5.59898 13.5482C4.48775 14.335 3.63295 15.4318 3.14132 16.7015C2.64968 17.9713 2.54301 19.3577 2.83462 20.6877C3.12622 22.0177 3.80319 23.2323 4.78097 24.1799C5.75876 25.1275 6.99403 25.766 8.33252 26.0157C9.67102 26.2654 11.0534 26.1153 12.3071 25.584C13.5608 25.0528 14.6302 24.164 15.3817 23.0286C16.1333 21.8932 16.5337 20.5616 16.533 19.2C16.5316 18.0493 16.8687 16.9236 17.5022 15.9629C18.1357 15.0023 19.0378 14.2492 20.0961 13.7974C21.1544 13.3456 22.3222 13.2149 23.4542 13.4218C24.5861 13.6286 25.6323 14.1637 26.4624 14.9606C27.2926 15.7575 27.87 16.7809 28.1229 17.9035C28.3758 19.0261 28.293 20.1983 27.8848 21.2741C27.4765 22.35 26.7609 23.2821 25.827 23.9543C24.8931 24.6266 23.782 25.0093 22.6322 25.0549L23.3101 24.3771C23.4072 24.2765 23.461 24.1418 23.4598 24.0019C23.4586 23.8621 23.4025 23.7283 23.3036 23.6294C23.2047 23.5305 23.0709 23.4745 22.9311 23.4732C22.7913 23.472 22.6565 23.5258 22.556 23.6229L20.956 25.2229C20.856 25.3229 20.7998 25.4586 20.7998 25.6C20.7998 25.7414 20.856 25.877 20.956 25.9771L22.556 27.5771C22.6565 27.6742 22.7913 27.728 22.9311 27.7268C23.0709 27.7255 23.2047 27.6695 23.3036 27.5706C23.4025 27.4717 23.4586 27.3379 23.4598 27.1981C23.461 27.0582 23.4072 26.9235 23.3101 26.8229L22.6098 26.1227C24.4286 26.0674 26.1526 25.299 27.4096 23.9834C28.6665 22.6678 29.3557 20.9105 29.3281 19.0912C29.3005 17.2718 28.5584 15.5363 27.2621 14.2594C25.9658 12.9826 24.2193 12.2668 22.3997 12.2667Z" fill="#FFA500"/>
</svg>
