<svg width="24" height="24" viewBox="0 0 24 24" fill="none" xmlns="http://www.w3.org/2000/svg">
<path fill-rule="evenodd" clip-rule="evenodd" d="M4.25825 2.54963H3.18107V5.93254C3.18107 6.56163 3.42011 7.15083 3.83693 7.65476C4.01173 7.86626 4.21641 8.06374 4.44949 8.24178C4.32548 7.81769 4.25975 7.37636 4.25975 6.92423V2.5485L4.25825 2.54963ZM19.5509 8.24278C19.7824 8.06365 19.9886 7.86725 20.1634 7.65575C20.5787 7.15183 20.8193 6.56265 20.8193 5.93353V2.55063H19.7421V6.92636C19.7421 7.37849 19.6764 7.81984 19.5524 8.24391L19.5509 8.24278ZM13.4402 12.0801C13.4506 12.0779 13.4596 12.0758 13.47 12.0747C14.728 11.8524 15.8575 11.3528 16.742 10.6633C16.7524 10.6546 16.7644 10.646 16.7748 10.6374C16.7913 10.6223 16.8092 10.6071 16.8286 10.5942C18.0059 9.64245 18.732 8.34755 18.732 6.92538V0.726987H5.26337V6.92427C5.26337 8.34757 5.98945 9.64247 7.16677 10.5931C7.18619 10.606 7.20412 10.6211 7.22055 10.6363C7.23101 10.6449 7.24296 10.6535 7.25342 10.6622C8.13787 11.3517 9.26734 11.8524 10.5253 12.0736C10.5358 12.0758 10.5462 12.0768 10.5552 12.079C11.0198 12.1588 11.5024 12.2009 11.9969 12.2009C12.4914 12.2009 12.974 12.1588 13.4386 12.079L13.4402 12.0801ZM7.39258 18.9086H16.6078C16.0624 18.668 15.5694 18.3745 15.1361 18.0367C13.8304 17.0181 13.0729 15.6012 13.0729 14.0453V12.8723C12.7218 12.9101 12.3647 12.9306 12.0002 12.9306C11.6372 12.9306 11.2786 12.9111 10.9275 12.8723V14.0453C10.9275 15.6013 10.17 17.0182 8.86428 18.0367C8.43102 18.3745 7.9379 18.6691 7.39258 18.9086ZM20.818 21.7067H3.17969V23.2714H20.8165V21.7067H20.818ZM4.2223 20.9794H19.775V19.6359H4.2223V20.9794ZM15.3273 9.69533C15.4931 9.53454 15.8068 9.5011 16.0294 9.61979C16.252 9.73849 16.2984 9.96618 16.134 10.127C16.0623 10.1971 15.9846 10.2694 15.8995 10.3438C15.8098 10.4226 15.7247 10.4938 15.644 10.5575C15.4572 10.7053 15.139 10.7161 14.9343 10.5812C14.7296 10.4464 14.7147 10.2165 14.9014 10.0687C14.9881 10.0007 15.0628 9.9381 15.1256 9.88307C15.1943 9.82264 15.2615 9.76006 15.3287 9.69531L15.3273 9.69533ZM16.648 4.19639C16.648 3.99568 16.8736 3.83274 17.1514 3.83274C17.4293 3.83274 17.6549 3.99568 17.6549 4.19639C17.6549 4.57623 17.6594 4.79421 17.6624 5.01001C17.6893 6.46569 17.7132 7.81556 16.9602 9.08795C16.8512 9.27247 16.5568 9.35772 16.3013 9.28002C16.0459 9.20125 15.9278 8.98867 16.0354 8.80414C16.7077 7.66893 16.6838 6.39453 16.6599 5.01875C16.6539 4.69609 16.648 4.36913 16.648 4.19755L16.648 4.19639ZM18.8726 10.9235V14.5385L20.1081 13.523C20.1231 13.5101 20.1395 13.4982 20.1574 13.4864C20.3666 13.3547 20.6833 13.3698 20.8656 13.5198L22.1027 14.5374V9.37933C22.0907 9.38904 22.0788 9.39875 22.0668 9.40738C21.2122 10.0732 20.1171 10.5987 18.8726 10.9224L18.8726 10.9235ZM22.1579 8.11355C21.9248 8.39952 21.6469 8.66819 21.3317 8.91422C20.5578 9.51743 19.5568 9.98898 18.4183 10.2695C18.6365 10.0192 18.8307 9.75588 18.9995 9.48071C19.8317 9.12787 20.5309 8.62607 21.0254 8.02827C21.5333 7.41211 21.8262 6.69561 21.8262 5.93378V2.18734C21.8262 1.98663 21.6006 1.82369 21.3227 1.82369H19.7421V1.30896H22.9915V5.93386C22.9915 6.70757 22.7002 7.4381 22.1863 8.08015C22.1758 8.09094 22.1668 8.10281 22.1594 8.11468L22.1579 8.11355ZM6.18524 11.1437L6.18375 15.5562C6.18823 15.6608 6.12997 15.7655 6.01343 15.8399C5.80427 15.9716 5.48754 15.9565 5.30526 15.8065L3.56323 14.3745L1.84958 15.7838C1.75844 15.8734 1.61054 15.9306 1.4447 15.9306C1.16681 15.9306 0.941217 15.7677 0.941217 15.5669V8.44285C0.340627 7.6929 0 6.83825 0 5.93291L0.00149402 0.944196C0.00149402 0.743487 0.227089 0.580546 0.504975 0.580546H4.25944V0.363649C4.25944 0.162941 4.48503 0 4.76292 0H19.2386C19.5165 0 19.7421 0.162941 19.7421 0.363649V0.580546H23.4965C23.7744 0.580546 24 0.743487 24 0.944196V5.93291C24 6.81129 23.6788 7.6411 23.1126 8.37379V15.5012C23.1126 15.7019 22.887 15.8648 22.6091 15.8648C22.4432 15.8648 22.2968 15.8066 22.2042 15.7181L20.4905 14.3088L18.7485 15.7407C18.5662 15.8918 18.2495 15.9069 18.0403 15.7742C17.9268 15.703 17.8685 15.6026 17.8685 15.5012H17.867V11.1351C17.7206 11.1589 17.5727 11.1794 17.4233 11.1977C16.5015 11.9024 15.3556 12.43 14.0797 12.7084V14.0454C14.0797 15.4191 14.7371 16.6611 15.871 17.546C16.9527 18.3888 18.4751 18.91 20.2797 18.91C20.5576 18.91 20.7832 19.0729 20.7832 19.2736V20.9807H21.3226C21.6004 20.9807 21.826 21.1437 21.826 21.3444V23.6364C21.826 23.8371 21.6004 24 21.3226 24L2.6757 23.9978C2.39782 23.9978 2.17222 23.8349 2.17222 23.6342V21.3422C2.17222 21.1415 2.39782 20.9786 2.6757 20.9786H3.21506V19.2715C3.21506 19.0707 3.44065 18.9078 3.71854 18.9078C5.52333 18.9078 7.04571 18.3866 8.12725 17.5438C9.26119 16.659 9.91858 15.417 9.91858 14.0433V12.7063C8.64121 12.4279 7.49679 11.9002 6.57497 11.1956C6.44349 11.1794 6.31351 11.161 6.18504 11.1416L6.18524 11.1437ZM1.94826 9.42254V14.6043L3.18532 13.5868C3.36759 13.4357 3.68432 13.4206 3.89349 13.5533C3.91142 13.5641 3.92786 13.5771 3.9428 13.59L5.17985 14.6076L5.18135 10.9399C3.92188 10.6205 2.81184 10.0939 1.94681 9.42376L1.94826 9.42254ZM1.86011 8.13951C1.31628 7.48343 1.00702 6.7313 1.00702 5.93278V1.30788H4.25651V1.82261H2.67584C2.39796 1.82261 2.17236 1.98555 2.17236 2.18626V5.9327C2.17236 6.69453 2.46519 7.41106 2.97317 8.02719C3.46621 8.62502 4.1654 9.12679 4.99907 9.47964C5.16789 9.7548 5.36211 10.0181 5.58023 10.2685C4.44177 9.9879 3.43929 9.51632 2.66689 8.91314C2.37407 8.68438 2.11411 8.43725 1.89151 8.17396C1.88255 8.16209 1.87209 8.15022 1.86163 8.13835L1.86011 8.13951ZM4.06676 12.7611V11.2364C4.06676 11.0357 3.84117 10.8727 3.56328 10.8727C3.2854 10.8727 3.0598 11.0357 3.0598 11.2364V12.7611C3.0598 12.9618 3.2854 13.1248 3.56328 13.1248C3.84117 13.1248 4.06676 12.9618 4.06676 12.7611ZM20.9895 12.7611C20.9895 12.9618 20.7639 13.1248 20.486 13.1248C20.2081 13.1248 19.9825 12.9618 19.9825 12.7611V11.2364C19.9825 11.0357 20.2081 10.8727 20.486 10.8727C20.7639 10.8727 20.9895 11.0357 20.9895 11.2364V12.7611Z" fill="white"/>
</svg>
