<svg width="32" height="32" viewBox="0 0 32 32" fill="none" xmlns="http://www.w3.org/2000/svg">
<g clip-path="url(#clip0_69_306)">
<path d="M25.75 8C26.4422 8 27.1189 7.79473 27.6945 7.41015C28.2701 7.02556 28.7187 6.47894 28.9836 5.83939C29.2485 5.19985 29.3178 4.49612 29.1827 3.81719C29.0477 3.13825 28.7144 2.51461 28.2249 2.02513C27.7354 1.53564 27.1117 1.2023 26.4328 1.06725C25.7539 0.932205 25.0501 1.00152 24.4106 1.26642C23.7711 1.53133 23.2244 1.97993 22.8399 2.55551C22.4553 3.13108 22.25 3.80777 22.25 4.5C22.25 5.42826 22.6187 6.3185 23.2751 6.97487C23.9315 7.63125 24.8217 8 25.75 8ZM25.75 2C26.2445 2 26.7278 2.14662 27.1389 2.42133C27.55 2.69603 27.8705 3.08648 28.0597 3.54329C28.2489 4.00011 28.2984 4.50277 28.202 4.98773C28.1055 5.47268 27.8674 5.91814 27.5178 6.26777C27.1681 6.6174 26.7227 6.8555 26.2377 6.95196C25.7528 7.04843 25.2501 6.99892 24.7933 6.8097C24.3365 6.62048 23.946 6.30005 23.6713 5.88893C23.3966 5.4778 23.25 4.99445 23.25 4.5C23.2507 3.83719 23.5144 3.20174 23.9831 2.73306C24.4517 2.26438 25.0872 2.00075 25.75 2Z" fill="#FFA500"/>
<path d="M6.25 8C6.94223 8 7.61892 7.79473 8.1945 7.41015C8.77007 7.02556 9.21867 6.47894 9.48358 5.83939C9.74849 5.19985 9.8178 4.49612 9.68275 3.81719C9.5477 3.13825 9.21436 2.51461 8.72487 2.02513C8.23539 1.53564 7.61175 1.2023 6.93282 1.06725C6.25388 0.932205 5.55015 1.00152 4.91061 1.26642C4.27107 1.53133 3.72444 1.97993 3.33986 2.55551C2.95527 3.13108 2.75 3.80777 2.75 4.5C2.75 5.42826 3.11875 6.3185 3.77513 6.97487C4.4315 7.63125 5.32174 8 6.25 8ZM6.25 2C6.74445 2 7.2278 2.14662 7.63893 2.42133C8.05005 2.69603 8.37048 3.08648 8.5597 3.54329C8.74892 4.00011 8.79843 4.50277 8.70196 4.98773C8.6055 5.47268 8.3674 5.91814 8.01777 6.26777C7.66814 6.6174 7.22268 6.8555 6.73773 6.95196C6.25277 7.04843 5.75011 6.99892 5.29329 6.8097C4.83648 6.62048 4.44603 6.30005 4.17133 5.88893C3.89662 5.4778 3.75 4.99445 3.75 4.5C3.75075 3.83719 4.01438 3.20174 4.48306 2.73306C4.95174 2.26438 5.58719 2.00075 6.25 2Z" fill="#FFA500"/>
<path d="M16 7C16.6922 7 17.3689 6.79473 17.9445 6.41015C18.5201 6.02556 18.9687 5.47894 19.2336 4.83939C19.4985 4.19985 19.5678 3.49612 19.4327 2.81719C19.2977 2.13825 18.9644 1.51461 18.4749 1.02513C17.9854 0.535644 17.3617 0.202301 16.6828 0.0672531C16.0039 -0.0677952 15.3001 0.00151652 14.6606 0.266423C14.0211 0.53133 13.4744 0.979934 13.0899 1.55551C12.7053 2.13108 12.5 2.80777 12.5 3.5C12.5 4.42826 12.8687 5.3185 13.5251 5.97487C14.1815 6.63125 15.0717 7 16 7ZM16 1C16.4945 1 16.9778 1.14662 17.3889 1.42133C17.8 1.69603 18.1205 2.08648 18.3097 2.54329C18.4989 3.00011 18.5484 3.50277 18.452 3.98773C18.3555 4.47268 18.1174 4.91814 17.7678 5.26777C17.4181 5.6174 16.9727 5.8555 16.4877 5.95196C16.0028 6.04843 15.5001 5.99892 15.0433 5.8097C14.5865 5.62048 14.196 5.30005 13.9213 4.88893C13.6466 4.4778 13.5 3.99445 13.5 3.5C13.5007 2.83719 13.7644 2.20174 14.2331 1.73306C14.7017 1.26438 15.3372 1.00075 16 1Z" fill="#FFA500"/>
<path d="M18.8222 7.00001H19.25C19.7804 7.00001 20.2891 7.21073 20.6642 7.5858C21.0393 7.96087 21.25 8.46958 21.25 9.00001V13.5048C21.605 13.7725 21.9393 14.0666 22.25 14.3847V9.00001C22.2487 8.28511 21.9924 7.59411 21.5271 7.05137C21.0617 6.50862 20.418 6.14974 19.7117 6.03931C19.4632 6.40088 19.1636 6.72449 18.8222 7.00001Z" fill="#FFA500"/>
<path d="M9.75 14.3847C10.0607 14.0666 10.395 13.7725 10.75 13.5048V9.00001C10.75 8.46958 10.9607 7.96087 11.3358 7.5858C11.7109 7.21073 12.2196 7.00001 12.75 7.00001H13.1778C12.8364 6.72449 12.5368 6.40088 12.2883 6.03931C11.582 6.14974 10.9383 6.50862 10.4729 7.05137C10.0076 7.59411 9.75127 8.28511 9.75 9.00001V14.3847Z" fill="#FFA500"/>
<path d="M12.5 28.5172V31.5C12.5 31.6326 12.5527 31.7598 12.6465 31.8535C12.7402 31.9473 12.8674 32 13 32H19C19.1326 32 19.2598 31.9473 19.3535 31.8535C19.4473 31.7598 19.5 31.6326 19.5 31.5V28.5172C19.1745 28.6599 18.8405 28.7824 18.5 28.8842V31H16.5V29.2347C16.3344 29.2441 16.1679 29.25 16 29.25C15.8321 29.25 15.6656 29.2441 15.5 29.2347V31H13.5V28.8842C13.1595 28.7824 12.8255 28.6599 12.5 28.5172Z" fill="#FFA500"/>
<path d="M1 24.5H2.75V31.5C2.75001 31.6326 2.80269 31.7598 2.89645 31.8536C2.99022 31.9473 3.11739 32 3.25 32H9.25C9.38261 32 9.50978 31.9473 9.60355 31.8536C9.69731 31.7598 9.74999 31.6326 9.75 31.5V26.6153C9.38081 26.2389 9.04613 25.8301 8.75 25.3938V31H6.75V26C6.75 25.8674 6.69732 25.7402 6.60355 25.6465C6.50979 25.5527 6.38261 25.5 6.25 25.5C6.11739 25.5 5.99021 25.5527 5.89645 25.6465C5.80268 25.7402 5.75 25.8674 5.75 26V31H3.75V18.5C3.75 18.3674 3.69732 18.2402 3.60355 18.1465C3.50979 18.0527 3.38261 18 3.25 18C3.11739 18 2.99021 18.0527 2.89645 18.1465C2.80268 18.2402 2.75 18.3674 2.75 18.5V23.5H1V10C1 9.46958 1.21071 8.96087 1.58579 8.5858C1.96086 8.21073 2.46957 8.00001 3 8.00001H3.42778C3.08638 7.72449 2.78677 7.40088 2.53832 7.03931C1.83199 7.14974 1.18825 7.50862 0.722935 8.05137C0.257618 8.59411 0.00126549 9.28511 0 10L0 23.5C0 23.7652 0.105357 24.0196 0.292893 24.2071C0.48043 24.3947 0.734784 24.5 1 24.5Z" fill="#FFA500"/>
<path d="M23.75 20.5C23.75 18.9672 23.2955 17.4688 22.4439 16.1943C21.5923 14.9199 20.3819 13.9265 18.9658 13.3399C17.5497 12.7534 15.9914 12.5999 14.4881 12.8989C12.9847 13.198 11.6038 13.9361 10.5199 15.0199C9.43607 16.1038 8.69795 17.4847 8.39892 18.9881C8.09988 20.4914 8.25336 22.0497 8.83994 23.4658C9.42652 24.8819 10.4199 26.0923 11.6943 26.9439C12.9688 27.7955 14.4672 28.25 16 28.25C18.0554 28.25 20.0267 27.4335 21.4801 25.9801C22.9335 24.5267 23.75 22.5554 23.75 20.5ZM16 27.25C14.665 27.25 13.3599 26.8541 12.2499 26.1124C11.1399 25.3707 10.2747 24.3165 9.76382 23.0831C9.25292 21.8497 9.11925 20.4925 9.3797 19.1831C9.64015 17.8738 10.283 16.671 11.227 15.727C12.171 14.783 13.3738 14.1402 14.6831 13.8797C15.9925 13.6193 17.3497 13.7529 18.5831 14.2638C19.8165 14.7747 20.8707 15.6399 21.6124 16.7499C22.3541 17.8599 22.75 19.165 22.75 20.5C22.748 22.2896 22.0362 24.0053 20.7707 25.2707C19.5053 26.5362 17.7896 27.248 16 27.25Z" fill="#FFA500"/>
<path d="M21.1152 17.1586C21.0247 17.0617 20.8994 17.0048 20.7668 17.0003C20.6343 16.9959 20.5054 17.0442 20.4086 17.1348L14.345 22.8025L11.6057 20.0287C11.5596 19.982 11.5047 19.9448 11.4442 19.9193C11.3837 19.8938 11.3188 19.8805 11.2531 19.8801C11.1875 19.8796 11.1224 19.8922 11.0616 19.9169C11.0008 19.9417 10.9454 19.9782 10.8987 20.0243C10.852 20.0704 10.8148 20.1253 10.7893 20.1858C10.7638 20.2463 10.7505 20.3112 10.7501 20.3769C10.7497 20.4426 10.7622 20.5076 10.7869 20.5685C10.8117 20.6293 10.8482 20.6846 10.8943 20.7313L13.9754 23.8513C14.0669 23.944 14.1909 23.9973 14.3211 23.9999C14.4513 24.0025 14.5774 23.9542 14.6725 23.8652L21.0914 17.8652C21.1394 17.8204 21.1781 17.7666 21.2053 17.7068C21.2324 17.647 21.2475 17.5825 21.2497 17.5168C21.252 17.4512 21.2412 17.3858 21.2181 17.3243C21.1951 17.2628 21.1601 17.2065 21.1152 17.1586Z" fill="#FFA500"/>
<path d="M28.5722 8.00001H29C29.5304 8.00001 30.0391 8.21073 30.4142 8.5858C30.7893 8.96087 31 9.46958 31 10V23.5H29.25V18.5C29.25 18.3674 29.1973 18.2402 29.1036 18.1465C29.0098 18.0527 28.8826 18 28.75 18C28.6174 18 28.4902 18.0527 28.3964 18.1465C28.3027 18.2402 28.25 18.3674 28.25 18.5V31H26.25V26C26.25 25.8674 26.1973 25.7402 26.1036 25.6465C26.0098 25.5527 25.8826 25.5 25.75 25.5C25.6174 25.5 25.4902 25.5527 25.3964 25.6465C25.3027 25.7402 25.25 25.8674 25.25 26V31H23.25V25.3938C22.9539 25.8301 22.6192 26.2389 22.25 26.6153V31.5C22.25 31.6326 22.3027 31.7598 22.3965 31.8536C22.4902 31.9473 22.6174 32 22.75 32H28.75C28.8826 32 29.0098 31.9473 29.1035 31.8536C29.1973 31.7598 29.25 31.6326 29.25 31.5V24.5H31C31.2652 24.5 31.5196 24.3947 31.7071 24.2071C31.8946 24.0196 32 23.7652 32 23.5V10C31.9987 9.28511 31.7424 8.59411 31.2771 8.05137C30.8117 7.50862 30.168 7.14974 29.4617 7.03931C29.2132 7.40088 28.9136 7.72449 28.5722 8.00001Z" fill="#FFA500"/>
</g>
<defs>
<clipPath id="clip0_69_306">
<rect width="32" height="32" fill="white"/>
</clipPath>
</defs>
</svg>
