<svg width="17" height="24" viewBox="0 0 17 24" fill="none" xmlns="http://www.w3.org/2000/svg">
<path fill-rule="evenodd" clip-rule="evenodd" d="M0.546127 16.6309C0.546127 25.089 -0.554434 23.9486 7.99608 23.9486C7.65745 22.238 6.04893 15.7756 6.04893 14.4452C6.04893 14.2551 6.55689 13.6849 6.7262 13.3048C3.42452 13.3048 0.546127 12.7346 0.546127 16.6309Z" fill="white"/>
<path fill-rule="evenodd" clip-rule="evenodd" d="M10.9591 14.4452C10.9591 15.7756 9.3506 22.238 9.01196 23.9486C17.4778 23.9486 16.4619 25.089 16.4619 16.6309C16.4619 12.7346 13.5835 13.3048 10.1972 13.3048C10.3665 13.6849 10.9591 14.2551 10.9591 14.4452Z" fill="white"/>
<path fill-rule="evenodd" clip-rule="evenodd" d="M8.75799 20.8124C8.75799 19.0068 9.60458 16.4409 9.94321 14.7303L8.50402 13.3047L7.06482 14.7303C7.3188 16.4409 8.16538 19.0068 8.25004 20.8124H8.75799Z" fill="white"/>
<path fill-rule="evenodd" clip-rule="evenodd" d="M6.98017 3.32619C8.58869 4.4666 8.16539 6.08217 12.229 6.08217C12.229 12.0693 4.77905 11.119 4.77905 6.65238C4.77905 5.607 6.64154 4.7517 6.98017 3.32619ZM7.99608 11.9743C9.85856 11.9743 10.9591 11.7842 12.3983 10.1686C15.7 6.55734 12.9909 0 8.50403 0C5.62564 0 3.00122 2.94605 3.00122 6.08217C3.00122 8.55306 5.03303 11.9743 7.99608 11.9743Z" fill="white"/>
</svg>
