<svg width="1200" height="601" viewBox="0 0 1200 601" fill="none" xmlns="http://www.w3.org/2000/svg">
<g clip-path="url(#clip0_126_209)">
<path d="M4.53434 0.420931L4.52955 0.370792L4.57955 0.360792C4.56409 0.38045 4.54902 0.400502 4.53434 0.420931Z" fill="#2F6673"/>
<path d="M1459.11 548.83C1462.34 550.709 1461.81 551.988 1461.5 552.756C1461.14 553.647 1461.05 553.849 1467.44 553.5C1470.42 560.25 1451.64 558 1455.45 552.26C1457.43 552.67 1460.6 550.93 1459.1 548.83H1459.11Z" fill="#2F6673"/>
<path d="M1602 596.869C1601.41 595.892 1600.96 595.124 1600.98 595.039C1599.95 598.149 1598.61 597.779 1596.1 596.789C1592.54 601.709 1600.53 602.939 1604.22 601.499C1604.71 601.427 1603.12 598.756 1602 596.869Z" fill="#2F6673"/>
<path d="M472.75 729.109C471.79 731.869 465.58 740.149 465.93 733.799C466.732 733.768 467.782 732.177 468.829 730.59C470.459 728.122 472.081 725.664 472.75 729.109Z" fill="#2F6673"/>
<path d="M1010.36 757.09L1001.09 744.05C996.601 747.77 990.141 739.42 990.341 734.95C988.671 734.01 982.901 734.93 983.501 738.21C987.533 739.457 990.915 743.803 994.266 748.108C999.084 754.299 1003.84 760.405 1010.36 757.09Z" fill="#2F6673"/>
<path d="M1068.03 887.14C1069.97 886.08 1088.4 879.33 1085.84 883.31C1084.68 883.871 1083.32 884.651 1081.85 885.497L1081.85 885.498C1075.4 889.211 1066.75 894.196 1062.13 887.51C1062.16 885.912 1063.41 886.412 1064.8 886.964C1066.03 887.451 1067.36 887.98 1068.03 887.14Z" fill="#2F6673"/>
<path fill-rule="evenodd" clip-rule="evenodd" d="M1581.12 143.409C1581.15 142.506 1581.07 140.879 1580.29 141.241C1578.92 146.433 1577.84 151.664 1576.78 156.866C1574.11 169.819 1571.49 182.596 1564.44 194.161C1557.64 205.641 1551.94 217.611 1551.66 231.251C1545.49 232.231 1544.83 240.531 1551.04 236.821C1573.74 231.893 1595.69 227.233 1617.43 222.615C1670.35 211.378 1722.1 200.389 1780.76 186.391C1784.06 186.361 1787.35 185.088 1790.53 183.858C1793.85 182.573 1797.05 181.335 1800.01 181.611C1802.56 189.05 1797.18 189.77 1791.79 190.492C1789.74 190.766 1787.7 191.04 1786.08 191.681C1759.25 198.427 1728.81 204.95 1697.81 211.59L1697.81 211.59C1648 222.263 1596.77 233.238 1556.88 245.931C1536.02 248.459 1535.86 274.274 1535.74 293.633C1535.71 297.249 1535.69 300.639 1535.54 303.611C1545.3 325.491 1554.1 349.791 1558.02 373.641C1560.32 387.608 1574.94 387.699 1589.21 387.787C1597.05 387.836 1604.78 387.884 1610.3 390.231C1613.69 391.276 1617.08 392.251 1620.45 393.218L1620.45 393.219C1638.92 398.528 1656.49 403.58 1667.67 418.391C1681.7 415.411 1694.86 409.811 1706 401.141C1716.23 397.107 1727.29 401.201 1737.88 405.12C1742.25 406.739 1746.54 408.327 1750.66 409.301C1764.85 419.011 1792.09 429.151 1799.65 407.901C1802.62 408.889 1797.87 415.684 1795.54 419.013C1795.09 419.659 1794.72 420.174 1794.53 420.491C1799.26 421.511 1801.41 425.261 1800.38 430.351C1793.11 425.641 1782.09 424.631 1774.11 425.081L1782.28 449.841C1782.77 455.038 1787.86 456.022 1792.55 456.927C1797.21 457.826 1801.46 458.647 1800.38 463.441C1779.76 465.954 1776.09 451.651 1772.95 439.44C1770.9 431.437 1769.07 424.334 1762.86 423.451C1718.28 398.305 1712.86 402.64 1687.01 423.317C1682.25 427.119 1676.81 431.475 1670.3 436.301C1647.46 456.151 1620.43 472.741 1589.15 468.731C1588.17 468.694 1586.87 468.862 1585.47 469.043C1582.02 469.49 1577.92 470.021 1576.2 467.788C1580.52 479.83 1584.93 491.74 1592.33 501.491C1604.58 515.569 1602.45 529.478 1600.37 543.064C1598.78 553.458 1597.22 563.663 1602.15 573.611C1608.28 603.333 1618.75 603.637 1628.6 603.923C1636.6 604.155 1644.19 604.376 1648.71 620.391C1657.9 642.811 1662.27 658.876 1665.27 669.916C1668.33 681.14 1669.97 687.171 1673.82 689.408C1678.29 692.005 1685.73 689.483 1701.83 684.03C1708.49 681.774 1716.63 679.016 1726.65 675.911C1740.3 672.16 1753.57 667.793 1766.84 663.425L1766.87 663.417C1777.61 659.88 1788.36 656.342 1799.32 653.131C1801.57 655.001 1801.08 661.281 1796.56 661.361C1783.78 666.439 1767.63 670.664 1750.6 675.121C1715.01 684.434 1675.56 694.757 1654.88 715.981C1658.39 727.506 1659.02 739.312 1659.66 751.267V751.269C1660.19 761.221 1660.73 771.276 1662.94 781.361C1668.74 804.751 1660.21 828.151 1648.69 847.651C1668.74 847.017 1686.82 853.8 1704.6 860.471C1723.3 867.487 1741.68 874.38 1761.67 872.391C1765.52 872.554 1769.49 872.918 1773.47 873.283C1782.68 874.128 1791.94 874.977 1799.93 873.351C1800.69 873.987 1800.52 877.795 1800.37 880.955C1800.28 882.957 1800.2 884.699 1800.38 885.211C1801.78 888.282 1780.98 885.614 1766.24 883.722L1766.23 883.722C1758.42 882.72 1752.31 881.935 1752.11 882.341C1744.83 878.664 1736.6 877.204 1728.36 875.74C1719.29 874.131 1710.21 872.518 1702.35 867.951C1701.7 867.521 1700.7 868.661 1701.45 869.041C1709.64 876.646 1713.59 875.519 1715.83 874.88C1717.88 874.297 1718.5 874.121 1719.61 881.371C1720.14 881.183 1720.73 880.964 1721.36 880.728L1721.37 880.725C1726.74 878.724 1735.23 875.558 1738.92 880.771L1719.23 889.051C1707.53 893.412 1693.55 900.255 1678.8 907.475C1650.83 921.162 1620.1 936.205 1596.87 938.261C1587.06 936.667 1600.1 932.577 1614.07 928.193C1624.82 924.822 1636.12 921.278 1638.01 918.561C1672.93 905.771 1671.65 902.93 1664.33 886.688C1661.62 880.669 1658.08 872.809 1655.25 861.921C1643.13 854.861 1628.76 860.221 1617.05 865.571C1615.47 852.901 1532.37 876.411 1520.38 884.601C1505.37 885.738 1501.69 897.857 1497.86 910.466C1494.99 919.923 1492.04 929.657 1484.16 935.241C1483.59 936.068 1479.92 938.808 1475.47 942.128C1467.17 948.318 1456.17 956.522 1457.57 958.091C1460.18 957.831 1464.93 958.431 1467.38 959.381C1468.21 959.771 1467.53 961.271 1466.66 961.091C1459.15 958.508 1454.6 961.626 1449.93 964.813C1446.36 967.254 1442.74 969.735 1437.68 969.731C1419.72 974.876 1421.13 993.724 1422.44 1011.25C1422.99 1018.61 1423.52 1025.73 1422.6 1031.51C1424.54 1026.47 1431.3 1024.2 1438.39 1021.82C1445.09 1019.56 1452.1 1017.21 1455.63 1012.31C1459 1010.66 1462.77 1006.83 1466.42 1003.13C1469.15 1000.36 1471.82 997.655 1474.2 995.981C1475.99 994.837 1477.61 993.13 1479.15 991.5C1482.52 987.941 1485.54 984.75 1489.27 988.591C1471.56 1010.9 1447.68 1026.06 1422.25 1035.54C1425.41 1066.1 1414.79 1084.69 1404.41 1102.88C1396.61 1116.54 1388.94 1129.97 1387.35 1148.06C1388.82 1154.61 1395.55 1156.47 1401.96 1158.25C1406.49 1159.5 1410.86 1160.72 1413.12 1163.5C1417.16 1164.9 1416.41 1164.99 1411.33 1165.36C1409.65 1165.22 1407.83 1165.26 1406 1165.3C1402.34 1165.38 1398.59 1165.47 1395.58 1164.1C1393.24 1163.44 1391 1162.03 1388.98 1160.76C1384.44 1157.9 1381.01 1155.74 1380.08 1164.37C1370.75 1168.02 1372.2 1163.42 1374.02 1157.66C1374.89 1154.9 1375.84 1151.87 1375.74 1149.35C1377 1145.69 1378.09 1142.74 1378.98 1140.32C1381.3 1134.02 1382.28 1131.38 1381.45 1129.55C1380.86 1128.23 1379.34 1127.33 1376.72 1125.78C1373.88 1124.1 1369.76 1121.66 1364.15 1117.11C1355.47 1092.66 1344.06 1092.27 1337.37 1117.11C1338.12 1123.04 1339.43 1129.15 1340.73 1135.23L1340.74 1135.23L1340.74 1135.24C1342.98 1145.68 1345.2 1156.06 1344.57 1165.36C1338.21 1166.86 1337.49 1157.5 1337.06 1151.88C1336.91 1149.9 1336.8 1148.39 1336.48 1147.98C1336.63 1144.41 1335.6 1139.77 1334.48 1134.77L1334.48 1134.77C1332.66 1126.56 1330.61 1117.38 1333.25 1110.39C1351.42 1081.3 1343.66 1071.15 1321.09 1096.55C1312.93 1098.82 1305.05 1102.12 1297.17 1105.42L1297.16 1105.43C1287.82 1109.34 1278.49 1113.25 1268.72 1115.43C1265.88 1116.54 1262.5 1119.85 1259.09 1123.18L1259.09 1123.18C1255.93 1126.28 1252.75 1129.39 1249.97 1130.78C1257.22 1140.08 1264.7 1152.48 1267.23 1165.36C1262.56 1165.82 1261.38 1161.14 1260.13 1156.16C1259.01 1151.74 1257.84 1147.09 1254.12 1145.54C1242.4 1129.89 1221.63 1134.19 1202.57 1138.13C1197.19 1139.25 1191.94 1140.33 1187.07 1140.93C1147.85 1155.19 1104.97 1167.02 1062.91 1164.8C1063.15 1163.86 1065.79 1163.33 1068.84 1162.72L1068.84 1162.72C1072.7 1161.95 1077.19 1161.05 1078.27 1159.03C1070.73 1146.16 1064.86 1134.31 1059.13 1122.75L1059.13 1122.75C1054.89 1114.19 1050.73 1105.79 1046.03 1097.25C1035.42 1077.99 1024.28 1055.73 1013.38 1033.95L1013.38 1033.95C1005.77 1018.74 998.27 1003.77 991.15 990.201C988.894 986.413 986.894 982.354 984.884 978.276C982.305 973.043 979.709 967.777 976.54 963.011C981.514 954.253 984.536 961.762 986.725 967.2C987.11 968.158 987.47 969.052 987.81 969.781C1012.37 1016.54 1039.9 1069.35 1063.94 1116.03C1065.4 1118.6 1067.26 1122.54 1069.38 1127.04C1074.3 1137.46 1080.62 1150.85 1086.61 1156.98L1089.43 1156.77C1111.85 1155.11 1135.83 1153.34 1156.98 1144.98C1176.5 1135.24 1197.73 1132.56 1218.68 1129.91C1228.28 1128.7 1237.81 1127.49 1247.1 1125.62C1260.02 1112.24 1277.33 1106.11 1294.63 1099.98C1303.43 1096.86 1312.22 1093.74 1320.44 1089.67C1322.22 1087.76 1324.37 1085.8 1326.55 1083.82C1329.67 1080.97 1332.84 1078.08 1335.09 1075.19C1326.47 1057.05 1311.38 1048.95 1292.75 1044.05C1285.51 1033.93 1279.69 1018.64 1274.09 1003.91L1274.09 1003.91L1274.09 1003.91L1274.09 1003.9C1270.47 994.401 1266.94 985.132 1263.18 977.641C1243.53 989.481 1126.2 979.681 1204.57 977.531C1210.08 977.093 1215.81 977.07 1221.59 977.047C1234.84 976.994 1248.4 976.94 1260.43 971.901C1260.25 961.205 1256.84 961.527 1251.83 962C1248.88 962.28 1245.36 962.612 1241.63 960.751C1208.92 957.141 1177.36 942.351 1148.67 928.131C1135.35 919.125 1127.43 910.276 1118.73 900.541C1114.03 895.293 1109.11 889.787 1102.98 883.861C1100.83 884.281 1087.49 889.211 1089.47 892.351C1074.09 899.027 1062.69 909.455 1050.36 920.74L1050.35 920.748C1048.46 922.475 1046.55 924.223 1044.6 925.981C1043.65 926.425 1041.5 927.606 1038.73 929.126L1038.71 929.137L1038.71 929.139L1038.71 929.14C1030.21 933.812 1015.92 941.668 1012.64 941.231C1004.23 944.257 996.241 949.041 988.193 953.86C975.577 961.414 962.818 969.054 948.08 970.141C946.113 970.372 944.232 970.468 942.426 970.449C944.088 970.607 945.638 970.905 946.96 971.501C946.999 974.464 948.959 983.316 950.96 992.351L950.961 992.353C953.025 1001.68 955.133 1011.19 955.22 1014.64C958.46 1023.69 960.324 1035.92 962.276 1048.73C965.614 1070.63 969.208 1094.21 980.37 1106.39C986.574 1116.58 989.319 1133 991.759 1147.59L991.759 1147.59C992.788 1153.74 993.763 1159.57 994.92 1164.47C994.689 1165.61 992.594 1165.48 990.911 1165.37C990.114 1165.33 989.409 1165.28 989.04 1165.38C987.479 1161.8 986.417 1154.62 985.208 1146.46C982.674 1129.34 979.498 1107.88 969.75 1106.09C962.227 1084.32 956.298 1052.62 951.087 1024.77L951.087 1024.77C949.067 1013.97 947.155 1003.74 945.3 994.901C944.637 992.326 944.201 989.724 943.784 987.233C942.083 977.062 940.692 968.751 925.39 971.731C923.563 974.399 921.748 977.397 919.885 980.474L919.884 980.476C915.422 987.844 910.688 995.66 904.89 1000.47C892.835 1008.38 886.976 1018.07 880.737 1028.39C879.864 1029.83 878.985 1031.29 878.08 1032.75C876.334 1035.5 874.53 1038.14 872.82 1040.65C868.575 1046.88 864.911 1052.26 864.17 1056.15C851.128 1075.04 855.281 1096 859.486 1117.22C862.688 1133.39 865.921 1149.7 861.62 1165.38H852.06C853.106 1156.58 851.402 1147.83 849.702 1139.09L849.7 1139.08C848.964 1135.3 848.23 1131.53 847.72 1127.76C847.99 1106.24 853.5 1144.24 853.6 1150.97C857.487 1140.06 852.412 1127.91 847.396 1115.91C844.232 1108.33 841.091 1100.82 840.24 1093.7C839.416 1086.14 839.531 1079.47 839.639 1073.23C839.832 1062.07 840.001 1052.32 834.7 1041.43C832.061 1034.03 827.434 1026.97 822.776 1019.86C815.889 1009.35 808.933 998.733 808.23 986.761C808.157 984.607 809 981.723 809.876 978.727C811.88 971.876 814.057 964.435 805.84 963.781C791.424 949.241 770.214 942.928 749.493 936.759C743.492 934.973 737.532 933.199 731.79 931.241C719.608 927.283 707.396 923.008 695.162 918.71C695.276 921.146 690.104 926.036 685.979 929.936L685.978 929.937C683.576 932.208 681.529 934.143 681.091 935.061C654.881 963.731 629.601 991.861 608.701 1023.98C586.561 1041.49 554.991 1069.95 533.191 1092.57C524.088 1102.79 512.664 1112.59 501.038 1122.57C492.075 1130.27 482.992 1138.06 474.761 1146.23C474.691 1153.12 482.071 1160.96 489.621 1164.56C490.43 1164.84 489.599 1165.09 489.053 1165.25L489.05 1165.25L489.047 1165.25C488.962 1165.28 488.883 1165.3 488.82 1165.32C488.764 1165.34 488.719 1165.36 488.691 1165.37C485.221 1165.01 481.881 1164.75 478.511 1165.37C477.923 1146.49 469.195 1151.99 459.137 1158.32C452.753 1162.34 445.833 1166.7 440.121 1165.37C436.393 1165.01 437.874 1164.45 439.431 1163.86C440.13 1163.6 440.844 1163.33 441.111 1163.07C448.451 1158.47 457.556 1152.58 465.915 1146.02C465.897 1146 465.878 1145.98 465.858 1145.96L465.832 1145.93C465.815 1145.92 465.798 1145.9 465.781 1145.88C461.114 1140.4 465.742 1136.87 470.239 1133.44C471.908 1132.17 473.56 1130.91 474.711 1129.57C487.31 1127.83 496.47 1119.18 505.666 1110.51C508.184 1108.13 510.706 1105.75 513.301 1103.51C521.216 1096.14 528.937 1088.61 536.679 1081.05C550.523 1067.54 564.434 1053.97 579.641 1041.15C581.244 1039.72 583.897 1037.57 586.933 1035.12C593.916 1029.46 602.924 1022.16 605.831 1018.24C609.944 1013.1 614.159 1006.63 618.402 1000.13L618.402 1000.13C624.278 991.112 630.207 982.017 635.991 976.251C639.059 972.629 642.111 969.536 645.045 966.562C649.483 962.064 653.653 957.837 657.211 952.461L651.021 942.411C629.661 946.181 608.391 945.151 587.081 943.511C579.586 941.52 571.689 937.485 563.759 933.433C554.759 928.835 545.718 924.215 537.181 922.541C528.841 910.871 514.681 894.141 505.121 883.071C502.037 879.012 496.523 878.039 491.302 877.119C487.905 876.519 484.631 875.942 482.231 874.551C483.3 865.557 498.861 872.534 505.252 875.399L505.757 875.625C505.926 875.701 506.088 875.773 506.241 875.841C517.841 888.341 529.241 902.031 539.531 916.121C544.694 918.316 549.563 920.509 554.262 922.625C578.743 933.651 598.619 942.603 631.481 938.971C637.834 939.119 644.349 937.53 650.881 935.938C658.856 933.993 666.854 932.042 674.611 933.241L688.951 917.521C689.71 917.39 690.389 917.3 690.994 917.246C671.105 910.258 651.161 903.295 631.2 897.611C622.73 894.291 613.927 891.27 605.052 888.224C593.233 884.167 581.287 880.067 569.83 875.161C564.756 872.198 559.745 868.617 554.657 864.981C547.671 859.988 540.538 854.89 532.89 851.141C528.61 848.562 524.456 845.975 520.346 843.416L520.333 843.407L520.306 843.391C511.265 837.759 502.438 832.26 492.96 827.281C477.07 815.571 464.29 812.611 444.5 818.221C443.157 820.017 440.863 819.39 438.473 818.736C435.86 818.021 433.133 817.275 431.41 819.631C430.375 821.876 428 825.15 425.138 829.095C417.383 839.788 406.05 855.413 408.11 868.861C401.301 871.416 403.036 865.078 404.61 859.33C405.463 856.213 406.269 853.27 405.64 852.011C408.425 844.609 413.101 838.571 417.839 832.454C421.455 827.786 425.106 823.072 427.98 817.671C361.48 812.241 363.65 782.951 371.5 721.851C371.332 715.653 368.15 710.976 364.938 706.253C361.832 701.686 358.697 697.077 358.23 691.011C356.34 685.441 358 698.331 359.81 699.591C360.38 700.694 359.683 700.917 358.908 701.166C358.433 701.319 357.928 701.48 357.67 701.861C356.378 703.357 356.871 703.178 357.874 702.815C358.935 702.43 360.566 701.839 361.25 702.811C370.395 711.212 358.422 710.269 349.541 709.569C345.905 709.283 342.788 709.038 341.85 709.491C339.902 709.147 341.083 708.406 342.761 707.354C344.789 706.083 347.544 704.356 346.39 702.321C341.881 708.097 333.315 707.254 324.738 706.41C320.114 705.955 315.486 705.499 311.49 706.081C303.046 706.739 291.165 707.462 281.887 708.026L281.846 708.029L281.823 708.03C280.137 708.133 278.537 708.23 277.06 708.321C270.58 709.461 262.398 708.243 253.982 706.989C235.84 704.287 216.611 701.422 211.01 721.691C210.399 724.361 209.681 729.116 208.812 734.871C205.88 754.293 201.23 785.097 193.2 785.521C191.268 782.478 192.321 777.507 193.04 774.118C194.036 769.42 194.387 767.761 185.25 778.491C162.796 786.913 139.701 784.057 116.531 781.191C97.7734 778.871 78.9664 776.545 60.4095 780.191C49.6185 781.764 39.6969 787.038 30.2354 792.067C19.9165 797.551 10.1448 802.745 0.389547 802.531C-4.82045 793.821 49.4195 775.831 58.1095 773.301C73.152 771.167 88.7496 770.981 104.168 770.796C112.161 770.701 120.105 770.606 127.9 770.241C133.662 769.803 140.872 770.998 148.241 772.219C160.733 774.289 173.68 776.435 180.8 770.831C181.16 774.481 184.76 768.291 183.77 765.871C197.45 760.151 202.7 726.691 204.92 707.991C205.699 698.807 204.041 687.574 202.338 676.037C198.993 653.378 195.475 629.541 209.9 617.721C210.466 624.647 208.948 631.727 207.418 638.86C205.464 647.969 203.492 657.163 205.82 666.231C208.496 672.633 209.411 682.814 210.181 691.377C210.731 697.498 211.207 702.794 212.2 705.291C226.361 696.728 244.693 698.383 262.573 699.997C275.285 701.145 287.767 702.271 298.36 699.691C302.042 701.115 306.723 700.004 311.514 698.867C317.586 697.425 323.833 695.942 328.44 699.531C351.702 704.331 353.9 694.826 357.226 680.447C360.19 667.628 364.051 650.936 384.53 637.051C388.429 632.792 392.444 628.909 396.379 625.103C401.435 620.213 406.359 615.45 410.74 610.181C417.607 606.851 420.361 599.319 423.228 591.482C425.904 584.164 428.678 576.58 434.99 571.901C434.291 569.258 433.064 566.694 431.848 564.155C428.869 557.932 425.962 551.859 431.09 545.141C430.301 542.424 429.42 539.781 428.55 537.171C425.612 528.36 422.803 519.933 424.13 510.351C409.316 517.94 391.541 528.043 373.145 538.499L373.143 538.5L373.142 538.501L373.14 538.502C341.479 556.497 307.981 575.537 284.58 584.601C282.113 581.215 278.733 579.728 275.287 578.211C272.585 577.021 269.843 575.814 267.47 573.661C266.992 573.336 265.937 573.617 264.867 573.902C263.337 574.31 261.777 574.726 261.83 573.391C269.29 566.851 232.92 552.791 227.95 552.491C203.829 537.838 199.689 544.886 187.2 566.149C186.947 566.581 186.69 567.018 186.43 567.461C184.93 570.205 184.205 573.422 183.493 576.579C181.97 583.337 180.508 589.822 171.64 590.811C169.18 595.074 167.611 598.631 166.262 601.689C162.482 610.255 160.434 614.896 145.4 620.151C144.718 620.211 143.939 621.703 143.266 622.992C142.822 623.842 142.424 624.604 142.13 624.811C141.89 634.993 145.705 648.871 149.712 663.451C159.582 699.359 170.62 739.519 125.13 739.171C119.26 738.351 118.52 748.251 121.14 749.781C123.41 748.781 126.07 748.431 128.18 749.691C126.938 756.809 116.859 757.393 107.263 757.948C101.788 758.265 96.4692 758.573 93.0396 760.081C73.4895 761.781 50.1495 768.991 30.5195 777.151C27.3805 777.307 22.7327 779.838 18.0217 782.403C9.49607 787.044 0.763122 791.799 0.389547 782.801C1.76314 782.22 3.11883 781.645 4.45921 781.077L4.52764 781.048L4.53305 781.046L5.28527 780.727C27.211 771.43 45.1431 763.827 70.5396 757.101C71.6568 757.233 82.5926 755.451 93.1632 753.728C102.65 752.182 111.842 750.684 113.38 750.661C113.775 749.159 113.765 747.352 113.753 745.484C113.729 741.408 113.703 737.043 117.9 734.931C142.53 733.661 159.17 726.431 151.25 697.801C149.64 690.804 147.061 679.105 144.369 666.891L144.368 666.885L144.367 666.883C141.088 652.004 137.64 636.361 135.57 627.521C133.849 626.449 135.647 622.56 136.892 619.868C137.296 618.993 137.642 618.244 137.79 617.761C139.19 615.001 147.07 611.231 150.22 610.241C157.016 608.715 159.207 602.734 161.391 596.773C163.544 590.894 165.69 585.035 172.24 583.491C176.455 582.765 176.745 579.485 177.046 576.079C177.205 574.275 177.368 572.435 178.12 570.921C178.457 570.257 178.801 569.576 179.151 568.881C185.195 556.908 193.299 540.852 205.88 536.571C206.25 537.111 206.86 537.311 207.71 537.161C210.04 536.401 219.56 540.271 222.43 542.581C225.471 545.232 228.359 544.111 231.071 543.058C233.842 541.982 236.429 540.977 238.81 544.141C236.464 548.39 238.954 549.277 242.379 550.497C244.91 551.398 247.953 552.482 249.93 555.241C256.649 557.113 262.595 561.633 268.36 566.016C271.955 568.75 275.481 571.43 279.08 573.381C292.231 579.344 309.184 568.398 325.036 558.162C333.4 552.761 341.458 547.558 348.49 545.141C364.802 536.384 381.632 527.07 398.576 517.693L398.58 517.69L398.587 517.687C420.165 505.745 441.929 493.7 463.05 482.571C465.447 481.056 467.98 479.756 470.456 478.485C476.201 475.536 481.643 472.742 484.39 467.781C486.733 467.021 489.484 466.738 492.243 466.454C498.785 465.78 505.374 465.101 506.69 458.061C483.378 447.172 453.48 432.855 424.976 419.206L424.968 419.202C406.803 410.503 389.205 402.076 374.24 394.981C372.439 394.406 370.613 393.302 368.803 392.208C366.52 390.829 364.262 389.464 362.11 389.191C361.032 388.453 360.513 389.582 360.022 390.653C359.228 392.383 358.503 393.96 355.6 387.251C351.104 386.785 346.96 388.146 343.007 389.446C337.287 391.325 331.966 393.074 326.55 388.971C327.122 390.312 330.875 394.181 335.109 398.547L335.11 398.548C342.272 405.931 350.812 414.735 347.67 415.131C342.425 415.571 339.641 412.729 336.712 409.741C334.983 407.977 333.204 406.162 330.84 404.941C328.873 403.362 327.14 400.585 325.351 397.72C322.755 393.56 320.042 389.214 316.33 388.071C288.028 394.589 279.309 390.126 273.164 386.981C265.932 383.279 262.266 381.403 234.44 401.401C230.68 411.041 225.75 415.251 218.09 405.161C202.61 403.508 187.123 401.659 171.642 399.811L171.635 399.81L171.634 399.81C144.115 396.524 116.619 393.24 89.2296 391.071C70.9016 394.623 52.8519 405.715 35.5919 416.322C23.4041 423.812 11.6098 431.061 0.389547 435.241C-2.62711 426.636 24.6601 413.295 47.3519 402.201C59.3373 396.341 70.0407 391.108 74.3195 387.531C54.2773 379.1 38.8337 380.888 22.4714 382.782C15.4277 383.598 8.21382 384.433 0.389547 384.481C-0.843972 377.79 6.40313 377.643 13.3724 377.502C16.7989 377.433 20.1583 377.365 22.4095 376.521C42.9348 373.003 63.2667 377.454 83.6799 381.922C98.3142 385.126 112.99 388.339 127.81 388.631C138.837 389.409 150.585 390.96 162.414 392.521L162.415 392.521H162.416C185.995 395.633 209.891 398.788 229.03 395.951C236.89 392.451 257.23 380.111 263.38 374.311L263.382 373.772C263.42 366.804 263.484 354.853 253.75 355.711C253.006 355.745 252.245 355.786 251.473 355.827L251.466 355.828C243.999 356.232 235.399 356.697 230.1 351.171C231.392 349.692 229.776 347.971 227.991 346.069C226.131 344.088 224.087 341.912 224.96 339.611C225.288 338.198 225.053 336.042 224.807 333.792C224.343 329.542 223.842 324.957 227.04 324.421C223.577 349.562 238.544 350.068 254.463 350.606C256.887 350.688 259.333 350.77 261.74 350.941C260.9 349.741 260.8 346.391 260.99 344.891C267.251 341.959 267.384 349.435 267.512 356.6C267.583 360.604 267.653 364.511 268.79 366.451C268.869 366.364 269.701 366.545 270.716 366.765C272.393 367.13 274.571 367.603 274.69 367.161C294.751 357.091 294.327 356.936 284.842 353.465C280.923 352.031 275.457 350.031 269.25 346.531C214.89 315.851 160.76 288.301 99.1796 276.051C88.9938 281.101 79.3047 291.501 69.5559 301.965C61.0049 311.143 52.4079 320.371 43.3895 326.081C34.4995 329.571 18.3695 337.941 13.6195 342.701C12.7811 343.047 11.9067 343.43 11.0239 343.817C4.26255 346.779 -2.99683 349.959 1.54955 338.611C3.02701 337.869 4.63481 337.074 6.34914 336.227L6.37076 336.216L6.37171 336.215C31.5831 323.753 79.7857 299.927 75.3395 265.621C74.9349 264.183 74.1048 265.421 73.045 267.001C71.9311 268.663 70.5634 270.703 69.1695 270.411C64.5195 269.161 69.8596 263.351 71.7196 261.631C69.8779 255.556 63.6103 250.353 57.348 245.155C53.137 241.66 48.9283 238.166 46.0695 234.411C42.3892 230.316 37.9358 226.025 33.4899 221.74C29.6732 218.062 25.8614 214.389 22.5495 210.851C21.6559 210.45 20.5115 210.503 19.3518 210.557C17.5916 210.638 15.7963 210.722 14.7895 209.221C11.7788 202.036 7.97618 205.285 4.0804 208.613C2.85211 209.663 1.61446 210.72 0.389547 211.461C-1.04634 208.794 3.31271 205.493 6.27525 203.249C7.21219 202.539 8.00946 201.935 8.43955 201.491C9.30771 199.253 7.38952 198.219 5.16762 197.023C2.29647 195.476 -1.08181 193.656 0.389547 188.611C0.514771 188.517 0.575867 188.118 0.64228 187.685C0.766795 186.872 0.909998 185.937 1.52955 186.661C17.6095 194.391 31.4695 207.851 44.0095 220.771C47.5388 223.891 51.1685 227.853 54.9321 231.961C67.6228 245.814 81.8353 261.328 98.8495 251.811C107.911 251.511 115.422 244.188 122.679 237.113C126.074 233.804 129.413 230.548 132.83 228.091C135.326 226.933 134.819 225.773 134.169 224.287C133.532 222.832 132.759 221.065 134.53 218.681C135.3 219.451 135.86 218.781 136.22 216.691C137.043 215.859 138.186 216.791 139.344 217.735C140.97 219.062 142.627 220.414 143.48 216.951C166.66 190.151 179.68 165.071 198.36 126.801C194.2 122.561 185.64 113.361 181.67 108.861C179.88 111.941 174.13 115.111 171.33 109.881C168.228 106.454 169.899 105.25 171.939 103.779C172.971 103.036 174.098 102.223 174.75 101.021C158.02 95.3308 137.79 91.7508 119.93 91.8608C109.712 94.9188 99.9494 99.8534 90.1797 104.791C79.7267 110.075 69.2651 115.363 58.2295 118.361L56.7207 118.483C38.4974 119.962 23.1864 121.204 8.87955 131.881C6.91973 131.612 5.06623 132.735 3.5835 133.634C1.20773 135.074 -0.216175 135.937 0.399547 129.571C13.7609 117.234 32.233 115.118 50.7086 113.002L50.7262 113C52.8064 112.762 54.8866 112.524 56.9595 112.271C67.2524 109.629 76.8489 104.909 86.4472 100.188C95.8538 95.5612 105.262 90.9335 115.33 88.2608C60.4004 83.5732 50.5166 75.5628 16.9758 48.3793C12.4506 44.7118 7.49473 40.6952 1.93955 36.2908C-1.06256 33.7701 0.333035 28.6102 1.71217 23.5112C2.88263 19.1837 4.04123 14.9 2.48955 12.3108C-0.700453 12.8708 0.339547 9.35079 2.49955 9.33079C4.12146 8.51983 4.06625 6.30961 4.01387 4.21266C3.9761 2.70101 3.93981 1.24823 4.53434 0.420931C5.7085 12.7215 5.28354 19.5427 5.01867 23.7944C4.83403 26.7582 4.72717 28.4734 5.29395 29.9258C6.07259 31.921 8.12264 33.4202 12.9891 36.9788C18.0764 40.6989 26.2416 46.6697 39.2495 57.8108C39.9136 58.3454 40.8006 59.0866 41.8425 59.9573C47.0768 64.3316 56.2211 71.9733 60.6495 73.0908C65.7251 74.0724 76.5366 75.848 87.9778 77.7271L87.9802 77.7275L87.9813 77.7276C101.831 80.0022 116.603 82.4283 123.24 83.7808C130.657 84.8739 139.034 86.4167 147.42 87.9612C155.527 89.4546 163.644 90.9495 170.91 92.0408C170.46 71.5308 160.47 54.3408 148.79 38.2208C147.992 35.486 144.131 29.9982 139.925 24.0203C131.519 12.0743 121.736 -1.82861 132.28 0.370792C137.318 9.93679 143.58 19.0333 149.859 28.1544C160.402 43.4711 170.993 58.8569 175.92 76.6508C176.987 78.8679 177.251 82.1941 177.514 85.5136C177.89 90.2491 178.265 94.9711 180.97 96.4408C199.146 84.0572 215.198 69.6665 231.461 55.0862C238.863 48.45 246.309 41.7743 254.02 35.2308C257.411 31.8042 263.707 27.711 270.292 23.4299C282.502 15.4923 295.705 6.90877 293.23 0.730792C294.31 0.450792 308.9 -0.569208 309.01 1.22079C302.86 6.87583 304.193 8.14012 307.553 11.3283C308.614 12.3346 309.876 13.5326 311.17 15.1208C311.771 15.3432 312.764 16.6613 313.831 18.0776C315.355 20.1002 317.03 22.3231 317.93 21.8408C334.84 11.9408 353.47 2.58079 373.13 0.370792C374.9 0.593577 378.229 0.505048 381.82 0.409538C387.579 0.256396 394.012 0.0853059 395.78 1.15079C380.157 2.43858 379.163 15.3833 378.119 28.9813C377.436 37.8744 376.731 47.0469 371.9 53.4208C371.3 56.7154 370.143 60.4771 368.964 64.31C364.779 77.916 360.319 92.418 379.52 90.1008C388.986 86.3135 400.624 83.5889 412.627 80.779C433.679 75.8505 455.853 70.6594 469.4 59.0108C468.4 58.4392 467.055 57.7284 465.5 56.9065L465.499 56.9058C457.858 52.8674 445.148 46.1492 443.42 40.1008C441.069 28.5377 431.059 17.6595 424.16 10.1623C417.438 2.85713 413.67 -1.23806 422.82 0.370792C425.937 0.876865 429.187 0.710524 432.456 0.543209C436.034 0.360073 439.634 0.17577 443.11 0.870792C442.59 2.17778 440.416 2.17618 438.045 2.17444C434.304 2.17168 430.073 2.16857 431.09 7.31079C431.88 8.08224 432.811 9.35817 433.85 10.7835C437.121 15.2706 441.472 21.2384 445.95 17.6108C455.72 15.0708 465.41 13.2208 475.39 15.1408C480.143 15.9648 485.067 15.0998 489.933 14.2451C497.585 12.9009 505.092 11.5823 511.56 16.9008C513.494 18.1437 514.44 20.8603 515.328 23.4097C516.726 27.4242 517.98 31.024 522.72 27.8008C523.615 26.7723 523.486 25.9253 523.358 25.0884C523.19 23.9806 523.024 22.8905 525.24 21.4208C523.433 19.6779 521.884 17.1487 520.296 14.5575C517.148 9.41768 513.85 4.0342 508.1 4.06079C489.32 12.2308 472.21 9.26079 453 2.46079C451.396 1.92456 450.023 1.7305 448.9 1.57179C447.928 1.43452 447.144 1.32369 446.56 1.04079C446.225 0.538247 449.484 0.504774 451.862 0.480359C453.174 0.46688 454.218 0.456163 454.24 0.370792C474.44 1.21079 494.47 0.810792 513.59 0.370792L520.27 0.660792C521.767 6.86716 525.486 12.8164 529.169 18.7077L529.17 18.7089C530.923 21.5122 532.667 24.3023 534.16 27.1008C543.577 25.2274 552.599 20.8139 561.806 16.3097C574.666 10.0191 587.886 3.55165 603.05 3.58079C606.936 4.13645 610.696 3.93837 614.024 3.763C620.925 3.39943 625.972 3.13348 626.46 9.88428C626.566 9.15276 626.683 8.41831 626.81 7.68079C624.658 -0.0951653 628.088 0.0492342 633.604 0.28146C634.344 0.31264 635.122 0.345404 635.93 0.360792C633.347 9.63384 650.477 6.73608 665.49 4.19627C671.524 3.17549 677.216 2.21253 681.15 2.12079C690.809 0.220653 710.013 0.298937 723.907 0.355574C727.489 0.370175 730.718 0.383338 733.34 0.360792C733.467 0.459977 733.905 0.502696 734.392 0.550288C735.28 0.63705 736.335 0.740009 735.98 1.23079C735.828 1.30512 735.649 1.35126 735.472 1.39672C734.983 1.52248 734.514 1.64298 734.72 2.34079C740.654 23.9914 754.224 29.2056 768.516 34.6971C777.658 38.2099 787.096 41.8362 795.02 49.9508C797.81 52.5908 806.34 55.7608 810.32 56.9508C811.889 54.6135 813.552 52.2454 815.24 49.841L815.243 49.8367L815.256 49.8181L815.257 49.8172L815.259 49.8147C821.786 40.5204 828.694 30.6841 832.06 19.9908C829.763 17.2021 827.363 15.9293 825.418 14.898C821.4 12.7676 819.325 11.6677 824.13 0.360792C827.821 -0.305259 827.079 1.49641 826.027 4.05213C824.426 7.94278 822.106 13.5809 833.61 14.9208C839.02 -12.2792 841.3 6.75079 833.81 24.3208C833.673 28.4531 829.005 34.7491 824.41 40.9455C817.886 49.7441 811.51 58.3421 818.47 60.2608C833.13 47.0363 838.071 25.155 842.457 5.73146L842.462 5.70979C842.87 3.90249 843.274 2.1165 843.68 0.360792C844.143 0.441067 844.851 0.420154 845.614 0.397646C846.941 0.358468 848.432 0.314456 849.08 0.790792C848.663 3.34277 848.321 6.01271 847.972 8.73659C847.124 15.3628 846.234 22.3081 844.13 28.6508C839.32 42.2908 842.77 82.1808 859.88 85.2708C874.01 91.2333 883.004 76.7659 890.723 64.3502C893.296 60.2115 895.727 56.3008 898.16 53.4508C897.409 51.6524 894.713 47.0572 891.323 41.2783C881.669 24.8206 866.383 -1.23786 874.34 0.360792C878.463 6.20689 881.66 13.1014 884.862 20.0081C889.894 30.8582 894.939 41.7383 903.61 48.6308C904.928 46.7582 907.898 45.1573 910.426 43.7948C911.866 43.0181 913.164 42.3189 913.93 41.6908C913.56 39.4508 914.37 38.1108 916.35 37.6608C922.346 34.17 930.137 34.344 938.253 34.5252C939.367 34.5501 940.487 34.5751 941.61 34.5908C954.83 33.1608 972.31 8.88079 976.47 0.360792C976.957 0.394301 977.515 0.378945 978.076 0.363498C980.529 0.29597 983.044 0.226707 980.05 4.23079C983.403 5.23196 988.335 4.06598 993.866 2.75863C998.61 1.63713 1003.79 0.411583 1008.8 0.360792C1016.41 9.47087 1028.48 6.44307 1040.24 3.49566C1046.72 1.87154 1053.1 0.27184 1058.58 0.740792C1064.24 0.150999 1093.4 0.269064 1116.58 0.362951C1129.96 0.417108 1141.34 0.46322 1145.09 0.360792C1157.92 1.53079 1099.09 6.90079 1090.76 6.24079C1087.18 9.85986 1086.31 16.237 1085.42 22.7723C1084.85 26.927 1084.28 31.1464 1082.99 34.7608C1090.81 41.2939 1101.6 46.0732 1112.36 50.8418C1119.58 54.0437 1126.8 57.2408 1133.1 60.9608C1133.31 61.0772 1133.52 61.1936 1133.73 61.3098L1133.73 61.3118C1139.23 64.3712 1144.57 67.3396 1133.31 67.8308C1117.27 63.349 1106.27 56.3471 1098.43 51.3515C1082.76 41.3774 1079.65 39.4014 1074.09 81.4508C1073.85 82.5986 1072.25 83.167 1070.93 83.6343C1070.4 83.8224 1069.92 83.9942 1069.59 84.1808C1070.34 84.9652 1072.32 83.9629 1074.32 82.9531C1075.69 82.2636 1077.06 81.5706 1078.05 81.4408C1090.11 76.8666 1104.66 74.27 1119.17 71.6811C1138.09 68.3046 1156.94 64.9413 1170.08 57.2208C1168.71 48.0556 1169.24 38.4567 1169.77 28.6778C1170.26 19.7315 1170.76 10.6345 1169.82 1.58079C1168.55 -0.149208 1174.26 0.270792 1175.26 0.810792C1176.27 11.1701 1175.29 22.466 1174.39 32.8424L1174.39 32.8522L1174.38 32.86C1174.12 35.8695 1173.87 38.8015 1173.67 41.6108C1173.94 44.6538 1174.71 47.2674 1175.39 49.5522C1177 54.9785 1178.06 58.5497 1170.45 61.6108C1175.23 60.2045 1181.02 58.0974 1187.33 55.7951C1209.27 47.7998 1237.68 37.45 1253.19 45.9208C1262.91 37.1108 1273.29 20.3208 1280.16 8.73079C1281.17 7.79027 1282.07 6.63858 1282.96 5.48393C1285.72 1.92455 1288.5 -1.66324 1294.92 0.820792C1295.59 1.22861 1295.03 1.56449 1294.45 1.91903C1294.06 2.15566 1293.65 2.4006 1293.59 2.68079C1293.05 4.02553 1291.72 5.68858 1290.39 7.35435C1288.87 9.25614 1287.35 11.1615 1286.99 12.6008C1280.84 20.3328 1276.74 26.5455 1272.79 32.5294C1268.94 38.3476 1265.24 43.9493 1259.95 50.5208C1257.29 51.1217 1254.67 49.466 1251.91 47.7247C1248.97 45.8727 1245.88 43.9238 1242.44 44.4908C1242.06 44.5103 1241.38 44.5228 1240.58 44.5376C1237.68 44.591 1233.14 44.6749 1234.67 45.2308C1243.88 43.5508 1250.67 47.2808 1258.41 52.3008C1260.48 53.3924 1262.48 54.4373 1264.41 55.447C1292.8 70.2721 1306.6 77.4822 1310.03 112.891C1310.33 117.024 1312.05 120.608 1313.86 124.362C1315.34 127.428 1316.87 130.608 1317.72 134.291C1316 153.821 1337.55 163.821 1352.63 170.211C1372.45 159.845 1392.75 144.333 1413.41 128.551C1431.75 114.537 1450.38 100.309 1469.19 89.2808C1472.78 87.5374 1476.64 86.3033 1480.5 85.0694C1488.54 82.4956 1496.59 79.9229 1502.19 72.7308C1509.92 67.1575 1519.4 64.4804 1528.64 61.8733C1534.03 60.3499 1539.34 58.8504 1544.17 56.8108C1547.88 54.7286 1551.02 52.7863 1553.93 50.9846C1562.73 45.5438 1569.46 41.3855 1583.49 38.5308C1590.45 34.1533 1588.76 24.8244 1587.16 15.9454V15.9439C1586.09 10.0166 1585.05 4.28987 1586.65 0.370792C1586.95 0.498389 1587.9 0.462222 1588.96 0.421419C1590.57 0.359892 1592.46 0.287821 1592.83 0.750792C1593.56 4.3904 1593.98 8.28218 1594.4 12.2285V12.2335C1594.93 17.1766 1595.47 22.2052 1596.65 26.9308C1606.63 23.448 1615.03 18.258 1623.98 12.7307C1625.46 11.8146 1626.96 10.8892 1628.48 9.96079C1629.16 9.90364 1628.92 6.27031 1628.74 3.48707C1628.63 1.88701 1628.54 0.567912 1628.66 0.370792H1631.23C1630.12 10.847 1633.29 8.21522 1637.5 4.71225C1639.57 2.9923 1641.9 1.06234 1644.09 0.370792C1654.43 -0.333207 1652.28 1.2609 1648.28 4.22737L1648.28 4.22834L1648.27 4.22944C1646.25 5.72917 1643.75 7.57947 1642.16 9.66079C1637.04 13.89 1630.42 17.3045 1623.77 20.7295C1614.16 25.6782 1604.51 30.6489 1599.32 38.1308C1601.23 58.9101 1595.72 79.0667 1590.23 99.1471C1586.2 113.87 1582.19 128.552 1581.12 143.409ZM468.034 1144.32C472.918 1140.35 477.463 1136.15 481.141 1131.86C481.791 1126.24 466.251 1139.98 467.041 1142.09C467.72 1142.5 468.026 1143.43 468.034 1144.32ZM625.704 17.4593C623.918 22.2266 595.698 15.2423 594.17 10.0808C576.147 14.907 558.977 23.5457 542.503 31.8341L542.499 31.8358C538.937 33.6279 535.408 35.4036 531.91 37.1208C529.967 37.999 526.815 39.3932 522.975 41.0919C508.494 47.4982 484.227 58.2337 478.11 61.9408C484.1 78.2308 495.17 95.3708 506.77 109.751C511.63 122.617 530.668 130.259 547.144 136.872C555.345 140.164 562.911 143.201 567.78 146.501C586.473 150.069 594.008 165.572 601.515 181.018C602.486 183.015 603.456 185.012 604.45 186.981C617.725 180.571 632.652 175.789 647.786 170.94C675.742 161.983 704.401 152.801 724.65 132.721C729.178 122.965 737.021 116.543 744.893 110.098C751.328 104.829 757.782 99.5442 762.46 92.4108C766.884 89.9103 770.776 82.2804 774.632 74.7221C780.537 63.147 786.356 51.7397 793.87 59.1808C779.72 86.1708 756.62 108.741 734.35 128.101C728.33 140.591 726.38 144.021 715.73 150.381C698.06 160.796 679.403 167.218 660.665 173.668C645.49 178.892 630.262 184.134 615.46 191.531C615.263 194.179 616.943 198.087 618.631 202.012C620.467 206.283 622.312 210.576 621.76 213.291C616.273 217.518 614.662 211.556 613.009 205.433C611.881 201.256 610.732 197.004 608.32 195.861C590.256 203.771 586.247 209.001 578.724 218.817C576.422 221.82 573.792 225.252 570.33 229.321C545.15 252.681 514.91 269.201 482.88 280.271C469.86 290.131 419.26 310.111 460.44 284.441C471.344 277.67 483.252 272.909 495.07 268.183C513.955 260.631 532.611 253.171 546.58 237.751C535.62 229.303 538.519 220.492 542.232 209.212C542.466 208.501 542.703 207.781 542.94 207.051C539.743 198.642 536.208 190.292 532.646 181.877C525.922 165.994 519.1 149.879 514.27 132.701C514.156 132.202 514.06 131.692 513.964 131.183L513.964 131.181C513.472 128.562 512.981 125.944 510.01 124.881L501.23 111.821C500.183 110.414 498.979 108.843 497.686 107.155L497.685 107.154L497.683 107.15C491.578 99.1812 483.489 88.6218 480.56 80.5608C479.817 79.6071 478.565 76.9279 477.213 74.0352L477.213 74.0339C475.361 70.072 473.323 65.7092 472.15 64.8308C457.554 75.0696 443.194 78.7459 429.026 82.3729C419.685 84.7646 410.427 87.1348 401.24 91.3508C398.39 92.6408 395.772 92.6408 393.193 92.6408C390.615 92.6408 388.075 92.6408 385.38 93.9308C382.841 96.7683 378.227 95.9723 374.09 95.2583C369.23 94.4197 365.026 93.6943 365.61 99.1008C365.989 107.98 366.016 116.932 366.043 125.904C366.077 137.251 366.111 148.632 366.86 159.941C368.483 167.049 370.722 174.138 372.977 181.281C377.515 195.651 382.12 210.237 381.92 225.621C379.475 233.47 391.392 249.969 402.359 265.154C413.999 281.27 424.569 295.905 415.76 297.141C407.57 284.639 401.378 274.822 396.731 267.457L396.73 267.456C388.856 254.974 385.423 249.532 384.237 249.984C383.32 250.334 383.746 254.207 384.502 261.076C385.67 271.682 387.623 289.43 386.63 312.371C386.557 314.772 386.881 317.37 387.209 320.001C387.921 325.719 388.653 331.592 385.38 335.941C367.98 345.721 338.45 372.481 368.73 383.261C383.561 391.983 405.831 402.502 427.253 412.619L427.254 412.62L427.259 412.622C443.288 420.193 458.843 427.539 470.45 433.741C480.322 437.984 487.565 442.279 493.133 445.581C510.003 455.584 511.504 456.474 524.18 419.221C527.254 418.031 530.1 414.56 533.012 411.008C535.339 408.171 537.707 405.281 540.27 403.461C540.26 403.261 541.362 402.358 542.755 401.215C545.621 398.865 549.72 395.504 547.91 395.181C565.48 378.601 579.31 370.381 601.9 360.861C636.4 326.401 680.64 295.961 727.14 276.671C774.394 268.738 825.183 269 874.902 269.255C892.5 269.346 909.964 269.435 927.09 269.161C930.034 245.39 928.148 222.17 926.174 197.868L926.174 197.865C925.07 184.28 923.939 170.357 923.61 155.811C922.426 142.172 922.552 131.831 922.648 123.983C922.773 113.801 922.846 107.816 919.941 104.274C915.798 99.2236 905.601 99.1399 880.863 98.9368H880.86C878.805 98.9199 876.65 98.9022 874.39 98.8808C872.459 103.136 872.225 108.456 871.993 113.763C871.593 122.885 871.195 131.969 862.18 135.541C858.369 132.088 858.105 137.699 857.917 141.694C857.848 143.16 857.79 144.409 857.57 144.911C852.675 146.388 852.715 143.249 852.758 139.879C852.78 138.14 852.803 136.34 852.15 135.081C843.8 133.306 839.692 137.802 835.029 142.908C834.174 143.843 833.301 144.799 832.38 145.741C828.156 140.007 833.273 134.821 839.289 128.724C851.349 116.501 867.022 100.616 818.29 69.3108C802.99 62.3808 787.57 53.0708 773.85 43.7508C760.3 39.3208 745.71 33.3408 737.28 22.4308C735.757 19.9635 734.519 17.2632 733.321 14.6496C729.143 5.53719 725.448 -2.5203 711.88 4.03079C704.833 4.87504 697.758 5.87755 690.671 6.88167C671.82 9.55266 652.888 12.2352 634.21 11.9808C628.103 24.3186 634.854 45.5606 639.426 59.9457C639.66 60.6828 639.889 61.4018 640.11 62.1008C645.281 75.8226 648.871 89.7674 652.458 103.7C655.709 116.329 658.958 128.947 663.38 141.381C663.579 142.018 664.159 143.025 664.808 144.151C666.735 147.492 669.264 151.878 664.2 150.741C655.129 137.434 650.852 120.883 646.679 104.738C644.154 94.967 641.667 85.3449 638.18 76.6808L638.135 76.5542C631.197 57.0131 624.56 38.3183 625.704 17.4593ZM1574.65 463.5C1574.75 463.092 1575.12 462.832 1575.93 462.841C1583.99 463.797 1577.16 454.084 1571.54 446.092L1571.54 446.091C1569.05 442.551 1566.79 439.348 1566.18 437.561C1565.48 436.299 1564.13 435.338 1562.77 434.38C1560.35 432.665 1557.94 430.961 1559.37 427.561C1558.96 426.546 1558.51 425.357 1558.02 424.068C1555.4 417.163 1551.69 407.368 1546.87 405.851C1539.03 411.959 1544.64 416.682 1550.49 421.606C1553.64 424.26 1556.86 426.972 1558.08 429.991C1565.77 439.738 1570.34 451.565 1574.65 463.5ZM938.997 970.275C930.154 969.461 923.155 965.965 916.576 962.679C909.157 958.973 902.272 955.534 893.88 956.511C889.198 957.734 883.923 961.012 878.29 964.512C875.403 966.305 872.422 968.157 869.38 969.821C864.07 969.191 858.57 970.081 853.67 972.201C847.593 967.087 837.1 966.622 828.437 966.239H828.433C826.205 966.14 824.099 966.047 822.22 965.881C809.247 983.13 820.026 1001.06 830.361 1018.24C834.621 1025.33 838.806 1032.29 841.22 1039.02C843.961 1042.2 844.721 1048.5 845.371 1053.9C846.354 1062.06 847.088 1068.15 854.06 1058.22C855.581 1055.64 857.078 1053.07 858.567 1050.52C867.588 1035.05 876.283 1020.14 887.94 1005.62C900.38 996.561 913.42 983.721 917.76 969.871C919.017 967.291 922.553 968.133 925.505 968.836C927.038 969.202 928.413 969.529 929.23 969.321C931.728 970.142 934.761 970.197 937.767 970.251C937.998 970.255 938.228 970.259 938.458 970.264C938.638 970.267 938.818 970.271 938.997 970.275ZM336.041 62.8224C335.727 59.7295 335.418 56.6859 334.86 53.8808V53.8708C334.29 46.2408 330.54 33.9608 324.61 28.6008C335.38 19.5548 349.902 14.9343 365.358 10.0166C370.055 8.52217 374.838 7.00032 379.629 5.31848C373.786 8.09054 373.625 15.4414 373.47 22.5544C373.4 25.7102 373.332 28.8192 372.77 31.4608C372.102 37.7256 369.246 45.2627 366.521 52.4531C364.348 58.1863 362.259 63.6991 361.43 68.1708C361.002 70.2283 360.874 72.7673 360.743 75.3707C360.31 83.9652 359.842 93.2603 348.43 88.2408C338.164 83.7449 337.075 73.0157 336.041 62.8224ZM975.682 34.3919C977.689 33.2455 979.609 32.1484 982.09 32.7808C986.429 30.8757 990.744 28.8489 995.072 26.8157C1001.15 23.9617 1007.25 21.0951 1013.49 18.5353C1012.49 23.125 1021.5 24.0482 1023.13 19.7308C1026.83 21.0291 1031.3 22.1029 1035.94 23.2188C1043.46 25.0252 1051.44 26.9421 1057.36 30.1008C1078.27 38.7579 1076.17 46.5944 1072.68 59.6101C1071.31 64.7111 1069.73 70.6076 1069.24 77.6608C1067.95 85.2782 1059.82 87.706 1051.84 90.0884C1047.74 91.3121 1043.68 92.5239 1040.61 94.4208C1026.27 104.601 1008.58 97.9808 996.37 87.8908C991.073 83.1684 987.021 77.6263 983.008 72.1375C977.299 64.3299 971.669 56.6301 962.65 51.5508C950.821 42.6278 957.544 40.4448 966.875 37.4152L966.878 37.4143L966.885 37.4119C967.893 37.0846 968.931 36.7474 969.98 36.3908C972.208 36.377 973.976 35.3666 975.682 34.3919ZM1016.63 17.2757C1034.89 11.4715 1055.9 20.8722 1071.97 30.4608C1078.25 30.36 1079.37 21.5667 1080.25 14.6423C1080.5 12.6359 1080.73 10.7864 1081.07 9.35079C1076.14 8.10346 1070.32 8.71249 1064.36 9.33672C1058.81 9.91858 1053.13 10.5136 1047.92 9.63079C1036.84 10.4433 1026.55 13.4105 1016.63 17.2757ZM607.68 10.7838C605.067 10.0599 602.597 9.37586 600.74 9.22079C598.9 8.34079 622.54 9.38079 622.1 10.8208C620.016 14.2012 613.492 12.394 607.68 10.7838ZM965.055 27.7761C965.8 29.2095 966.472 30.5025 968.15 28.5408C968.481 27.8862 967.889 27.0347 967.282 26.1637C966.536 25.0919 965.769 23.9907 966.68 23.1908C975.34 11.4408 985.86 6.67079 1000.43 9.53079C987.756 22.7993 969.212 29.5494 951.278 36.0778C946.288 37.894 941.345 39.6933 936.59 41.6108C916.688 49.0153 919.31 74.9626 921.079 92.4785L921.085 92.5285L921.19 93.5708C912.289 92.5867 903.047 92.4128 893.747 92.2377C881.972 92.016 870.102 91.7925 858.71 89.9208C850.138 86.949 843.558 80.3072 837.091 73.7795C832.656 69.3027 828.274 64.8796 823.34 61.7308C823.652 61.1441 824.61 59.7705 825.856 57.9844L825.859 57.9799C829.753 52.3976 836.453 42.7922 835.06 40.5808C835.962 40.4954 836.457 44.5661 837.008 49.1022C837.489 53.0622 838.013 57.3769 838.89 59.5908C837.47 87.9708 875.88 103.881 890.52 76.8508C895.624 77.155 900.428 75.5964 905.199 74.0485C909.523 72.6455 913.82 71.2513 918.29 71.2608C920.418 71.4699 920.081 69.2134 919.816 67.4369C919.726 66.8348 919.644 66.2879 919.67 65.9108C916.005 62.7039 910.297 65.1196 904.625 67.5201C901.135 68.9971 897.658 70.4684 894.68 70.6208C903.867 57.1037 903.949 57.1423 909.024 59.5148C911.158 60.5122 914.174 61.9222 919.12 62.9108C920.74 45.4408 937.51 39.6208 951.85 35.1208C955.052 34.1648 957.705 31.7809 960.219 29.5219C961.544 28.3311 962.831 27.1747 964.14 26.2808C964.492 26.6923 964.778 27.2439 965.055 27.7761ZM213.749 107.695C206.278 118.315 201.868 124.584 195.94 113.761C195.985 113.599 194.706 112.287 193.095 110.633C190.121 107.583 186.014 103.369 187 103.071C200.835 91.9983 213.758 80.3519 226.555 68.8195C250.301 47.4188 273.613 26.4104 301.51 10.1908C302.298 11.0802 303.291 12.2076 304.383 13.4486L304.384 13.4494C307.505 16.9941 311.441 21.4648 313.76 23.9608C299.51 37.1928 282.942 49.3464 266.497 61.4105C259.03 66.8882 251.588 72.3475 244.4 77.8808C229.554 85.2258 220.428 98.1993 213.749 107.695ZM454.804 18.501C456.552 18.1808 458.463 17.8309 460.51 17.3908C465.847 19.1001 473.497 18.2378 481.372 17.3501C493.769 15.9527 506.724 14.4924 512.1 22.9008C512.185 23.4606 512.683 24.5223 513.329 25.9008L513.33 25.9026C514.646 28.7105 516.578 32.8315 516.9 36.7008L475.6 56.3408C471.902 53.1343 467.402 50.9341 463.072 48.8176C456.114 45.4158 449.598 42.2303 447.57 35.4308C439.38 21.3251 443.961 20.4864 454.804 18.501ZM524.249 30.4037C525.268 30.0532 526.121 29.76 526.42 29.5308C527.089 29.0693 526.952 27.4225 526.851 26.2011C526.728 24.7231 526.657 23.868 528.13 26.4908C528.138 27.0626 528.771 27.71 529.414 28.3677C530.356 29.3319 531.321 30.3182 530.37 31.1208C530.067 30.9887 528.651 31.6405 526.919 32.4376C523.277 34.1141 518.24 36.4329 519.23 33.4508C518.996 32.209 522.02 31.1696 524.249 30.4037ZM215.106 130.235C217.422 128.476 220.791 125.916 218.49 120.931C225.967 96.7622 249.88 80.9436 273.329 65.4324C286.729 56.5684 299.977 47.8048 309.92 37.6408C326.36 23.2811 328.902 49.353 330.51 65.8483C330.842 69.2488 331.134 72.2424 331.5 74.3908C337.159 95.4768 347.731 95.3315 354.269 95.2416C357.666 95.1949 359.974 95.1632 359.94 98.1308C360.175 105.709 360.093 113.258 360.013 120.764C359.818 138.773 359.627 156.531 363.82 173.831C373.05 191.561 375.31 212.861 376.72 232.301C365.964 232.032 353.983 229.061 341.803 226.041C324.574 221.77 306.949 217.4 291.84 220.441C284.444 210.421 274.778 200.35 265.753 190.948L265.752 190.947L265.751 190.946C263.429 188.526 261.148 186.15 258.96 183.831C253.217 177.939 246.55 170.027 239.674 161.866C230.947 151.508 221.882 140.75 213.94 133.211C212.454 132.25 213.538 131.426 215.106 130.235ZM1533.83 66.2362C1541.98 64.0948 1550.03 61.9777 1557.26 55.9708C1598.86 26.9108 1591.34 61.1505 1585.65 87.0439C1584.84 90.7506 1584.06 94.2863 1583.47 97.4408C1582.19 99.8165 1581.17 105.38 1580.06 111.395C1578.02 122.446 1575.71 135.019 1571.04 132.151C1571.21 145.201 1567.87 163.691 1563.23 179.441C1560.16 188.35 1556.18 196.472 1552.15 204.677C1547.25 214.661 1542.29 224.77 1538.85 236.571C1538.6 239.571 1535.95 240.911 1535.6 237.271C1538.94 236.171 1540.32 233.431 1540.13 229.161C1515.34 235.801 1487.75 226.881 1462.21 217.981C1461.06 219.261 1459.95 218.991 1458.9 217.171C1431.36 209.816 1398.95 193.887 1370.27 179.795C1367.09 178.233 1363.95 176.694 1360.88 175.191C1366.05 169.653 1374.26 163.964 1382.25 158.431C1387.07 155.091 1391.8 151.809 1395.74 148.651C1408.15 139.291 1423.29 128.191 1436.2 119.211C1440.7 116.276 1445.06 112.861 1449.46 109.419C1458.73 102.167 1468.15 94.796 1479.31 91.5408C1487.79 91.1668 1493.53 86.8597 1499.42 82.4318C1503.61 79.2817 1507.89 76.0705 1513.29 74.1708C1519.91 69.8991 1526.9 68.0589 1533.83 66.2362ZM928.423 81.1374C926.852 70.0513 925.048 57.3271 932.65 53.6108C933.999 50.0492 937.412 48.9885 940.995 47.8753C943.759 47.0162 946.624 46.1259 948.72 44.0308C949.858 45.2893 951.12 46.957 952.504 48.7867L952.507 48.79L952.508 48.7913C956.072 53.503 960.449 59.2881 965.62 61.9308C972.053 64.9105 976.322 71.6633 980.547 78.3449C983.723 83.3685 986.874 88.3518 990.9 91.6608C990.395 91.644 988.853 92.7653 987.045 94.0799C983.479 96.6736 978.878 100.02 979.17 96.8608C977.57 99.0508 974.82 98.5208 974.3 96.2008C973.008 99.9869 961.723 96.9888 968.549 95.9796C962.515 96.8334 954.682 96.2152 946.759 95.59C940.8 95.1197 934.791 94.6454 929.46 94.7908C929.878 91.4018 929.177 86.4583 928.423 81.1374ZM919.01 56.9008C914.02 60.6708 900.76 52.3308 912.53 49.8808C919.216 45.1177 919.112 48.3421 918.968 52.7744V52.7808C918.925 54.1068 918.878 55.5406 919.01 56.9008ZM1173.53 80.6166C1165.71 77.8344 1156.2 74.4474 1163.31 72.3708C1165.81 71.5327 1169.27 70.2721 1173.38 68.7792C1204.64 57.4109 1272.94 32.5731 1232.09 78.2808C1230.84 80.1465 1229.67 81.8965 1228.57 83.535C1218.99 97.8807 1215.11 103.688 1210.94 103.911C1208.1 104.062 1205.12 101.63 1200.11 97.5439C1195.8 94.0206 1189.98 89.2677 1181.44 83.8808C1180.34 83.0438 1177.11 81.894 1173.53 80.6166ZM1254.63 58.7129L1254.77 58.5308V58.5408C1295.13 75.5226 1297.78 89.0973 1302.93 115.418L1302.93 115.421C1304.58 123.911 1306.5 133.727 1310.03 145.411C1309.91 145.476 1309.77 146.481 1309.6 147.741C1309.27 150.154 1308.81 153.503 1308.1 152.991C1302.48 150.656 1296.42 148.949 1290.34 147.236C1278.27 143.835 1266.1 140.406 1257.08 131.981C1262.53 121.961 1268.67 114.847 1273.48 109.274C1285.05 95.8633 1288.92 91.3773 1256.94 76.8108C1250.44 81.1968 1247.31 88.4727 1243.98 96.1899C1240.65 103.921 1237.13 112.095 1229.84 118.251C1229.55 118.941 1224.88 115.695 1221.35 113.248L1221.35 113.247C1219.31 111.83 1217.65 110.68 1217.46 110.721C1228.12 93.5751 1242.31 74.9108 1254.63 58.7129ZM1132.53 76.1508C1134.42 75.1608 1136.14 74.8108 1137.69 75.0908V75.1008C1161.96 79.6708 1190.03 95.3308 1207.84 112.371L1197.19 127.181C1183.48 145.092 1169.63 165.347 1155.77 185.616L1155.76 185.619C1134.91 216.114 1114.03 246.642 1093.58 269.271C1092.27 270.011 1091.35 269.813 1091.22 268.796C1091.27 268.549 1091.29 268.257 1091.26 267.911C1091.19 268.253 1091.18 268.549 1091.22 268.796C1090.93 270.097 1089.62 270.154 1088.21 270.214C1086.89 270.271 1085.48 270.331 1084.78 271.441C1083.36 274.052 1078.93 273.986 1074.71 273.923C1072.38 273.889 1070.12 273.855 1068.45 274.271C1048.57 276.701 1033.28 274.441 1014.88 271.511C989.925 272.445 1003.36 257.647 1016.61 243.056C1023.21 235.79 1029.76 228.576 1031.5 223.381C1049.9 197.071 1056.9 161.932 1063.67 127.999C1066.1 115.784 1068.51 103.725 1071.4 92.2908C1071.76 90.4908 1132.73 74.6808 1132.53 76.1508ZM1269.91 109.404C1264.65 115.091 1258.2 122.077 1254.12 131.531C1249.65 131.819 1245.17 128.596 1240.85 125.484C1237.83 123.309 1234.88 121.188 1232.07 120.361C1241.6 109.041 1249.05 94.4208 1255.08 80.3308C1286.56 91.3924 1280.82 97.5985 1269.91 109.404ZM1044.24 101.376C1050.61 98.5056 1057.62 95.3437 1059.32 95.1108C1060.77 94.9406 1062.58 94.0067 1064.36 93.0936C1066.75 91.8604 1069.08 90.6651 1070.33 91.4408C1063.9 90.3839 1060.27 112.871 1057.47 130.229C1056.19 138.165 1055.08 145.028 1053.96 148.081C1053.81 149.146 1053.69 150.164 1053.59 151.045L1053.59 151.05C1053.19 154.579 1053.04 155.909 1051.99 149.341C1051.16 144.513 1048.6 138.978 1046.14 133.652C1044.68 130.483 1043.25 127.388 1042.24 124.561C1040.54 122.142 1039.5 119.069 1038.46 116.004C1037.2 112.251 1035.94 108.511 1033.46 106.001C1034.93 105.573 1039.4 103.559 1044.24 101.376ZM856.244 103.778C854.115 98.5321 851.4 91.8426 859.69 97.2308C865.346 97.4659 862.055 100.999 859.422 103.824C858.471 104.845 857.606 105.773 857.28 106.421C857.001 105.643 856.633 104.736 856.245 103.781L856.244 103.778ZM1023.73 102.031C1016.68 106.771 998.38 105.511 988.42 101.661L988.297 101.653L988.176 101.645C986.367 101.526 983.356 101.328 986.08 99.5508C992.212 93.2719 998.262 96.3126 1004.72 99.5561C1010.6 102.511 1016.81 105.635 1023.73 102.031ZM934.997 200.745V200.743C933.917 176.872 932.66 149.097 930.87 131.771V131.761C931.145 122.225 930.519 115.736 930.098 111.37V111.369C929.686 107.097 929.47 104.858 930.485 103.786C931.604 102.605 934.218 102.84 939.71 103.334C943.404 103.666 948.4 104.116 955.12 104.331C973.052 104.912 970.865 106.071 968.11 107.53C965.936 108.682 963.408 110.021 970.15 111.411C976.952 105.905 983.513 107.898 990.355 109.975C994.226 111.15 998.186 112.353 1002.33 112.241C1005.86 113.195 1010.22 112.295 1014.56 111.397C1021.29 110.008 1027.99 108.623 1031.56 114.121C1035.24 124.369 1040.34 134.498 1045.29 144.311L1045.3 144.324L1045.31 144.356L1045.32 144.374C1047.54 148.769 1049.72 153.1 1051.73 157.351C1048.52 164.17 1046.36 172.183 1044.15 180.356C1040.52 193.757 1036.78 207.588 1028.16 217.291C1024.84 224.332 1018.59 231.543 1012.26 238.852C1003.05 249.48 993.657 260.315 992.84 271.141C989.431 271.017 985.977 270.97 982.5 270.923H982.498C969.175 270.743 955.5 270.558 942.63 265.991C937.504 264.083 937.63 255.177 937.729 248.196C937.78 244.567 937.824 241.458 937.12 240.121C936.417 232.142 935.75 217.393 934.997 200.745ZM866.545 109.987C866.772 116.707 867.057 125.131 862.47 127.701C858.36 118.851 858.38 110.621 866.51 104.261C866.405 105.818 866.472 107.807 866.545 109.973V109.987ZM1180.93 160.894C1187.56 151.596 1194.13 142.386 1200.35 133.541H1200.34C1203.18 130.654 1205.46 127.088 1207.66 123.658C1209.63 120.575 1211.53 117.602 1213.71 115.331C1225.81 125.951 1242.08 135.541 1255.79 142.561C1282.67 148.781 1317.75 163.101 1342.35 177.051C1330.24 190.823 1313.79 201.96 1297.34 213.101C1287.02 220.088 1276.7 227.078 1267.44 234.721C1254.43 243.312 1241.93 252.896 1229.43 262.484C1208.5 278.531 1187.56 294.592 1164.15 306.041C1151.58 299.831 1142.61 287.802 1133.8 275.989C1129.56 270.302 1125.36 264.665 1120.81 259.751C1113.76 250.508 1124.05 238.611 1133.94 227.179C1139.39 220.874 1144.72 214.71 1146.95 209.211C1157.42 193.844 1169.27 177.234 1180.93 160.894ZM852.33 122.582C855.402 118.052 856.587 116.304 860.23 127.471C862.19 130.521 858.07 129.131 856.55 128.561C855.549 128.505 854.249 128.774 852.915 129.05C850.677 129.513 848.34 129.997 847.15 129.001C849.422 126.87 851.042 124.481 852.33 122.582ZM549.076 205.831C547.789 203.498 546.59 201.324 546.41 199.681C536.67 177.661 525.49 151.511 519.6 130.051C527.698 135.017 536.95 138.757 546.198 142.496C566.949 150.885 587.68 159.266 595.31 181.471L599.85 189.691C597.595 191.375 594.437 193.451 591.495 195.384C587.624 197.928 584.128 200.226 583.56 201.061C581.781 203.098 579.619 206.132 577.205 209.52L577.204 209.521C567.331 223.375 553.242 243.146 543.93 224.931C543.138 224.479 547.5 221.049 549.761 219.272C550.499 218.691 551.013 218.287 551.05 218.221C554.238 215.189 551.502 210.229 549.076 205.831ZM164.533 204.099C164.47 202.859 164.412 201.722 166.34 201.181H166.35C177.45 180.501 191.3 154.951 208.89 138.281C227.181 158.459 246.672 179.836 265.392 200.367L265.395 200.371L265.397 200.373C270.296 205.746 275.142 211.06 279.9 216.281C286.26 221.79 287.251 237.669 288.053 250.536C288.411 256.26 288.731 261.388 289.47 264.741C289.232 271.234 290.438 280.726 291.674 290.443L291.674 290.445C293.295 303.189 294.965 316.323 293.49 323.591C290.877 324.172 288.615 324.724 286.63 325.209L286.628 325.209C272.998 328.538 272.449 328.672 261.6 312.891C245.7 304.709 239.317 307.927 234.112 310.552C229.208 313.025 225.349 314.971 215.56 306.361C196.886 301.181 177.715 293.505 158.465 285.798C141.705 279.088 124.885 272.354 108.28 267.221C104.883 263.805 118.393 251.996 129.911 241.927C136.097 236.52 141.709 231.614 143.82 228.781C158.891 222.389 166.293 232.312 172.135 240.143C175.688 244.907 178.665 248.897 182.44 247.971C186.282 236.554 173.396 230.218 162.65 224.933C158.741 223.011 155.115 221.228 152.68 219.391C153.964 217.913 155.108 216.212 156.259 214.498C158.559 211.077 160.891 207.606 164.45 205.761C164.591 205.215 164.561 204.647 164.533 204.099ZM1283.78 230.236C1306.06 214.065 1328.22 197.982 1349.7 182.351C1350.4 180.429 1352.21 181.666 1353.63 182.631C1354.13 182.972 1354.58 183.278 1354.91 183.401C1370.98 192.881 1384.9 199.601 1400.71 206.221C1412.72 207.773 1424.56 213.947 1436.41 220.129C1444.41 224.303 1452.42 228.48 1460.49 231.241C1466.48 234.871 1474.09 236.044 1481.64 237.209C1493.54 239.043 1505.3 240.855 1510.36 252.221C1432.82 275.909 1355.23 297.376 1276.85 319.063L1276.85 319.064L1276.84 319.065L1276.82 319.071C1260.97 323.455 1245.1 327.849 1229.18 332.271C1221.09 334.741 1211.39 337.622 1201.24 340.642L1201.21 340.651C1184.03 345.759 1165.52 351.261 1151.15 355.841C1146.93 339.691 1147.09 329.601 1161.78 319.071C1200.4 290.745 1242.25 260.375 1283.69 230.304L1283.71 230.288L1283.71 230.284L1283.75 230.26L1283.77 230.246L1283.78 230.238L1283.78 230.236ZM295.703 258.408L295.702 258.392L295.702 258.391C295.106 252.057 294.513 245.762 293.97 239.531H293.98C292.3 229.891 291.63 223.761 303.96 224.601C308.832 225.54 314.117 226.574 319.621 227.651C336.969 231.044 356.487 234.862 372.08 237.481C379.453 238.757 379.975 264.385 380.295 280.108V280.111C380.391 284.835 380.469 288.665 380.71 290.671C384.136 303.042 377.232 303.93 369.788 304.888C367.237 305.216 364.623 305.552 362.34 306.361C355.212 309.23 349.196 315.203 343.215 321.142C337.355 326.96 331.528 332.745 324.72 335.551C322.954 333.954 321.925 330.438 320.857 326.787C318.829 319.853 316.658 312.43 309.02 316.741C299.797 322.598 299.606 313.422 299.435 305.231V305.229C299.389 303.003 299.344 300.849 299.12 299.091C298.256 285.527 296.972 271.885 295.704 258.416L295.704 258.414L295.704 258.413L295.703 258.408ZM1515.2 246.636C1514.68 245.654 1514.12 244.617 1513.27 243.901C1513.14 242.385 1511.2 241.04 1509.71 240.004C1508.22 238.968 1507.17 238.241 1508.82 237.961C1510.15 237.841 1511.63 237.627 1513.18 237.404C1521.3 236.231 1531.31 234.785 1532.38 245.141C1533.15 246.181 1526.91 247.497 1522.55 248.416C1520.37 248.875 1518.67 249.234 1518.54 249.411C1516.79 249.607 1516.03 248.189 1515.2 246.636ZM1523.87 259.601C1521.74 256.931 1535.07 250.401 1534.75 253.561C1533.71 255.559 1533.13 257.785 1532.62 259.713C1531.32 264.683 1530.53 267.664 1523.87 259.601ZM1133.18 331.287L1133.18 331.284C1131.81 323.254 1130.69 316.709 1130.31 315.581V315.591C1129.22 296.151 1120.62 278.111 1101.66 272.781C1101.78 272.773 1103.39 270.419 1105.4 267.497L1105.4 267.491L1105.4 267.487C1108.77 262.573 1113.24 256.06 1113.54 256.411C1122.16 273.633 1136.35 288.807 1149.18 302.533L1149.19 302.539C1152.29 305.858 1155.31 309.092 1158.16 312.251C1156.62 315.806 1153.55 318.763 1150.49 321.714C1146.06 325.992 1141.64 330.257 1141.89 336.311C1142.92 339.435 1143.32 343.068 1143.71 346.727C1144.39 352.988 1145.08 359.321 1148.99 363.291C1156.23 361.08 1163.43 358.865 1170.61 356.658L1170.62 356.654L1170.62 356.653C1210.84 344.285 1250.26 332.16 1291.02 322.411C1317.08 314.387 1355.53 303.663 1394.86 292.693C1438.41 280.546 1483.04 268.097 1513.12 258.681C1520.66 264.351 1527.99 274.211 1525.62 285.201C1524.26 299.62 1530.09 312.375 1535.93 325.164C1540.47 335.116 1545.02 345.089 1546.21 355.881C1547.04 360.054 1545.88 364.026 1544.73 367.974C1543.45 372.36 1542.18 376.717 1543.66 381.291C1547.19 389.301 1552.81 382.861 1548.12 377.451C1547.74 376.504 1548.28 375.782 1548.82 375.048C1549.52 374.115 1550.23 373.161 1549.09 371.701C1548.83 371.081 1548.05 365.411 1548.92 365.231C1557.96 389.891 1533.69 416.041 1508.54 410.091C1509.76 409.687 1512.26 409.644 1515.15 409.595C1522.28 409.473 1531.81 409.31 1530.62 403.591C1521 408.078 1509.65 408.241 1498.41 408.404C1484.55 408.604 1470.86 408.801 1460.79 417.101C1447.73 428.604 1432.45 438.399 1417.07 448.255L1417.07 448.256C1403.23 457.128 1389.31 466.049 1376.87 476.311C1374.32 478.788 1370.78 479.645 1367.3 480.486L1367.3 480.487C1366.35 480.715 1365.41 480.943 1364.5 481.201C1359.58 483.871 1355.92 487.741 1352.24 491.635C1348.78 495.293 1345.31 498.973 1340.74 501.701C1324.11 514.381 1312.44 526.351 1299.51 543.161C1278.13 555.581 1256.89 566.161 1233.6 550.441C1240.28 554.291 1235.31 539.211 1231.86 544.181C1228.58 560.128 1234.28 560.71 1244.61 561.765C1247.14 562.024 1249.95 562.311 1252.98 562.861C1252.21 563.274 1250.96 563.359 1249.55 563.455C1247.52 563.594 1245.15 563.755 1243.44 564.961C1225.36 566.521 1230.93 590.861 1239.68 583.711C1225.77 575.147 1248.08 569.413 1269.8 563.829C1283.82 560.227 1297.59 556.687 1301.23 552.491C1303.6 549.99 1305.96 547.475 1308.32 544.961C1327.17 524.858 1346.02 504.761 1370.83 491.971C1380.73 486.322 1392.34 494.666 1402.47 501.946C1405.1 503.842 1407.64 505.665 1410.02 507.151C1428.89 519.971 1428.62 520.19 1419.15 527.781C1412.99 532.725 1402.92 540.795 1391.71 557.511C1379.98 578.738 1391.88 565.338 1404.98 550.573C1413.91 540.507 1423.41 529.805 1426.37 529.011C1434.7 521.491 1442.83 530.473 1450.83 539.327C1455.62 544.625 1460.37 549.877 1465.1 551.521C1469.77 550.026 1462.7 543.743 1456.28 538.037L1456.28 538.036L1456.27 538.035C1452.51 534.693 1448.98 531.549 1448.15 529.681C1437.35 518.177 1423.65 508.735 1410.88 499.928L1410.87 499.927C1407.31 497.473 1403.82 495.067 1400.49 492.681C1381.77 479.144 1386.01 476.531 1395.51 470.682C1399.4 468.292 1404.16 465.36 1408.59 460.921C1419.51 455.281 1449.89 434.921 1460.3 427.131C1463.79 437.028 1461.67 436.929 1458.52 436.781C1456.77 436.699 1454.7 436.602 1453.09 438.181C1453.39 452.483 1456.73 451.399 1465.87 448.435C1467.61 447.868 1469.58 447.231 1471.77 446.621C1468.05 449.841 1462.81 455.751 1461.15 461.591C1460.03 465.9 1455.21 474.308 1450.03 483.341L1450.03 483.342C1441.62 497.996 1432.27 514.297 1436.26 517.421C1442.04 514.81 1446.11 505.54 1448.84 499.307C1450.19 496.228 1451.21 493.891 1451.96 493.461C1453.37 490.537 1454.76 487.347 1456.19 484.052C1464.61 464.697 1474.6 441.746 1499.34 448.121C1505.98 451.277 1512.56 450.757 1519.09 450.242C1523.19 449.918 1527.27 449.596 1531.32 450.191C1546.84 457.174 1559.49 469.706 1571.5 481.61L1571.52 481.628C1572.45 482.554 1573.38 483.476 1574.31 484.391C1575.7 487.043 1577 489.649 1578.28 492.221L1578.28 492.223C1582.03 499.774 1585.63 507.026 1591.17 514.261C1597.35 523.585 1595.3 533.605 1593.23 543.722C1591.07 554.242 1588.9 564.868 1595.93 574.931C1597.93 590.101 1611.77 613.461 1620.96 622.491C1630.78 655.941 1637.52 681.391 1644.41 717.231C1642.47 719.282 1637.12 724.006 1630.18 730.129L1630.18 730.13C1607.05 750.542 1566.28 786.511 1575.7 790.911C1585.28 784.103 1590.36 777.449 1593.89 772.836C1600.85 763.734 1601.73 762.577 1619.08 783.861C1611.28 786.036 1600.23 791.249 1590.97 795.616L1590.94 795.627L1590.78 795.704C1590.18 795.986 1589.59 796.265 1589.01 796.539C1588.31 796.867 1587.63 797.188 1586.96 797.501C1586.04 797.717 1584.48 797.867 1582.7 798.038C1576.25 798.659 1566.94 799.556 1574.8 804.871C1579.33 804.855 1583.84 804.933 1588.34 805.01H1588.37C1598.42 805.183 1608.39 805.354 1618.29 804.491C1621.59 805.837 1653.17 815.499 1657.13 809.059C1655.81 814.415 1653.71 819.653 1651.63 824.781C1647.12 839.411 1638.53 848.991 1621.81 846.791C1605.96 852.945 1588.97 856.649 1572.12 860.326C1543.8 866.5 1515.85 872.597 1494.23 890.091C1494.36 896.689 1491.78 904.938 1489.39 912.545C1488.6 915.073 1487.83 917.529 1487.19 919.831C1474.63 933.961 1458.24 947.831 1441.39 955.631C1442.52 957.641 1435.38 959.921 1433.91 958.181C1419.22 959.422 1403 957.615 1386.36 955.762L1386.36 955.762C1368 953.718 1349.14 951.618 1331.29 953.491C1301.58 956.221 1270.56 954.231 1240.93 950.301C1240.33 950.731 1238.12 946.781 1236.27 943.489C1234.98 941.2 1233.88 939.23 1233.62 939.271C1232.71 938.851 1234.81 934.751 1234.9 934.581C1235.05 934.231 1235.2 934.231 1235.35 934.581C1235.65 942.111 1264.03 959.421 1264.21 948.171C1265.5 926.651 1267.1 890.971 1263.03 870.071C1275.03 844.171 1266.24 809.791 1254.4 787.541C1252.47 780.68 1252.98 772.816 1253.5 764.928C1254.07 756.18 1254.64 747.403 1251.89 739.931C1249.25 740.761 1238.45 739.311 1235.42 738.621C1233.69 719.055 1241.87 720.434 1254.8 722.612C1257.16 723.009 1259.67 723.433 1262.31 723.761C1263.54 723.933 1264.89 724.124 1266.34 724.33C1267.36 724.474 1268.42 724.625 1269.53 724.782C1281.91 726.542 1299.33 729.017 1309.23 730.061C1310.36 729.542 1313.97 730.208 1318.2 730.99C1326.77 732.573 1337.92 734.631 1336.27 728.271C1322.61 725.243 1306.12 723.255 1289.86 721.296L1289.86 721.296C1276.64 719.703 1263.58 718.129 1252.33 716.031C1237.59 714.469 1237.7 713.748 1239 705.479C1239.58 701.783 1240.4 696.58 1240.23 689.121C1241.09 680.6 1239.03 672.3 1236.95 663.918L1236.93 663.857C1236.36 661.568 1235.79 659.273 1235.28 656.966C1235.64 657.281 1236.08 657.61 1236.63 657.951C1254.34 653.506 1276.61 647.402 1298.32 641.454L1298.32 641.453L1298.33 641.451L1298.38 641.438C1315.04 636.872 1331.36 632.4 1345.02 628.841C1357.98 633.661 1366.06 619.231 1348.9 621.741C1334.92 625.822 1317.92 630.286 1300.83 634.771L1300.82 634.774C1282.96 639.464 1265.01 644.177 1250.33 648.501C1246.92 639.205 1246.32 639.729 1244.26 641.538C1243.08 642.58 1241.41 644.048 1238.44 644.311C1237.46 633.985 1236.22 623.342 1234.98 612.624L1234.98 612.612L1234.98 612.607V612.604L1234.98 612.602C1232.8 593.878 1230.6 574.926 1229.7 557.041C1229.86 553.292 1230.08 549.464 1230.3 545.613L1230.31 545.602V545.599C1231.02 533.293 1231.75 520.743 1230.4 509.741C1219.59 494.805 1212.12 476.349 1204.93 458.593C1202.96 453.738 1201.02 448.935 1199.03 444.271C1168.14 429.771 1139.29 402.691 1140.26 366.161C1138.96 365.201 1135.65 345.815 1133.18 331.287ZM1234.64 653.889C1236.22 652.032 1241.32 650.866 1244.63 650.109C1245.5 649.909 1246.25 649.739 1246.78 649.591C1246.79 641.582 1243.91 644.8 1241.12 647.933C1238.26 651.134 1235.47 654.246 1235.93 645.211C1235.2 643.834 1235.25 641.634 1235.3 639.549C1235.36 637.046 1235.41 634.707 1234.11 634.151C1232.81 640.932 1233.4 647.468 1234.64 653.889ZM1657.53 807.317C1658.86 801.075 1659.02 794.672 1656.75 788.091C1655.09 788.111 1653.17 788.033 1651.14 787.951C1639.8 787.493 1625.02 786.896 1632.5 802.341C1632.54 803.14 1642.17 803.991 1649.36 804.627L1649.37 804.627C1653.51 804.994 1656.85 805.289 1657.07 805.461C1657.35 806.15 1657.5 806.767 1657.53 807.317ZM81.5895 271.881C80.9195 271.141 79.0496 265.991 81.2196 266.641C81.2996 266.772 81.6054 267.022 81.9722 267.323C82.7507 267.96 83.8042 268.823 83.5595 269.251C83.4675 269.388 83.3705 269.73 83.2558 270.135C82.9345 271.27 82.4738 272.898 81.5895 271.881ZM774.5 279.155C801.9 278.222 829.672 277.275 856.61 276.951V276.941C863.411 277.661 871.97 276.764 880.899 275.829C903.821 273.427 929.182 270.769 933.5 294.561C945.441 296.398 958.233 295.657 971.005 294.917C981.249 294.324 991.48 293.732 1001.25 294.471C1003.24 292.27 1003.21 287.334 1003.19 283.341C1003.18 281.872 1003.18 280.531 1003.27 279.501C1015.1 281.833 1027.2 281.834 1039.33 281.835C1050.3 281.836 1061.29 281.837 1072.1 283.561C1075.62 285.318 1079.09 284.468 1082.55 283.623C1085.88 282.809 1089.19 282 1092.5 283.531C1094.69 280.911 1098.43 281.401 1101.69 282.151C1122.17 290.843 1126.28 321.26 1130.44 352.151C1134.22 380.109 1138.04 408.457 1154.11 421.441C1160.89 427.09 1159.83 431.285 1158.92 434.901C1158.2 437.736 1157.58 440.216 1160.89 442.761C1160.85 442.487 1160.78 442.101 1160.7 441.634C1160 437.693 1158.3 428.006 1162.49 431.431C1165.53 435.455 1170.52 437.875 1175.74 440.403C1181.02 442.962 1186.53 445.632 1190.47 450.191C1200.53 467.186 1209.01 486.135 1217.23 504.495C1217.78 505.71 1218.32 506.922 1218.86 508.131C1225.52 517.624 1224.45 529.098 1223.42 540.169C1222.89 545.857 1222.37 551.439 1222.91 556.591C1219.47 558.487 1220.03 560.301 1220.91 563.157L1220.92 563.183C1221 563.425 1221.07 563.675 1221.15 563.933C1221.21 564.121 1221.26 564.314 1221.32 564.511C1222.05 570.006 1223.03 575.746 1224.03 581.646C1227.96 604.631 1232.29 630.045 1223.88 652.851C1220.13 657.961 1225.03 662.811 1229.11 665.421C1236.06 679.151 1235.21 701.661 1227.21 713.991C1228.93 744.061 1226.14 778.891 1214.93 807.681C1210.92 813.453 1205.16 816.702 1199.3 820.003C1195.2 822.318 1191.05 824.658 1187.43 827.911C1185.95 828.671 1184.49 830.324 1183.05 831.961C1180.4 834.976 1177.79 837.938 1175.15 835.171C1172.41 835.165 1171.54 837.865 1170.68 840.537C1170.16 842.149 1169.64 843.751 1168.72 844.741C1167.82 845.58 1166.81 846.542 1165.73 847.566C1161.83 851.275 1157.1 855.778 1153.75 858.051C1149.01 859.516 1144.75 861.194 1140.86 862.731C1127.06 868.177 1117.76 871.846 1107.14 857.971C1102.39 857.253 1102.24 860.426 1102.1 863.712C1102.05 864.731 1102 865.762 1101.82 866.691C1094.33 871.041 1087.39 860.471 1084.96 853.601C1068.27 841.771 1093.85 874.001 1096.53 876.981C1089.2 882.656 1080.35 887.947 1072.18 892.83C1069.02 894.718 1065.97 896.546 1063.14 898.311C1045.7 917.91 1021.79 929.641 998.091 941.267L998.09 941.267C984.331 948.017 970.645 954.732 958.34 962.931C950.871 965.247 943.304 964.114 935.802 962.991L935.8 962.991C932.806 962.543 929.823 962.096 926.86 961.871C922.407 960.589 918.598 958.024 914.817 955.478C908.986 951.551 903.223 947.67 895.27 948.611C889.645 949.563 884.421 952.259 879.109 955C870.482 959.451 861.623 964.022 850.44 961.441C858.563 961.001 858.352 958.809 858.018 955.355C857.473 949.702 856.602 940.668 891.42 930.401C906.242 926.095 913.115 932.013 920.331 938.228C924.662 941.958 929.117 945.794 935.49 947.591C935.944 948.929 936.17 950.762 936.41 952.712C937.1 958.309 937.908 964.87 944.59 963.461C946.657 964.256 944.33 956.999 942.597 951.594C941.606 948.502 940.808 946.016 941.14 945.991C940.515 941.333 937.448 940.45 933.986 939.454C930.849 938.551 927.388 937.555 925.13 933.571C908.82 916.341 886.93 924.801 866.76 934.001C859.986 938.108 850.852 936.029 843.189 934.285L843.187 934.285C841.857 933.982 840.571 933.689 839.35 933.441C808.599 922.573 777.186 912.595 745.701 902.595C688.333 884.373 630.727 866.076 576.46 842.181L573.91 840.507L573.874 840.483L573.872 840.482C552.013 826.124 526.644 809.461 502.09 801.161C498.894 799.874 495.367 798.621 491.721 797.326L491.719 797.325L491.716 797.325L491.713 797.324C479.216 792.886 465.341 787.959 458.77 779.491C461.61 777.001 463.76 766.061 458.96 770.181C458.195 770.992 457.505 772.563 456.808 774.152C455.718 776.636 454.609 779.161 453.17 778.881C452.207 777.988 451.204 777.022 450.167 776.024L450.166 776.023C445.582 771.609 440.329 766.55 434.89 764.291C431.622 761.667 427.539 759.179 423.287 756.589C412.145 749.802 399.843 742.308 398.02 729.801C400.97 700.161 411.33 669.471 425.56 640.631C429.249 633.826 432.359 626.238 435.484 618.616C440.312 606.838 445.175 594.976 452.26 585.791C456.821 574.524 463.169 563.519 469.549 552.458L469.549 552.457C475.281 542.519 481.039 532.537 485.55 522.281C491.55 508.721 500.8 489.271 515.33 482.091C531.856 474.88 528.009 471.568 523.409 467.606C520.423 465.035 517.12 462.191 518.86 457.831C520.954 451.599 524.022 445.382 526.782 439.788C527.224 438.892 527.659 438.012 528.08 437.151C527.29 435.451 527.8 429.621 530.52 429.791C529.684 425.672 533.571 422.168 537.314 418.794C539.26 417.041 541.166 415.322 542.35 413.571C545.964 410.361 549.493 407.046 553.026 403.726C562.505 394.821 572.012 385.889 583.26 378.911C586.269 375.083 587.202 376.46 588.044 377.702C588.601 378.523 589.118 379.285 590.17 378.441C590.692 378.027 591.226 377.598 591.772 377.159L591.781 377.152L591.784 377.15C596.586 373.293 602.258 368.738 608.1 367.581L626.73 350.801C657.79 317.501 700.18 293.841 742.81 280.201C753.264 279.879 763.845 279.519 774.482 279.156L774.5 279.155ZM940.81 285.851C936.98 278.721 979.25 277.541 985.06 279.411V279.421C991.39 278.421 995.63 283.361 991.99 288.491C986.13 287.902 979.598 288.511 973.003 289.126C961.341 290.213 949.484 291.319 940.81 285.851ZM336.989 337.305C342.19 333.967 348.882 329.673 352 321.741C358.04 312.841 370.89 309.841 380.43 310.421C382.37 325.701 382.65 331.991 368.21 340.341C360.69 343.634 357.807 349.53 355.591 354.061C352.438 360.509 350.636 364.193 338.75 353.681C325.133 344.913 329.528 342.093 336.989 337.305ZM262.142 323.126C263.484 325.999 264.833 328.884 267.19 330.641C263.291 334.913 254.706 329.669 246.398 324.595C241.344 321.508 236.392 318.484 232.66 317.701C236.477 308.873 245.984 311.817 253.605 314.178L254.1 314.331C258.479 315.29 260.304 319.196 262.142 323.126ZM306.46 347.491C321.34 343.721 321.41 332.201 309.45 323.741C300.46 324.751 299.89 342.171 306.46 347.491ZM294.18 329.001C297.47 328.891 298.84 340.811 297.62 344.791V344.801C295.702 348.246 285.087 343.084 276.419 338.869C272.205 336.82 268.45 334.995 266.38 334.491C271.311 335.209 277.008 333.508 282.808 331.776C286.617 330.639 290.47 329.488 294.18 329.001ZM325.94 361.261C314.04 358.281 306.38 352.791 322.22 346.241C323.657 345.676 325.68 348.868 327.441 351.646C328.363 353.101 329.213 354.442 329.87 355.071L325.94 361.261ZM338.561 369.277C332.967 367.243 325.917 364.678 331.96 358.381C337.36 356.831 347.99 366.801 350.16 373.191C350.591 375.301 348.363 373.953 346.078 372.57C344.607 371.679 343.112 370.775 342.29 370.771C341.297 370.272 339.975 369.792 338.561 369.277ZM292.87 384.671C275.71 388.901 277.53 370.221 291.95 365.461C303.259 362.76 298.077 373.53 294.735 380.477C293.908 382.197 293.193 383.682 292.87 384.671ZM311.386 366.552C312.543 367.165 313.719 367.787 314.81 367.941C322.335 370.521 320.144 371.971 316.69 374.256C313.851 376.134 310.161 378.575 310.31 382.671C308.201 383.662 306.525 383.081 304.894 382.516C303.038 381.873 301.24 381.25 298.93 382.991C298.55 382.579 301.842 375.887 304.311 370.866C305.743 367.953 306.9 365.602 306.9 365.371C308.158 364.844 309.753 365.688 311.386 366.552ZM338.452 378.036L338.455 378.038C341.004 379.39 343.264 380.588 344.71 381.081C345.38 388.891 328.28 382.541 322.77 379.771C318.319 367.357 329.98 373.542 338.452 378.036ZM1577.74 402.221C1575.77 400.571 1575.64 399.081 1577.34 397.771C1577.99 395.695 1575.85 393.802 1574.69 392.786C1574.06 392.226 1573.73 391.932 1574.33 392.021C1598.24 393.591 1623.9 395.871 1644.14 409.951C1645.98 413.103 1646.39 415.753 1646.72 417.945C1647.38 422.229 1647.76 424.766 1658.11 425.891C1668.12 433.203 1659.26 438.58 1650.75 443.745C1647.13 445.941 1643.58 448.099 1641.56 450.351C1630.8 461.171 1599.03 463.401 1585.52 462.441C1581.14 454.723 1576.87 446.501 1572.56 438.196L1572.56 438.194C1567.83 429.09 1563.05 419.885 1558.01 411.131C1553.22 404.691 1547.94 396.271 1560.1 395.911C1561.43 398.046 1562.78 397.71 1564.15 397.37C1565.17 397.117 1566.2 396.861 1567.24 397.611C1567.94 399.111 1569.28 399.711 1571.06 399.611C1571.14 402.351 1575.92 405.911 1577.74 402.221ZM1650.65 410.831C1650.62 416.821 1656.63 422.511 1661.67 418.171C1660.09 414.081 1644.07 403.831 1650.65 410.831ZM1489.45 414.961C1538.21 412.541 1561.32 437.211 1573.71 480.311C1573.24 479.685 1572.29 478.761 1571.21 477.705C1568.33 474.897 1564.5 471.164 1566.16 469.681C1566.2 469.683 1566.25 469.687 1566.3 469.693C1566.38 469.702 1566.47 469.714 1566.57 469.728L1566.58 469.728C1567.42 469.842 1568.8 470.03 1568.63 468.761C1565.74 463.377 1559.88 460.176 1553.84 456.879C1548.94 454.205 1543.93 451.468 1540.29 447.451C1532.83 441.455 1521.83 443.503 1513.2 445.11L1512.5 445.241C1496.81 439.591 1480.5 442.722 1464.62 445.771L1464.61 445.772C1462.34 446.209 1460.07 446.644 1457.82 447.051C1456.5 447.253 1456.48 445.18 1456.46 443.402C1456.45 442.372 1456.44 441.441 1456.18 441.111C1456.61 439.983 1457.98 439.988 1459.52 439.993C1460.65 439.997 1461.87 440.001 1462.86 439.551C1465.41 438.086 1464.76 434.49 1464.14 431.018C1463.79 429.062 1463.44 427.145 1463.68 425.671C1469.92 419.061 1480.44 414.451 1489.45 414.961ZM1684.94 418.797C1681.94 420.512 1678.39 421.553 1674.99 422.55C1671.59 423.544 1668.36 424.493 1665.98 426.021C1668.35 432.959 1676.03 426.352 1681.58 421.579C1682.84 420.498 1683.98 419.511 1684.94 418.797ZM508.56 477.621C505.49 481.981 522.19 472.941 520.58 471.551C515.12 466.651 510.58 472.631 508.56 477.621ZM471.859 484.168C483.279 477.463 502.627 466.104 489.08 481.581C487.16 484.348 485.439 487.305 483.834 490.063C477.364 501.182 472.778 509.063 464.63 488.151C465.247 488.05 468.131 486.357 471.859 484.168ZM452.079 558.41C454.936 553.202 457.643 548.267 458.43 545.181H458.44C460.646 538.08 465.545 531.823 470.479 525.522C475.092 519.629 479.737 513.698 482.24 507.001C495.73 480.101 509.58 474.781 484.6 505.501C484.204 507.877 480.11 513.426 476.692 518.058L476.69 518.061L476.689 518.062C472.068 524.325 468.686 528.909 477.36 521.701C480.34 518.315 476.19 526.874 473.364 532.705C472.292 534.916 471.41 536.734 471.18 537.361C467.835 542.122 464.931 547.915 462.002 553.755C457.013 563.703 451.956 573.789 444.54 579.151C442.444 575.974 447.457 566.835 452.079 558.41ZM473.9 507.701C460.14 527.271 448.68 546.121 437.77 567.071H437.76C436.547 568.709 434.283 563.042 432.624 558.891C431.751 556.707 431.046 554.943 430.75 554.881C430.759 552.689 431.737 550.667 432.751 548.568C433.89 546.213 435.074 543.763 434.99 540.871C429.42 531.811 424.37 521.491 427.1 509.221C432.584 505.409 438.684 502.274 444.803 499.128L444.807 499.126C450.358 496.273 455.924 493.412 461.06 490.031C462.689 493.069 465.159 496.057 467.592 498.999C470.027 501.945 472.424 504.844 473.9 507.701ZM427.532 600.436C429.718 594.203 432.012 587.664 436.91 587.821H436.92C445.853 584.424 428.72 622.014 414.566 653.066L414.566 653.067C406.428 670.921 399.276 686.613 398.63 691.111C387.73 724.131 350.38 692.321 367.67 667.521C378.204 651.464 396.512 635.763 405.617 627.956L406.09 627.551C407.75 626.443 409.794 626.728 411.755 627C414.505 627.383 417.091 627.742 418.23 624.211C414.326 622.184 416.941 619.086 419.746 615.764C421.605 613.563 423.546 611.263 423.73 609.111C425.222 607.022 426.362 603.773 427.532 600.436ZM1625.48 614.379L1625.48 614.378L1625.48 614.376L1625.48 614.374L1625.48 614.372L1625.48 614.37L1625.48 614.37L1625.47 614.368C1624.55 612.874 1623.66 611.458 1622.9 610.551C1620.51 608.471 1628.48 608.591 1627.91 609.671C1624.89 613.024 1626.9 615.299 1628.97 617.633C1629.86 618.646 1630.77 619.671 1631.28 620.801C1629.56 620.936 1627.42 617.492 1625.48 614.379ZM1640.15 648.346C1638.78 639.917 1637.38 631.354 1633.72 623.751C1629.04 615.621 1631.3 605.261 1639.72 616.441C1645.09 629.201 1651.13 644.621 1652.54 657.911C1652.44 657.923 1650.96 658.94 1649.21 660.139C1646.64 661.896 1643.5 664.044 1643.33 663.991C1641.89 659.018 1641.03 653.709 1640.15 648.346ZM1660.02 670.343C1660.65 672.823 1661.39 675.717 1662.7 678.561C1663.21 680.495 1664.31 682.835 1665.25 684.855C1665.88 686.177 1666.43 687.362 1666.71 688.204C1666.43 687.667 1663.79 685.204 1660.57 682.192L1660.57 682.188L1660.56 682.186C1654.65 676.659 1646.76 669.287 1647.79 668.571C1657.38 659.934 1658.32 663.615 1660.02 670.343ZM1650.22 696.393L1650.22 696.386L1650.22 696.379C1649.22 692.171 1647.87 686.518 1648.28 686.391C1653.5 683.191 1654.36 683.131 1658.29 687.961C1658.01 689.229 1657.91 690.659 1657.81 692.095C1657.49 696.593 1657.18 701.139 1651.21 700.881C1651.26 700.757 1650.8 698.816 1650.22 696.393ZM1666.54 695.321C1668.43 696.401 1666.41 696.931 1665.08 696.781C1660.75 698.725 1660.88 696.76 1661.05 694.306C1661.13 693.188 1661.21 691.969 1660.88 690.971C1660.02 688.633 1660.93 689.73 1662.32 691.408C1663.66 693.031 1665.46 695.198 1666.54 695.321ZM1652.39 709.256C1652.38 707.747 1652.36 706.309 1652.12 705.411C1653.94 704.114 1655.81 703.428 1657.71 702.73C1660.21 701.813 1662.76 700.874 1665.36 698.501C1664.22 700.54 1661.91 702.172 1659.61 703.799C1655.34 706.824 1651.09 709.832 1654.39 715.411C1652.44 715.631 1652.41 712.299 1652.39 709.256ZM376.405 748.845C378.175 739.414 379.94 730.011 378.14 720.671C376.971 716.39 374.504 712.508 372.119 708.758C370.238 705.798 368.408 702.92 367.31 699.991C368.915 700.968 370.052 702.754 371.195 704.549C373.198 707.695 375.219 710.869 379.81 709.761C381.653 709.665 383.445 709.766 385.215 709.865C388.62 710.057 391.949 710.245 395.43 709.021C391.63 723.221 388.12 740.731 402.55 750.721C408.733 755.66 417.762 761.464 426.355 766.989L426.36 766.991L426.366 766.996L426.376 767.002L426.404 767.019L426.411 767.025C430.361 769.564 434.216 772.043 437.66 774.351C434.799 777.528 432.155 782.206 429.4 787.082C422.131 799.948 414.086 814.188 399.22 805.841C397.913 804.047 395.594 803.151 393.342 802.282C390.059 801.014 386.92 799.802 387.27 795.941C385.409 799.188 383.903 796.139 382.262 792.815C381.028 790.315 379.716 787.66 378.12 787.411C371.577 774.563 373.996 761.678 376.405 748.845ZM1652.28 760.364C1653.53 770.957 1654.63 780.317 1655.98 784.991C1650.01 784.585 1645.25 784.494 1641.29 784.419C1624.77 784.105 1622.31 784.058 1604.99 762.461C1608.69 755.118 1616.57 749.165 1624.37 743.259C1634.29 735.756 1644.11 728.33 1645.16 718.231C1648.53 728.433 1650.54 745.596 1652.28 760.364ZM1180.45 844.924C1192.24 834.743 1203.96 824.62 1218.09 818.781L1218.1 818.791C1227.32 809.33 1229.78 786.92 1232.05 766.209C1233.03 757.279 1233.97 748.665 1235.41 741.541L1247.37 743.141C1248.56 752.641 1247.85 763.824 1247.21 773.936L1247.11 775.438C1247.08 776.003 1247.04 776.564 1247.01 777.121C1247.83 785.777 1251.28 794.915 1254.85 804.377C1260.15 818.416 1265.72 833.169 1263.36 848.121C1262.8 850.294 1262.13 852.552 1261.43 854.872L1261.43 854.874C1258.46 864.794 1255.14 875.841 1259.57 886.231C1263.9 904.507 1256.98 907.543 1246.71 912.046C1240.91 914.589 1234.04 917.6 1227.53 924.091C1231.44 928.16 1230.42 930.782 1229.07 934.234C1228.52 935.643 1227.91 937.19 1227.57 939.031C1227.66 941.461 1229.59 944.281 1231.13 946.311C1234.76 951.306 1222.02 947.929 1214.24 945.867C1211.93 945.254 1210.06 944.757 1209.18 944.631C1203.56 942.427 1198.57 940.527 1194.03 938.799L1194.03 938.799C1173.41 930.945 1162.13 926.653 1143.92 913.621C1142.43 912.107 1140.22 910.191 1137.72 908.018L1137.72 908.012L1137.71 908.01C1126.57 898.324 1109.56 883.534 1123.28 876.471C1147.09 873.739 1163.84 859.275 1180.45 844.924ZM447.359 787.005C442.367 798.533 435.603 814.156 421.95 809.561C420.755 809.346 429.394 797.187 435.846 788.106C439.601 782.822 442.615 778.58 442.52 778.341C442.691 777.657 445.197 779.585 447.121 781.065L447.122 781.066C448.235 781.922 449.152 782.627 449.31 782.591C448.684 783.946 448.038 785.437 447.359 787.004L447.359 787.005ZM455.514 791.512C454.865 793.609 454.146 795.931 454.75 797.261H454.74C454.736 798.605 455.09 799.774 455.378 800.726C455.984 802.733 456.298 803.77 452.35 803.431C452.063 803.713 451.766 804.02 451.458 804.339L451.457 804.339C449.602 806.258 447.346 808.591 444.62 808.351C443.589 805.431 447.094 800.452 450.342 795.837C452.801 792.342 455.113 789.056 455.2 787.031C456.959 786.846 456.286 789.02 455.514 791.512ZM1602.59 796.676C1598.15 798.178 1593.96 799.599 1590.73 798.871C1594.44 798.189 1597.67 796.176 1600.92 794.146C1604.39 791.98 1607.89 789.795 1612.04 789.191C1620.41 785.831 1630.48 790.401 1617.27 794.221C1612.76 793.23 1607.53 795.003 1602.59 796.676ZM495.797 818.277L495.057 817.769C494.548 817.419 494.048 817.076 493.56 816.741C490.149 813.807 484.076 812.084 477.922 810.339C465.849 806.915 453.464 803.403 460.26 790.481C471.001 797.331 484.021 802.029 497.124 806.757C516.348 813.693 535.751 820.694 548.4 834.651C547.93 835.881 539.19 845.631 537.25 844.281C523.438 837.272 507.221 826.128 495.797 818.277ZM1602.44 799.771C1601.51 799.751 1603 798.941 1603.41 799.001C1606.86 797.259 1610.2 797.207 1613.49 797.155C1617.56 797.09 1621.55 797.028 1625.54 793.751C1627.08 792.856 1627.98 796.277 1628.66 798.844C1628.98 800.065 1629.25 801.094 1629.51 801.371C1621.98 797.951 1611.32 798.141 1602.44 799.771ZM585.758 872.982C581.792 871.721 577.886 870.48 574.12 869.211C574.12 869.185 568.366 865.46 561.714 861.152L561.659 861.116L561.648 861.109C552.528 855.203 541.753 848.225 541.8 848.191C540.677 847.617 544.67 843.96 547.755 841.134C549.563 839.477 551.059 838.106 551.03 837.811C557.14 837.192 562.126 840.82 567.11 844.447C570.584 846.975 574.057 849.502 577.91 850.591C587.245 856.097 598.182 859.95 608.629 863.629C613.38 865.302 618.029 866.94 622.38 868.681C622.169 868.774 621.684 870.818 621.071 873.403C619.906 878.315 618.277 885.179 617.19 884.321C607.261 879.817 596.297 876.332 585.764 872.984L585.758 872.982ZM1672.02 890.219C1667.87 879.818 1662.25 865.732 1663.24 865.751C1667.05 865.631 1666.13 862.997 1665.24 860.452C1664.58 858.551 1663.93 856.699 1665.29 855.981C1666.14 856.21 1666.99 856.438 1667.84 856.667L1667.85 856.668L1667.89 856.678C1682 860.459 1697.4 864.582 1706.21 876.761C1707.82 879.312 1710.07 879.086 1712.18 878.873C1713.88 878.702 1715.48 878.539 1716.6 879.831C1718.02 884.225 1707.69 887.807 1700.95 890.147C1697.48 891.348 1694.96 892.222 1695.46 892.711C1692.15 894.147 1689.24 895.682 1686.66 897.042L1686.66 897.042C1682.35 899.317 1678.96 901.102 1676.18 901.121C1676.3 900.949 1674.4 896.192 1672.02 890.219ZM632.22 889.711C630.57 889.941 629.14 889.481 627.91 888.331V888.341C619.703 886.957 621.377 882.96 623.43 878.056C624.522 875.448 625.721 872.585 625.6 869.721C639.25 873.331 699.16 894.171 714.2 899.461C711.657 900.598 709.065 902.473 706.424 904.384C702.585 907.161 698.645 910.012 694.61 910.771L632.22 889.711ZM742.231 927.606L742.229 927.606C737.236 925.66 732.759 923.916 731.64 923.831V923.841C726.226 920.986 720 919.323 713.874 917.687C707.62 916.017 701.471 914.375 696.4 911.521C703.941 914.12 708.262 911.233 712.817 908.189C718.705 904.254 724.985 900.057 739.12 907.111C741.354 907.254 744.151 908.899 746.697 910.396C748.253 911.312 749.716 912.172 750.9 912.601C750.715 913.551 750.316 915.075 749.856 916.828L749.856 916.831C747.903 924.282 744.866 935.877 752.58 925.241C753.16 925.818 753.245 926.739 753.335 927.723C753.52 929.739 753.73 932.023 758.28 932.171C760.572 934.752 750.664 930.892 742.231 927.606ZM1251.63 915.981C1256.02 914.015 1259.57 912.421 1259.53 911.861C1260.52 938.301 1261 962.071 1237.06 926.791C1231.4 925.046 1243.08 919.809 1251.63 915.981ZM757.319 921.253C757.311 920.073 757.303 919.019 757.23 918.221V918.211C754.62 910.851 775.41 919.181 778.41 921.021C788.18 923.331 798.198 926.92 808.37 930.564C823.423 935.956 838.814 941.47 854.24 943.141C853.928 944.647 853.686 946.176 853.449 947.672C852.117 956.074 850.953 963.42 838.67 959.761C819.9 961.321 807.88 955.311 794.12 944.111L760.61 932.941C757.391 931.437 757.349 925.518 757.319 921.253ZM1283.44 977.861C1275.35 974.692 1267.11 971.465 1266.74 965.061C1264.26 957.443 1271.45 959.162 1278.35 960.811C1281.72 961.617 1285.02 962.406 1287.09 962.081C1294.38 961.94 1301.65 961.658 1308.91 961.377C1320.71 960.919 1332.5 960.462 1344.36 960.611C1389.85 957.441 1423.36 966.901 1414.85 1019.67C1415 1023.14 1415.15 1026.21 1415.28 1028.92C1415.9 1041.25 1416.15 1046.28 1413.75 1048.73C1412.1 1050.42 1409.19 1050.88 1404.27 1051.65C1399.8 1052.36 1393.67 1053.33 1385.31 1055.72C1378.31 1051.6 1388.56 1048.16 1398.91 1044.69C1406.64 1042.09 1414.42 1039.48 1415.13 1036.55C1415.1 1036.27 1415.14 1035.8 1415.19 1035.28C1415.34 1033.65 1415.55 1031.45 1413.61 1032.39C1411.7 1033.2 1409.16 1034.25 1406.28 1035.44L1406.25 1035.45L1406.25 1035.45L1406.24 1035.45L1406.23 1035.46C1396.75 1039.37 1383.68 1044.76 1377.96 1047.87C1363.23 1038.92 1347.06 1025.34 1331.2 1012.03C1318.78 1001.61 1306.56 991.346 1295.38 983.601C1292.35 981.352 1287.92 979.616 1283.44 977.861ZM1424.95 967.641C1425.93 967.981 1423.49 969.571 1423.24 969.691C1422.61 969.576 1421.61 969.583 1420.48 969.591C1417.07 969.615 1412.38 969.649 1412.27 966.441C1411.89 965.555 1417.21 966.459 1421.08 967.117C1423.19 967.476 1424.87 967.761 1424.95 967.641ZM1415.51 972.911C1415.38 971.951 1420.51 972.781 1419.79 973.911C1417.98 977.985 1417.73 977.45 1416.7 975.249C1416.39 974.592 1416.02 973.786 1415.51 972.911ZM1340.76 1070.11C1339.31 1069.74 1338.15 1068.21 1336.16 1065.6C1333.3 1061.82 1328.72 1055.78 1319.05 1047.69C1316.12 1046.51 1313.37 1045.54 1310.81 1044.64L1310.8 1044.64L1310.8 1044.64C1299.11 1040.54 1291.28 1037.79 1287.72 1021.65C1284.62 1013.49 1281.43 1005.94 1278.25 998.415L1278.25 998.405L1278.25 998.4C1275.7 992.373 1273.16 986.356 1270.67 980.041C1269.88 978.157 1270.92 978.835 1271.87 979.454C1272.11 979.611 1272.34 979.764 1272.54 979.871C1298.96 992.209 1321.8 1011.59 1344.21 1030.6L1344.22 1030.6L1344.22 1030.6C1352.99 1038.05 1361.7 1045.43 1370.53 1052.32C1361.93 1057.59 1355.98 1061.64 1351.72 1064.54L1351.72 1064.55C1345.42 1068.84 1342.8 1070.62 1340.76 1070.11ZM1406.49 1080.42C1406.77 1080.72 1407.02 1080.98 1407.17 1081.07C1408.33 1080.73 1409.17 1080.3 1409.75 1079.81C1405.9 1092.33 1399.67 1104.08 1391.42 1114.98C1390.28 1116.4 1389.34 1118.61 1388.4 1120.81C1386.98 1124.14 1385.57 1127.45 1383.48 1127.99C1381 1125.38 1377.87 1123.16 1374.76 1120.95C1367.93 1116.1 1361.16 1111.3 1361.37 1102.46C1373.22 1104 1386.12 1103.88 1397.71 1103.09C1397.9 1102.77 1398.1 1102.45 1398.31 1102.12C1402.26 1095.67 1407.43 1087.23 1404.17 1079.74C1404.48 1078.26 1405.66 1079.52 1406.49 1080.42ZM1410.57 1077C1409.45 1073.08 1401.38 1067.65 1395.17 1063.47L1395.17 1063.47L1395.16 1063.47C1391.41 1060.94 1388.34 1058.88 1387.88 1057.87C1393 1055.5 1400.25 1054.8 1406.93 1054.16C1409.48 1053.91 1411.95 1053.67 1414.19 1053.35C1413.91 1061.5 1412.67 1069.38 1410.57 1077ZM1374.77 1056.04C1406.82 1073.83 1411.9 1108.96 1365.23 1099.24C1351.78 1098.94 1351.01 1094.21 1350.07 1088.39C1349.43 1084.48 1348.72 1080.08 1344.05 1076.18C1348.09 1073.42 1352.47 1070.65 1356.9 1067.86L1356.92 1067.85L1356.94 1067.84L1356.95 1067.83C1363.03 1064 1369.21 1060.1 1374.77 1056.04ZM850.091 1097.94C850.391 1106.81 850.515 1110.49 847.64 1098.6C847.884 1095.08 847.539 1091.21 847.189 1087.29L847.189 1087.29V1087.29C846.351 1077.89 845.487 1068.21 852.68 1062.47C849.167 1070.6 849.746 1087.72 850.091 1097.94ZM659.026 939.79C661.737 938.795 664.438 937.802 667.341 938.701C670.621 937.921 671.741 939.041 668.191 940.511C668.178 940.511 666.643 942.296 664.863 944.366C662.403 947.227 659.474 950.632 659.451 950.621C659.251 950.431 652.701 941.151 654.161 941.171C655.815 940.97 657.422 940.38 659.026 939.79Z" fill="#2F6673"/>
<path d="M1581.12 143.409C1581.11 143.678 1581.09 143.882 1581.08 143.951C1581.09 143.83 1581.1 143.709 1581.1 143.588L1581.12 143.409Z" fill="#2F6673"/>
<path d="M1783.15 14.8162C1784.14 7.30961 1785.07 0.221495 1778.19 0.369437C1776.34 0.915654 1776.86 2.6685 1777.41 4.50275V4.5042C1777.81 5.85951 1778.23 7.25959 1777.71 8.24944C1777.7 8.90289 1777.62 10.1355 1777.52 11.7097V11.7193C1777.09 18.0737 1776.3 29.9772 1778.63 31.8594C1780.54 34.7799 1783.99 40.1289 1787.61 45.7529L1787.75 45.9742L1787.79 46.0233L1787.79 46.0258L1787.8 46.0494C1792.45 53.2597 1797.34 60.8586 1799.64 64.3294C1800.53 64.0312 1800.42 59.8234 1800.34 56.6789C1800.3 55.1841 1800.27 53.9295 1800.35 53.4494C1797.71 47.1027 1794.61 43.0877 1792.28 40.0622C1787.21 33.501 1785.74 31.593 1800.35 20.6494C1793.99 19.4392 1791.02 23.7464 1787.94 28.2193C1787.27 29.1792 1786.61 30.1472 1785.9 31.0694C1781.35 28.551 1782.27 21.5166 1783.15 14.8162Z" fill="#2F6673"/>
<path fill-rule="evenodd" clip-rule="evenodd" d="M290.399 770.95C309.889 773.08 339.479 776.95 358.719 779.91C360.016 780.401 361.592 780.321 363.086 780.245C365.949 780.099 368.516 779.968 368.259 783.89C368.565 787.876 370.602 791.157 372.662 794.475C374.24 797.017 375.832 799.581 376.669 802.5C368.756 800.706 361.781 804.458 354.94 808.138C351.943 809.75 348.972 811.348 345.959 812.46C345.366 813.204 341.396 814.812 336.633 816.74C327.749 820.338 316.11 825.052 318.499 827.35C318.981 828.532 323.477 841.058 328.323 854.56L328.331 854.581L328.337 854.598L328.348 854.629C334.157 870.812 340.459 888.371 340.949 889.46C344.901 887.443 349.158 883.584 352.996 880.105L352.997 880.103C354.218 878.997 355.397 877.928 356.509 876.97C359.932 873.903 367.842 864.856 376.711 854.712L376.716 854.707L376.718 854.705L376.719 854.704C399.227 828.96 427.903 796.161 405.079 836.12C397.664 843.266 389.9 851.426 381.992 859.739C369.669 872.691 356.994 886.013 344.739 896.44C345.19 898.262 345.997 900.119 346.785 901.932C348.985 906.994 351.035 911.712 344.769 914.37C342.218 912.442 341.479 909.33 340.745 906.242C340.219 904.028 339.695 901.826 338.509 900.08C334.626 901.261 330.625 902.798 326.551 904.363C311.895 909.992 296.284 915.988 281.769 907.13C263.569 898.69 244.119 881.86 232.099 865.68C230.989 866.268 229.534 866.803 228.023 867.358C223.103 869.168 217.587 871.195 221.424 875.996C217.219 871.291 218.003 873.537 219.204 876.982C220.237 879.943 221.578 883.788 220.329 884.87C217.909 888.904 215.784 888.374 212.143 887.464C210.775 887.122 209.192 886.727 207.299 886.5C201.699 888.53 193.139 892.48 197.609 899.38C208.342 915.483 202.105 919.249 193.479 924.458C189.527 926.844 185.073 929.533 181.519 933.85C179.837 937.699 178.025 941.742 176.15 945.925L176.144 945.94L176.142 945.943C166.286 967.936 154.704 993.778 151.159 1015.45C139.339 1027.25 167.099 1104.89 180.229 1113.27C175.269 1130.37 182.239 1147.25 189.429 1164.1C190.648 1164.85 188.915 1165.16 188.055 1165.32L187.945 1165.34L187.872 1165.35L187.829 1165.36C187.791 1165.37 187.758 1165.37 187.729 1165.38C178.306 1164.39 173.077 1142.79 168.598 1124.29C166.708 1116.48 164.951 1109.22 163.069 1104.3C160.88 1093.77 157.038 1083.54 153.203 1073.33C147.036 1056.9 140.889 1040.53 141.659 1023.07C143.815 1020.46 142.612 1016.46 141.545 1012.92C140.265 1008.66 139.178 1005.05 144.309 1005.24C145.816 1006.49 145.216 1008.96 144.714 1011.04C144.383 1012.4 144.094 1013.59 144.479 1014.14C145.531 1010.19 147.066 1005.23 148.707 999.917C151.809 989.881 155.292 978.612 156.619 970.64C159.701 964.887 162.603 958.609 165.525 952.286C170.358 941.828 175.247 931.25 181.099 922.73C198.942 918.144 197.158 913.807 193.42 904.716C192.243 901.854 190.872 898.521 189.859 894.56C189.688 888.745 194.327 886.323 198.993 883.888C201.396 882.634 203.805 881.377 205.569 879.65C187.407 880.346 166.939 893.032 147.635 904.995C139.474 910.053 131.521 914.981 124.039 918.82C120.546 920.062 117.02 921.157 113.519 922.244L113.518 922.245C99.5415 926.585 85.9695 930.799 76.5094 943.73C56.2394 961.87 37.4794 982.2 37.4094 1010.68C34.1488 1016.62 27.7642 1020.86 21.642 1024.92L21.6407 1024.92C18.8448 1026.77 16.103 1028.59 13.7394 1030.52C12.8018 1031.66 11.1713 1034.11 9.36401 1036.83C5.36942 1042.83 0.510845 1050.13 0.359375 1047.49C0.473469 1034.34 8.82962 1027.85 17.2133 1021.34C26.4649 1014.16 35.7501 1006.95 34.0294 990.73C45.1094 961.05 65.4394 943.39 91.4094 923.21C93.3275 922.553 95.282 921.898 97.2604 921.235C112.919 915.987 130.072 910.238 142.519 898.9C154.853 891.073 168.809 885.857 182.358 880.794L182.36 880.793C191.694 877.305 200.835 873.888 209.119 869.74C207.861 864.102 210.224 865.236 212.385 866.272C214.053 867.072 215.6 867.815 215.269 865.34C217.077 868.123 221.566 865.497 225.158 863.396C226.872 862.393 228.382 861.51 229.299 861.39C229.437 859.493 228.678 856.622 227.868 853.559C226.139 847.018 224.178 839.601 230.219 838.92C232.029 863.199 263.298 846.143 287.079 833.171C296.415 828.079 304.597 823.616 309.389 822.53C311.896 820.884 318.307 818.186 326.013 814.944C345.641 806.686 373.67 794.893 366.999 787.92C349.726 784.341 331.163 782.272 312.559 780.2L312.554 780.199C288.542 777.523 264.461 774.84 242.989 768.89C247.636 761.997 260.643 765.131 272.763 768.05C279.42 769.654 285.811 771.194 290.399 770.97V770.95ZM268.549 849.18C229.503 863.612 244.005 873.622 264.546 887.802L264.548 887.803L264.553 887.807C268.762 890.712 273.223 893.792 277.529 897.12C295.979 912.12 316.099 903.26 334.239 893.41C333.59 882.083 328.407 869.69 323.224 857.296C319.306 847.927 315.388 838.558 313.429 829.65C314.642 826.267 295.377 836.016 281.703 842.936L281.702 842.936C274.398 846.633 268.689 849.522 268.549 849.17V849.18ZM238.489 860.38C248.079 854.27 235.439 856.83 234.449 861.81C237.564 864.051 237.555 863.898 237.5 862.978C237.459 862.309 237.395 861.235 238.489 860.38ZM175.439 1122.09C179.758 1117.09 176.633 1113.57 173.339 1109.87C171.85 1108.19 170.326 1106.48 169.439 1104.57C170.793 1107.77 171.511 1110.88 172.148 1113.64C172.974 1117.21 173.666 1120.21 175.439 1122.09Z" fill="#2F6673"/>
<path d="M222.149 876.82C221.893 876.525 221.651 876.25 221.424 875.996C221.637 876.262 221.878 876.537 222.149 876.82Z" fill="#2F6673"/>
<path d="M761.732 992.371C759.701 974.959 757.699 957.789 758.599 940.691C748.933 932.506 751.565 961.201 754.207 989.992C756.254 1012.31 758.307 1034.69 754.639 1039.99C751.099 1057.27 746.053 1075.55 740.98 1093.93C734.26 1118.28 727.493 1142.79 724.119 1165.37C724.47 1165.28 725.13 1165.32 725.883 1165.37C727.513 1165.47 729.578 1165.6 729.879 1164.43C733.459 1148.32 740.859 1118.55 745.299 1102.74C746.858 1096.77 748.443 1090.88 750.015 1085.05L750.016 1085.05C755.734 1063.82 761.268 1043.29 764.649 1021.62C763.996 1011.78 762.86 1002.04 761.732 992.371Z" fill="#2F6673"/>
<path d="M1525.82 989.34C1529.63 1004.12 1530.87 1005.66 1535.24 1011.03L1535.24 1011.03C1536.83 1012.98 1538.83 1015.44 1541.51 1019.23C1540.66 1033.09 1542.3 1046.37 1543.97 1059.86V1059.86L1543.97 1059.86C1545.23 1070.13 1546.51 1080.52 1546.73 1091.39C1544.49 1102.41 1535.42 1104.12 1526.21 1105.85C1516.94 1107.6 1507.52 1109.37 1504.7 1120.66C1500.44 1131.85 1494.18 1143.06 1487.86 1152.66L1491.79 1163.37C1493.34 1164.69 1492.5 1165.23 1490.77 1165.37C1485.61 1166.74 1484.7 1163.59 1483.73 1160.21C1483.31 1158.75 1482.88 1157.25 1482.09 1156.05C1480.22 1157.01 1478.3 1158.47 1476.34 1159.95C1473.15 1162.38 1469.87 1164.87 1466.55 1165.37C1464.8 1165.31 1463.11 1165.33 1461.63 1165.35C1455.66 1165.41 1453.04 1165.44 1463.64 1160.5C1465.55 1160.05 1477.97 1151.9 1479.4 1150.19C1475.92 1146.54 1472.17 1141.39 1468.22 1135.98C1458.21 1122.24 1446.96 1106.82 1435.9 1109.98C1435.79 1110.5 1435.47 1111.14 1434.94 1111.88C1427.65 1104.19 1417.61 1104.95 1409.5 1105.56C1409.18 1105.58 1408.86 1105.61 1408.54 1105.63C1401.46 1094.72 1421.2 1099.46 1431.12 1101.84C1434.27 1102.59 1436.42 1103.11 1436.43 1102.82C1433.68 1101.41 1431.06 1099.32 1428.45 1097.23C1425.4 1094.79 1422.36 1092.36 1419.14 1091.03C1419.09 1091.04 1418.73 1091.35 1418.16 1091.81L1418.16 1091.82C1415.87 1093.73 1410.39 1098.29 1410.66 1096.18C1414.18 1091.46 1415.11 1087.28 1415.7 1084.62C1416.63 1080.45 1416.72 1080.04 1424.61 1087.22C1452.68 1105.75 1465.74 1123.43 1473.4 1133.78C1477.72 1139.64 1480.32 1143.16 1482.93 1143.16C1486.84 1143.17 1490.78 1135.26 1500.61 1115.49C1502.09 1112.53 1503.69 1109.3 1505.45 1105.79C1506.79 1101.6 1513.93 1100.58 1520.58 1099.64C1527.73 1098.63 1534.3 1097.69 1532.47 1092.98C1533.84 1092.09 1537.5 1090.15 1538.72 1091.59C1536.76 1093.31 1532.94 1099.31 1537.68 1095.7C1539.04 1092.64 1540.61 1088.23 1540.31 1085.14C1536.45 1066.74 1535.99 1052.33 1535.46 1035.93C1535.32 1031.61 1535.18 1027.15 1534.97 1022.44C1534.64 1018.11 1531.36 1015.18 1528.19 1012.34C1524.26 1008.81 1520.48 1005.43 1522.71 999.7C1522.69 998.799 1522.49 997.799 1522.28 996.785C1521.64 993.578 1520.97 990.219 1525.82 989.33V989.34Z" fill="#2F6673"/>
<path d="M401.849 1056.35C401.417 1055.22 400.905 1053.88 399.589 1053.79H399.579C377.739 1067.92 366.529 1101.52 359.999 1127.1C359.881 1128.26 359.661 1129.87 359.4 1131.77C357.782 1143.57 354.602 1166.78 364.469 1165.37C362.509 1127.92 373.639 1085.09 402.339 1057.46C402.162 1057.17 402.011 1056.78 401.849 1056.35Z" fill="#2F6673"/>
</g>
<defs>
<clipPath id="clip0_126_209">
<rect width="1280" height="621" fill="white"/>
</clipPath>
</defs>
</svg>
