<svg width="18" height="22" viewBox="0 0 18 22" fill="none" xmlns="http://www.w3.org/2000/svg">
<path d="M11.5 8C11.5 9.38071 10.3807 10.5 9 10.5C7.61929 10.5 6.5 9.38071 6.5 8C6.5 6.61929 7.61929 5.5 9 5.5C10.3807 5.5 11.5 6.61929 11.5 8Z" stroke="white" stroke-width="1.5"/>
<path d="M15.2222 16C16.6167 17.9885 17.2838 19.0475 16.8865 19.8999C16.8466 19.9854 16.7999 20.0679 16.7469 20.1467C16.1724 21 14.6875 21 11.7178 21H6.28223C3.31251 21 1.82765 21 1.25311 20.1467C1.20005 20.0679 1.15339 19.9854 1.11355 19.8999C0.716191 19.0475 1.38326 17.9885 2.77778 16" stroke="white" stroke-width="1.5" stroke-linecap="round" stroke-linejoin="round"/>
<path d="M10.2574 16.4936C9.92012 16.8184 9.46932 17 9.00015 17C8.53099 17 8.08018 16.8184 7.7429 16.4936C4.6543 13.5008 0.51519 10.1575 2.53371 5.30373C3.6251 2.67932 6.24494 1 9.00015 1C11.7554 1 14.3752 2.67933 15.4666 5.30373C17.4826 10.1514 13.3536 13.5111 10.2574 16.4936Z" stroke="white" stroke-width="1.5"/>
</svg>
