<svg width="16" height="16" viewBox="0 0 16 16" fill="none" xmlns="http://www.w3.org/2000/svg">
<path fill-rule="evenodd" clip-rule="evenodd" d="M2.83884 1.69976H2.12071V3.95502C2.12071 4.37442 2.28008 4.76722 2.55795 5.10317C2.67448 5.24417 2.81094 5.37583 2.96633 5.49452C2.88366 5.21179 2.83983 4.91757 2.83983 4.61615V1.699L2.83884 1.69976ZM13.0339 5.49518C13.1883 5.37576 13.3257 5.24483 13.4423 5.10384C13.7192 4.76788 13.8795 4.3751 13.8795 3.95569V1.70042H13.1614V4.61757C13.1614 4.91899 13.1176 5.21323 13.0349 5.49594L13.0339 5.49518ZM8.96011 8.0534C8.96709 8.05196 8.97306 8.05052 8.98003 8.0498C9.81868 7.90161 10.5717 7.56853 11.1613 7.10884C11.1683 7.10308 11.1762 7.09733 11.1832 7.09157C11.1942 7.0815 11.2061 7.07143 11.2191 7.0628C12.0039 6.4283 12.488 5.56503 12.488 4.61692V0.484658H3.50892V4.61618C3.50892 5.56505 3.99297 6.42832 4.77784 7.06206C4.79079 7.07069 4.80274 7.08076 4.8137 7.09084C4.82067 7.09659 4.82864 7.10235 4.83561 7.1081C5.42525 7.56779 6.17823 7.90159 7.01688 8.04907C7.02385 8.05051 7.03082 8.05122 7.0368 8.05266C7.34655 8.1059 7.66828 8.13396 7.99794 8.13396C8.32763 8.13396 8.64934 8.1059 8.95908 8.05266L8.96011 8.0534ZM4.92839 12.6057H11.0718C10.7083 12.4453 10.3796 12.2496 10.0908 12.0245C9.22024 11.3454 8.71528 10.4008 8.71528 9.3635V8.58153C8.48122 8.6067 8.24316 8.62037 8.00014 8.62037C7.75811 8.62037 7.51908 8.60742 7.28501 8.58153V9.3635C7.28501 10.4009 6.78002 11.3455 5.90952 12.0245C5.62068 12.2497 5.29194 12.4461 4.92839 12.6057ZM13.8787 14.4711H2.1198V15.5143H13.8776V14.4711H13.8787ZM2.81487 13.9863H13.1833V13.0906H2.81487V13.9863ZM10.2182 6.46355C10.3287 6.35636 10.5379 6.33406 10.6863 6.4132C10.8347 6.49233 10.8656 6.64412 10.756 6.7513C10.7082 6.79806 10.6564 6.84626 10.5996 6.8959C10.5399 6.94841 10.4831 6.99589 10.4293 7.03834C10.3048 7.1369 10.0927 7.14409 9.95621 7.05416C9.81976 6.96424 9.8098 6.81101 9.9343 6.71245C9.99207 6.66713 10.0419 6.6254 10.0837 6.58871C10.1295 6.54843 10.1743 6.5067 10.2192 6.46354L10.2182 6.46355ZM11.0986 2.79759C11.0986 2.66379 11.249 2.55516 11.4343 2.55516C11.6196 2.55516 11.77 2.66379 11.77 2.79759C11.77 3.05082 11.7729 3.19614 11.7749 3.34001C11.7929 4.31046 11.8088 5.21037 11.3068 6.05863C11.2341 6.18165 11.0379 6.23848 10.8676 6.18668C10.6972 6.13417 10.6186 5.99244 10.6903 5.86942C11.1385 5.11262 11.1225 4.26302 11.1066 3.34583C11.1026 3.13073 11.0986 2.91275 11.0986 2.79837L11.0986 2.79759ZM12.5817 7.28234V9.69231L13.4054 9.01536C13.4154 9.00673 13.4263 8.99881 13.4383 8.9909C13.5777 8.90314 13.7889 8.91321 13.9104 9.0132L14.7351 9.69159V6.25288C14.7271 6.25936 14.7192 6.26583 14.7112 6.27159C14.1415 6.71546 13.4114 7.06579 12.5817 7.28161L12.5817 7.28234ZM14.7719 5.40903C14.6165 5.59968 14.4313 5.7788 14.2211 5.94281C13.7052 6.34495 13.0379 6.65932 12.2789 6.84635C12.4243 6.67946 12.5538 6.50392 12.6663 6.32048C13.2211 6.08524 13.6872 5.75071 14.0169 5.35218C14.3556 4.9414 14.5508 4.46374 14.5508 3.95585V1.45823C14.5508 1.32442 14.4004 1.21579 14.2152 1.21579H13.1614V0.872641H15.3277V3.95591C15.3277 4.47171 15.1335 4.95873 14.7908 5.38677C14.7839 5.39396 14.7779 5.40187 14.7729 5.40979L14.7719 5.40903ZM4.1235 7.42912L4.1225 10.3708C4.12549 10.4405 4.08665 10.5103 4.00896 10.56C3.86952 10.6477 3.65836 10.6377 3.53684 10.5377L2.37548 9.58303L1.23305 10.5226C1.1723 10.5823 1.07369 10.6204 0.963132 10.6204C0.777874 10.6204 0.627478 10.5118 0.627478 10.378V5.62857C0.227084 5.1286 0 4.55883 0 3.95527L0.000996011 0.629464C0.000996011 0.495658 0.151393 0.387031 0.33665 0.387031H2.83962V0.242433C2.83962 0.108627 2.99002 0 3.17528 0H12.8257C13.011 0 13.1614 0.108627 13.1614 0.242433V0.387031H15.6643C15.8496 0.387031 16 0.495658 16 0.629464V3.95527C16 4.54086 15.7859 5.09407 15.4084 5.58252V10.3341C15.4084 10.4679 15.258 10.5766 15.0727 10.5766C14.9622 10.5766 14.8646 10.5377 14.8028 10.4787L13.6604 9.5392L12.499 10.4938C12.3775 10.5945 12.1663 10.6046 12.0269 10.5161C11.9512 10.4686 11.9124 10.4017 11.9124 10.3341H11.9114V7.42342C11.8137 7.43924 11.7151 7.45291 11.6155 7.46514C11.001 7.93491 10.2371 8.28668 9.38645 8.47229V9.36361C9.38645 10.2794 9.82471 11.1074 10.5807 11.6973C11.3018 12.2592 12.3167 12.6066 13.5198 12.6066C13.7051 12.6066 13.8555 12.7153 13.8555 12.8491V13.9871H14.215C14.4003 13.9871 14.5507 14.0958 14.5507 14.2296V15.7576C14.5507 15.8914 14.4003 16 14.215 16L1.7838 15.9986C1.59854 15.9986 1.44815 15.8899 1.44815 15.7561V14.2281C1.44815 14.0943 1.59854 13.9857 1.7838 13.9857H2.14337V12.8476C2.14337 12.7138 2.29377 12.6052 2.47903 12.6052C3.68222 12.6052 4.69714 12.2577 5.41817 11.6959C6.17413 11.106 6.61239 10.278 6.61239 9.36217V8.47086C5.76081 8.28526 4.99786 7.93347 4.38331 7.4637C4.29566 7.45291 4.20901 7.44068 4.12336 7.42773L4.1235 7.42912ZM1.29884 6.28169V9.73623L2.12354 9.05785C2.24506 8.95713 2.45622 8.94706 2.59566 9.03555C2.60762 9.04274 2.61857 9.05137 2.62853 9.06001L3.45324 9.73839L3.45423 7.29325C2.61459 7.08032 1.87456 6.72925 1.29788 6.28251L1.29884 6.28169ZM1.24008 5.42634C0.877522 4.98895 0.671346 4.48753 0.671346 3.95519V0.871923H2.83767V1.21507H1.78389C1.59864 1.21507 1.44824 1.3237 1.44824 1.45751V3.95513C1.44824 4.46302 1.64346 4.9407 1.98212 5.35146C2.31081 5.75001 2.77694 6.08453 3.33271 6.31976C3.44526 6.5032 3.57474 6.67873 3.72015 6.84564C2.96118 6.6586 2.29286 6.34421 1.77793 5.94209C1.58271 5.78958 1.40941 5.62484 1.26101 5.44931C1.25503 5.4414 1.24806 5.43348 1.24109 5.42557L1.24008 5.42634ZM2.71118 8.5074V7.49091C2.71118 7.3571 2.56078 7.24848 2.37552 7.24848C2.19026 7.24848 2.03987 7.3571 2.03987 7.49091V8.5074C2.03987 8.64121 2.19026 8.74983 2.37552 8.74983C2.56078 8.74983 2.71118 8.64121 2.71118 8.5074ZM13.993 8.5074C13.993 8.64121 13.8426 8.74983 13.6573 8.74983C13.4721 8.74983 13.3217 8.64121 13.3217 8.5074V7.49091C13.3217 7.3571 13.4721 7.24848 13.6573 7.24848C13.8426 7.24848 13.993 7.3571 13.993 7.49091V8.5074Z" fill="white"/>
</svg>
