<svg width="24" height="24" viewBox="0 0 24 24" fill="none" xmlns="http://www.w3.org/2000/svg">
<path d="M13.0579 7.625V10.13H16.0029V10.92H13.0579V14H12.0879V6.835H16.5029V7.625H13.0579Z" fill="white"/>
<path d="M11.1729 16.55H16.8279V16.995H11.1729V16.55Z" fill="white"/>
<a href="https://www.facebook.com/profile.php?id=61552184172583">
<rect fill="black" fill-opacity="0" x="5.17285" y="2" width="5.655" height="12"/>
</a>
<circle cx="12" cy="12" r="12" fill="#FFA500"/>
<path fill-rule="evenodd" clip-rule="evenodd" d="M7.15184 10.6111C6.33704 10.6111 6.16699 10.7709 6.16699 11.537V12.9259C6.16699 13.6919 6.33704 13.8518 7.15184 13.8518H9.12154V19.4074C9.12154 20.1734 9.29159 20.3333 10.1064 20.3333H12.0761C12.8909 20.3333 13.0609 20.1734 13.0609 19.4074V13.8518H15.2726C15.8906 13.8518 16.0498 13.7389 16.2196 13.1803L16.6416 11.7914C16.9324 10.8344 16.7533 10.6111 15.6947 10.6111H13.0609V8.29626C13.0609 7.78488 13.5019 7.37033 14.0458 7.37033H16.8488C17.6636 7.37033 17.8337 7.21045 17.8337 6.4444V4.59255C17.8337 3.8265 17.6636 3.66663 16.8488 3.66663H14.0458C11.3262 3.66663 9.12154 5.73938 9.12154 8.29626V10.6111H7.15184Z" stroke="white" stroke-width="1.5" stroke-linejoin="round"/>
</svg>
