<svg width="160" height="94" viewBox="0 0 160 94" fill="none" xmlns="http://www.w3.org/2000/svg">
<path d="M1.13778 69V55.9091H3.90554V61.3104H9.52415V55.9091H12.2855V69H9.52415V63.5923H3.90554V69H1.13778ZM20.0639 69H17.098L21.6171 55.9091H25.1839L29.6967 69H26.7308L23.4516 58.9006H23.3494L20.0639 69ZM19.8785 63.8544H26.8842V66.0149H19.8785V63.8544ZM45.4619 55.9091V69H43.0713L37.376 60.7607H37.2801V69H34.5123V55.9091H36.9413L42.5919 64.142H42.7069V55.9091H45.4619ZM55.6293 69H50.9886V55.9091H55.6676C56.9844 55.9091 58.1179 56.1712 59.0682 56.6953C60.0185 57.2152 60.7493 57.9631 61.2607 58.9389C61.7763 59.9148 62.0341 61.0824 62.0341 62.4418C62.0341 63.8054 61.7763 64.9773 61.2607 65.9574C60.7493 66.9375 60.0142 67.6896 59.0554 68.2138C58.1009 68.7379 56.9588 69 55.6293 69ZM53.7564 66.6286H55.5142C56.3324 66.6286 57.0206 66.4837 57.5788 66.1939C58.1413 65.8999 58.5632 65.446 58.8445 64.8324C59.13 64.2145 59.2727 63.4176 59.2727 62.4418C59.2727 61.4744 59.13 60.6839 58.8445 60.0703C58.5632 59.4567 58.1435 59.005 57.5852 58.7152C57.027 58.4254 56.3388 58.2805 55.5206 58.2805H53.7564V66.6286ZM65.7663 55.9091H68.8664L71.8515 61.5469H71.9794L74.9644 55.9091H78.0646L73.2897 64.3722V69H70.5411V64.3722L65.7663 55.9091ZM82.8163 55.9091H86.2296L89.8348 64.7045H89.9882L93.5933 55.9091H97.0066V69H94.322V60.4794H94.2133L90.8255 68.9361H88.9974L85.6096 60.4474H85.501V69H82.8163V55.9091ZM104.783 69H101.817L106.337 55.9091H109.903L114.416 69H111.45L108.171 58.9006H108.069L104.783 69ZM104.598 63.8544H111.604V66.0149H104.598V63.8544ZM130.181 55.9091V69H127.791L122.095 60.7607H122V69H119.232V55.9091H121.661L127.311 64.142H127.426V55.9091H130.181Z" fill="white"/>
<path d="M46.4084 83.7464C46.3686 83.3454 46.1979 83.0339 45.8963 82.8118C45.5947 82.5897 45.1854 82.4787 44.6683 82.4787C44.317 82.4787 44.0204 82.5284 43.7784 82.6278C43.5365 82.724 43.3509 82.8582 43.2216 83.0305C43.0956 83.2029 43.0327 83.3984 43.0327 83.6172C43.026 83.7995 43.0642 83.9586 43.147 84.0945C43.2332 84.2304 43.3509 84.348 43.5 84.4474C43.6491 84.5436 43.8215 84.6281 44.017 84.701C44.2126 84.7706 44.4214 84.8303 44.6435 84.88L45.5582 85.0987C46.0024 85.1982 46.41 85.3307 46.7812 85.4964C47.1525 85.6622 47.474 85.866 47.7457 86.108C48.0175 86.3499 48.228 86.6349 48.3771 86.9631C48.5296 87.2912 48.6075 87.6674 48.6108 88.0916C48.6075 88.7147 48.4484 89.255 48.1335 89.7124C47.822 90.1664 47.3712 90.5194 46.7812 90.7713C46.1946 91.0199 45.487 91.1442 44.6584 91.1442C43.8364 91.1442 43.1205 91.0182 42.5107 90.7663C41.9041 90.5144 41.4302 90.1416 41.0888 89.6477C40.7507 89.1506 40.5734 88.5357 40.5568 87.8033H42.6399C42.6631 88.1446 42.7609 88.4297 42.9332 88.6584C43.1089 88.8838 43.3426 89.0545 43.6342 89.1705C43.9292 89.2831 44.2623 89.3395 44.6335 89.3395C44.9981 89.3395 45.3146 89.2865 45.5831 89.1804C45.8549 89.0743 46.0653 88.9268 46.2145 88.7379C46.3636 88.549 46.4382 88.3319 46.4382 88.0866C46.4382 87.858 46.3703 87.6657 46.2344 87.5099C46.1018 87.3542 45.9063 87.2216 45.6477 87.1122C45.3925 87.0028 45.0793 86.9034 44.7081 86.8139L43.5994 86.5355C42.741 86.3267 42.0632 86.0002 41.5661 85.5561C41.0689 85.112 40.822 84.5137 40.8253 83.7614C40.822 83.1449 40.986 82.6063 41.3175 82.1456C41.6522 81.6849 42.1113 81.3253 42.6946 81.0668C43.2779 80.8082 43.9408 80.679 44.6832 80.679C45.4389 80.679 46.0985 80.8082 46.6619 81.0668C47.2287 81.3253 47.6695 81.6849 47.9844 82.1456C48.2992 82.6063 48.4616 83.1399 48.4716 83.7464H46.4084ZM52.5788 91V80.8182H59.4396V82.593H54.7315V85.0192H59.0866V86.794H54.7315V89.2251H59.4595V91H52.5788ZM63.671 91V80.8182H67.6881C68.457 80.8182 69.1133 80.9557 69.6568 81.2308C70.2037 81.5026 70.6197 81.8887 70.9047 82.3892C71.1931 82.8864 71.3372 83.4714 71.3372 84.1442C71.3372 84.8203 71.1914 85.402 70.8997 85.8892C70.6081 86.3731 70.1855 86.7443 69.632 87.0028C69.0818 87.2614 68.4156 87.3906 67.6334 87.3906H64.9438V85.6605H67.2854C67.6964 85.6605 68.0378 85.6042 68.3095 85.4915C68.5813 85.3788 68.7835 85.2098 68.9161 84.9844C69.052 84.759 69.1199 84.4789 69.1199 84.1442C69.1199 83.8061 69.052 83.5211 68.9161 83.2891C68.7835 83.0571 68.5797 82.8814 68.3046 82.7621C68.0328 82.6394 67.6897 82.5781 67.2754 82.5781H65.8237V91H63.671ZM69.1696 86.3665L71.7002 91H69.3237L66.8479 86.3665H69.1696ZM76.9446 80.8182L79.4055 88.554H79.5L81.9659 80.8182H84.3523L80.8423 91H78.0682L74.5533 80.8182H76.9446ZM90.2505 80.8182V91H88.0978V80.8182H90.2505ZM103.525 84.3828H101.348C101.308 84.1011 101.227 83.8509 101.104 83.6321C100.981 83.41 100.824 83.2211 100.632 83.0653C100.44 82.9096 100.217 82.7902 99.9656 82.7074C99.717 82.6245 99.4469 82.5831 99.1552 82.5831C98.6282 82.5831 98.1692 82.714 97.7781 82.9759C97.387 83.2344 97.0837 83.6122 96.8683 84.1094C96.6529 84.6032 96.5451 85.2031 96.5451 85.9091C96.5451 86.6349 96.6529 87.2448 96.8683 87.7386C97.087 88.2325 97.392 88.6054 97.7831 88.8572C98.1742 89.1091 98.6266 89.2351 99.1403 89.2351C99.4287 89.2351 99.6955 89.197 99.9407 89.1207C100.189 89.0445 100.41 88.9335 100.602 88.7876C100.794 88.6385 100.953 88.4579 101.079 88.2457C101.208 88.0336 101.298 87.7917 101.348 87.5199L103.525 87.5298C103.469 87.9972 103.328 88.4479 103.103 88.8821C102.881 89.313 102.581 89.6991 102.203 90.0405C101.828 90.3786 101.381 90.647 100.86 90.8459C100.343 91.0414 99.7584 91.1392 99.1055 91.1392C98.1974 91.1392 97.3853 90.9337 96.6694 90.5227C95.9568 90.1117 95.3934 89.5168 94.9791 88.7379C94.5681 87.959 94.3626 87.0161 94.3626 85.9091C94.3626 84.7988 94.5714 83.8542 94.989 83.0753C95.4066 82.2964 95.9734 81.7031 96.6893 81.2955C97.4052 80.8845 98.2106 80.679 99.1055 80.679C99.6955 80.679 100.242 80.7618 100.746 80.9276C101.253 81.0933 101.702 81.3352 102.093 81.6534C102.485 81.9683 102.803 82.3544 103.048 82.8118C103.297 83.2692 103.456 83.7929 103.525 84.3828ZM107.589 91V80.8182H114.45V82.593H109.742V85.0192H114.097V86.794H109.742V89.2251H114.47V91H107.589ZM124.205 83.7464C124.165 83.3454 123.994 83.0339 123.693 82.8118C123.391 82.5897 122.982 82.4787 122.465 82.4787C122.113 82.4787 121.817 82.5284 121.575 82.6278C121.333 82.724 121.147 82.8582 121.018 83.0305C120.892 83.2029 120.829 83.3984 120.829 83.6172C120.822 83.7995 120.86 83.9586 120.943 84.0945C121.029 84.2304 121.147 84.348 121.296 84.4474C121.445 84.5436 121.618 84.6281 121.813 84.701C122.009 84.7706 122.218 84.8303 122.44 84.88L123.354 85.0987C123.799 85.1982 124.206 85.3307 124.577 85.4964C124.949 85.6622 125.27 85.866 125.542 86.108C125.814 86.3499 126.024 86.6349 126.173 86.9631C126.326 87.2912 126.404 87.6674 126.407 88.0916C126.404 88.7147 126.245 89.255 125.93 89.7124C125.618 90.1664 125.167 90.5194 124.577 90.7713C123.991 91.0199 123.283 91.1442 122.455 91.1442C121.633 91.1442 120.917 91.0182 120.307 90.7663C119.7 90.5144 119.226 90.1416 118.885 89.6477C118.547 89.1506 118.37 88.5357 118.353 87.8033H120.436C120.459 88.1446 120.557 88.4297 120.729 88.6584C120.905 88.8838 121.139 89.0545 121.43 89.1705C121.725 89.2831 122.059 89.3395 122.43 89.3395C122.794 89.3395 123.111 89.2865 123.379 89.1804C123.651 89.0743 123.862 88.9268 124.011 88.7379C124.16 88.549 124.234 88.3319 124.234 88.0866C124.234 87.858 124.167 87.6657 124.031 87.5099C123.898 87.3542 123.702 87.2216 123.444 87.1122C123.189 87.0028 122.876 86.9034 122.504 86.8139L121.396 86.5355C120.537 86.3267 119.859 86.0002 119.362 85.5561C118.865 85.112 118.618 84.5137 118.622 83.7614C118.618 83.1449 118.782 82.6063 119.114 82.1456C119.448 81.6849 119.908 81.3253 120.491 81.0668C121.074 80.8082 121.737 80.679 122.479 80.679C123.235 80.679 123.895 80.8082 124.458 81.0668C125.025 81.3253 125.466 81.6849 125.781 82.1456C126.095 82.6063 126.258 83.1399 126.268 83.7464H124.205Z" fill="white"/>
<path d="M0.880682 45V33.3636H5.6875C6.55871 33.3636 7.31061 33.5341 7.94318 33.875C8.57955 34.2121 9.07008 34.6837 9.41477 35.2898C9.75947 35.892 9.93182 36.5928 9.93182 37.392C9.93182 38.1951 9.75568 38.8977 9.40341 39.5C9.05492 40.0985 8.55682 40.5625 7.90909 40.892C7.26136 41.2216 6.49242 41.3864 5.60227 41.3864H2.63636V39.1705H5.07955C5.50379 39.1705 5.85795 39.0966 6.14205 38.9489C6.42992 38.8011 6.64773 38.5947 6.79545 38.3295C6.94318 38.0606 7.01705 37.7481 7.01705 37.392C7.01705 37.0322 6.94318 36.7216 6.79545 36.4602C6.64773 36.1951 6.42992 35.9905 6.14205 35.8466C5.85417 35.7027 5.5 35.6307 5.07955 35.6307H3.69318V45H0.880682ZM14.1982 45V33.3636H19.005C19.8762 33.3636 20.6281 33.5208 21.2607 33.8352C21.897 34.1458 22.3876 34.5928 22.7323 35.1761C23.077 35.7557 23.2493 36.4432 23.2493 37.2386C23.2493 38.0455 23.0732 38.7311 22.7209 39.2955C22.3686 39.8561 21.8686 40.2841 21.2209 40.5795C20.5732 40.8712 19.8061 41.017 18.9198 41.017H15.88V38.8011H18.397C18.8213 38.8011 19.1755 38.7462 19.4595 38.6364C19.7474 38.5227 19.9652 38.3523 20.113 38.125C20.2607 37.8939 20.3345 37.5985 20.3345 37.2386C20.3345 36.8788 20.2607 36.5814 20.113 36.3466C19.9652 36.108 19.7474 35.9299 19.4595 35.8125C19.1717 35.6913 18.8175 35.6307 18.397 35.6307H17.0107V45H14.1982ZM20.7493 39.6818L23.647 45H20.5789L17.738 39.6818H20.7493ZM30.4844 33.3636V45H27.6719V33.3636H30.4844ZM45.0335 33.3636V45H42.6471L38.0164 38.2841H37.9426V45H35.1301V33.3636H37.5505L42.1301 40.0682H42.2266V33.3636H45.0335ZM60.2444 37.5795H57.4035C57.3656 37.2879 57.288 37.0246 57.1706 36.7898C57.0531 36.5549 56.8978 36.3542 56.7047 36.1875C56.5115 36.0208 56.2823 35.8939 56.0172 35.8068C55.7558 35.7159 55.466 35.6705 55.1478 35.6705C54.5834 35.6705 54.0967 35.8087 53.6876 36.0852C53.2823 36.3617 52.9698 36.7614 52.7501 37.2841C52.5342 37.8068 52.4263 38.4394 52.4263 39.1818C52.4263 39.9545 52.5361 40.6023 52.7558 41.125C52.9793 41.6439 53.2918 42.036 53.6933 42.3011C54.0986 42.5625 54.5778 42.6932 55.1308 42.6932C55.4414 42.6932 55.7236 42.6534 55.9774 42.5739C56.235 42.4943 56.4603 42.3788 56.6535 42.2273C56.8505 42.072 57.0115 41.8845 57.1365 41.6648C57.2653 41.4413 57.3543 41.1894 57.4035 40.9091L60.2444 40.9261C60.1952 41.4413 60.0456 41.9489 59.7956 42.4489C59.5494 42.9489 59.2103 43.4053 58.7785 43.8182C58.3467 44.2273 57.8202 44.553 57.199 44.7955C56.5816 45.0379 55.8732 45.1591 55.074 45.1591C54.0209 45.1591 53.0778 44.928 52.2444 44.4659C51.4149 44 50.7596 43.322 50.2785 42.4318C49.7975 41.5417 49.5569 40.4583 49.5569 39.1818C49.5569 37.9015 49.8013 36.8163 50.2899 35.9261C50.7785 35.036 51.4395 34.3598 52.2728 33.8977C53.1062 33.4356 54.0399 33.2045 55.074 33.2045C55.7785 33.2045 56.43 33.303 57.0285 33.5C57.627 33.6932 58.1535 33.9773 58.6081 34.3523C59.0626 34.7235 59.4319 35.1799 59.716 35.7216C60.0001 36.2633 60.1763 36.8826 60.2444 37.5795ZM64.7338 45V33.3636H72.8474V35.6477H67.5463V38.0341H72.4327V40.3239H67.5463V42.7159H72.8474V45H64.7338Z" fill="#FFA500"/>
<path d="M93.8212 44.1675V41.169H87L96.5866 28.108V5H108.754V16.3865L119.816 5L153 42.5086H144.888V88H128.462" stroke="#FFA500" stroke-width="6"/>
<line y1="87" x2="35" y2="87" stroke="#FFA500" stroke-width="6"/>
</svg>
