<svg width="81" height="48" viewBox="0 0 81 48" fill="none" xmlns="http://www.w3.org/2000/svg">
<path d="M0.632102 36.5V29.2273H2.16974V32.228H5.29119V29.2273H6.82528V36.5H5.29119V33.4957H2.16974V36.5H0.632102ZM10.2466 36.5H8.59886L11.1095 29.2273H13.0911L15.5982 36.5H13.9504L12.1287 30.8892H12.0719L10.2466 36.5ZM10.1436 33.6413H14.0357V34.8416H10.1436V33.6413ZM23.4566 29.2273V36.5H22.1285L18.9644 31.9226H18.9111V36.5H17.3735V29.2273H18.7229L21.8621 33.8011H21.9261V29.2273H23.4566ZM28.2052 36.5H25.627V29.2273H28.2265C28.958 29.2273 29.5877 29.3729 30.1157 29.6641C30.6436 29.9529 31.0496 30.3684 31.3337 30.9105C31.6202 31.4527 31.7634 32.1013 31.7634 32.8565C31.7634 33.6141 31.6202 34.2652 31.3337 34.8097C31.0496 35.3542 30.6412 35.772 30.1086 36.0632C29.5783 36.3544 28.9438 36.5 28.2052 36.5ZM27.1647 35.1825H28.1412C28.5958 35.1825 28.9781 35.102 29.2882 34.9411C29.6007 34.7777 29.8351 34.5256 29.9914 34.1847C30.15 33.8414 30.2293 33.3987 30.2293 32.8565C30.2293 32.3191 30.15 31.88 29.9914 31.5391C29.8351 31.1982 29.6019 30.9472 29.2918 30.7862C28.9817 30.6252 28.5993 30.5447 28.1448 30.5447H27.1647V35.1825ZM32.9368 29.2273H34.6591L36.3175 32.3594H36.3885L38.0469 29.2273H39.7692L37.1165 33.929V36.5H35.5895V33.929L32.9368 29.2273ZM41.5091 29.2273H43.4054L45.4082 34.1136H45.4934L47.4963 29.2273H49.3926V36.5H47.9011V31.7663H47.8407L45.9586 36.4645H44.943L43.0609 31.7486H43.0005V36.5H41.5091V29.2273ZM52.813 36.5H51.1653L53.6759 29.2273H55.6575L58.1646 36.5H56.5168L54.6951 30.8892H54.6383L52.813 36.5ZM52.71 33.6413H56.6021V34.8416H52.71V33.6413ZM66.023 29.2273V36.5H64.6949L61.5308 31.9226H61.4776V36.5H59.9399V29.2273H61.2893L64.4286 33.8011H64.4925V29.2273H66.023Z" fill="white"/>
<path d="M27.2042 42.8732C27.1843 42.6727 27.099 42.5169 26.9482 42.4059C26.7973 42.2949 26.5927 42.2393 26.3342 42.2393C26.1585 42.2393 26.0102 42.2642 25.8892 42.3139C25.7682 42.362 25.6754 42.4291 25.6108 42.5153C25.5478 42.6014 25.5163 42.6992 25.5163 42.8086C25.513 42.8997 25.5321 42.9793 25.5735 43.0472C25.6166 43.1152 25.6754 43.174 25.75 43.2237C25.8246 43.2718 25.9107 43.314 26.0085 43.3505C26.1063 43.3853 26.2107 43.4151 26.3217 43.44L26.7791 43.5494C27.0012 43.5991 27.205 43.6654 27.3906 43.7482C27.5762 43.8311 27.737 43.933 27.8729 44.054C28.0088 44.175 28.114 44.3175 28.1886 44.4815C28.2648 44.6456 28.3037 44.8337 28.3054 45.0458C28.3037 45.3574 28.2242 45.6275 28.0668 45.8562C27.911 46.0832 27.6856 46.2597 27.3906 46.3857C27.0973 46.5099 26.7435 46.5721 26.3292 46.5721C25.9182 46.5721 25.5603 46.5091 25.2553 46.3832C24.9521 46.2572 24.7151 46.0708 24.5444 45.8239C24.3754 45.5753 24.2867 45.2679 24.2784 44.9016H25.32C25.3316 45.0723 25.3804 45.2148 25.4666 45.3292C25.5545 45.4419 25.6713 45.5272 25.8171 45.5852C25.9646 45.6416 26.1312 45.6697 26.3168 45.6697C26.4991 45.6697 26.6573 45.6432 26.7915 45.5902C26.9274 45.5372 27.0327 45.4634 27.1072 45.369C27.1818 45.2745 27.2191 45.166 27.2191 45.0433C27.2191 44.929 27.1851 44.8329 27.1172 44.755C27.0509 44.6771 26.9531 44.6108 26.8239 44.5561C26.6963 44.5014 26.5397 44.4517 26.354 44.407L25.7997 44.2678C25.3705 44.1634 25.0316 44.0001 24.783 43.7781C24.5344 43.556 24.411 43.2569 24.4126 42.8807C24.411 42.5724 24.493 42.3031 24.6587 42.0728C24.8261 41.8424 25.0556 41.6626 25.3473 41.5334C25.639 41.4041 25.9704 41.3395 26.3416 41.3395C26.7195 41.3395 27.0492 41.4041 27.331 41.5334C27.6143 41.6626 27.8348 41.8424 27.9922 42.0728C28.1496 42.3031 28.2308 42.57 28.2358 42.8732H27.2042ZM29.5894 46.5V41.4091H33.0198V42.2965H30.6657V43.5096H32.8433V44.397H30.6657V45.6126H33.0297V46.5H29.5894ZM34.4355 46.5V41.4091H36.444C36.8285 41.4091 37.1566 41.4779 37.4284 41.6154C37.7019 41.7513 37.9098 41.9444 38.0524 42.1946C38.1965 42.4432 38.2686 42.7357 38.2686 43.0721C38.2686 43.4102 38.1957 43.701 38.0499 43.9446C37.904 44.1866 37.6927 44.3722 37.416 44.5014C37.1409 44.6307 36.8078 44.6953 36.4167 44.6953H35.0719V43.8303H36.2427C36.4482 43.8303 36.6189 43.8021 36.7548 43.7457C36.8907 43.6894 36.9917 43.6049 37.058 43.4922C37.126 43.3795 37.16 43.2395 37.16 43.0721C37.16 42.9031 37.126 42.7605 37.058 42.6445C36.9917 42.5285 36.8898 42.4407 36.7523 42.381C36.6164 42.3197 36.4449 42.2891 36.2377 42.2891H35.5119V46.5H34.4355ZM37.1848 44.1832L38.4501 46.5H37.2619L36.0239 44.1832H37.1848ZM40.3723 41.4091L41.6028 45.277H41.65L42.8829 41.4091H44.0761L42.3212 46.5H40.9341L39.1766 41.4091H40.3723ZM46.3252 41.4091V46.5H45.2489V41.4091H46.3252ZM52.2626 43.1914H51.1738C51.154 43.0505 51.1134 42.9254 51.052 42.8161C50.9907 42.705 50.912 42.6106 50.8159 42.5327C50.7198 42.4548 50.6087 42.3951 50.4828 42.3537C50.3585 42.3123 50.2234 42.2915 50.0776 42.2915C49.8141 42.2915 49.5846 42.357 49.389 42.4879C49.1935 42.6172 49.0419 42.8061 48.9341 43.0547C48.8264 43.3016 48.7726 43.6016 48.7726 43.9545C48.7726 44.3175 48.8264 44.6224 48.9341 44.8693C49.0435 45.1162 49.196 45.3027 49.3915 45.4286C49.5871 45.5546 49.8133 45.6175 50.0702 45.6175C50.2143 45.6175 50.3477 45.5985 50.4704 45.5604C50.5947 45.5223 50.7049 45.4667 50.801 45.3938C50.8971 45.3192 50.9766 45.2289 51.0396 45.1229C51.1042 45.0168 51.149 44.8958 51.1738 44.7599L52.2626 44.7649C52.2345 44.9986 52.164 45.224 52.0513 45.4411C51.9403 45.6565 51.7903 45.8496 51.6014 46.0202C51.4141 46.1893 51.1904 46.3235 50.9302 46.4229C50.6717 46.5207 50.3792 46.5696 50.0528 46.5696C49.5987 46.5696 49.1927 46.4669 48.8347 46.2614C48.4784 46.0559 48.1967 45.7584 47.9895 45.369C47.784 44.9795 47.6813 44.508 47.6813 43.9545C47.6813 43.3994 47.7857 42.9271 47.9945 42.5376C48.2033 42.1482 48.4867 41.8516 48.8447 41.6477C49.2026 41.4422 49.6053 41.3395 50.0528 41.3395C50.3477 41.3395 50.6212 41.3809 50.8731 41.4638C51.1266 41.5466 51.3512 41.6676 51.5467 41.8267C51.7423 41.9841 51.9014 42.1772 52.024 42.4059C52.1483 42.6346 52.2278 42.8964 52.2626 43.1914ZM53.5945 46.5V41.4091H57.0249V42.2965H54.6708V43.5096H56.8484V44.397H54.6708V45.6126H57.0348V46.5H53.5945ZM61.2023 42.8732C61.1824 42.6727 61.0971 42.5169 60.9463 42.4059C60.7955 42.2949 60.5908 42.2393 60.3323 42.2393C60.1566 42.2393 60.0083 42.2642 59.8873 42.3139C59.7664 42.362 59.6735 42.4291 59.6089 42.5153C59.5459 42.6014 59.5145 42.6992 59.5145 42.8086C59.5111 42.8997 59.5302 42.9793 59.5716 43.0472C59.6147 43.1152 59.6735 43.174 59.7481 43.2237C59.8227 43.2718 59.9089 43.314 60.0066 43.3505C60.1044 43.3853 60.2088 43.4151 60.3199 43.44L60.7772 43.5494C60.9993 43.5991 61.2031 43.6654 61.3887 43.7482C61.5744 43.8311 61.7351 43.933 61.871 44.054C62.0069 44.175 62.1121 44.3175 62.1867 44.4815C62.2629 44.6456 62.3019 44.8337 62.3035 45.0458C62.3019 45.3574 62.2223 45.6275 62.0649 45.8562C61.9091 46.0832 61.6837 46.2597 61.3887 46.3857C61.0954 46.5099 60.7416 46.5721 60.3273 46.5721C59.9163 46.5721 59.5584 46.5091 59.2534 46.3832C58.9502 46.2572 58.7132 46.0708 58.5425 45.8239C58.3735 45.5753 58.2848 45.2679 58.2765 44.9016H59.3181C59.3297 45.0723 59.3786 45.2148 59.4647 45.3292C59.5526 45.4419 59.6694 45.5272 59.8152 45.5852C59.9627 45.6416 60.1293 45.6697 60.3149 45.6697C60.4972 45.6697 60.6554 45.6432 60.7897 45.5902C60.9256 45.5372 61.0308 45.4634 61.1054 45.369C61.1799 45.2745 61.2172 45.166 61.2172 45.0433C61.2172 44.929 61.1833 44.8329 61.1153 44.755C61.049 44.6771 60.9512 44.6108 60.822 44.5561C60.6944 44.5014 60.5378 44.4517 60.3522 44.407L59.7978 44.2678C59.3686 44.1634 59.0297 44.0001 58.7811 43.7781C58.5326 43.556 58.4091 43.2569 58.4108 42.8807C58.4091 42.5724 58.4911 42.3031 58.6569 42.0728C58.8242 41.8424 59.0538 41.6626 59.3454 41.5334C59.6371 41.4041 59.9685 41.3395 60.3397 41.3395C60.7176 41.3395 61.0474 41.4041 61.3291 41.5334C61.6125 41.6626 61.8329 41.8424 61.9903 42.0728C62.1477 42.3031 62.2289 42.57 62.2339 42.8732H61.2023Z" fill="white"/>
<path d="M0.495384 23.5V16.9545H3.19922C3.68928 16.9545 4.11222 17.0504 4.46804 17.2422C4.82599 17.4318 5.10192 17.6971 5.29581 18.038C5.4897 18.3768 5.58665 18.771 5.58665 19.2205C5.58665 19.6722 5.48757 20.0675 5.28942 20.4062C5.09339 20.7429 4.81321 21.0039 4.44886 21.1893C4.08452 21.3746 3.65199 21.4673 3.15128 21.4673H1.48295V20.2209H2.85724C3.09588 20.2209 3.2951 20.1793 3.4549 20.0962C3.61683 20.0131 3.73935 19.897 3.82244 19.7479C3.90554 19.5966 3.94709 19.4208 3.94709 19.2205C3.94709 19.0181 3.90554 18.8434 3.82244 18.6964C3.73935 18.5472 3.61683 18.4322 3.4549 18.3512C3.29297 18.2702 3.09375 18.2298 2.85724 18.2298H2.07741V23.5H0.495384ZM7.98648 23.5V16.9545H10.6903C11.1804 16.9545 11.6033 17.043 11.9591 17.2198C12.3171 17.3945 12.593 17.646 12.7869 17.9741C12.9808 18.3001 13.0777 18.6868 13.0777 19.1342C13.0777 19.5881 12.9787 19.9737 12.7805 20.2912C12.5824 20.6065 12.3011 20.8473 11.9368 21.0135C11.5724 21.1776 11.141 21.2596 10.6424 21.2596H8.9325V20.0131H10.3483C10.587 20.0131 10.7862 19.9822 10.946 19.9205C11.1079 19.8565 11.2304 19.7607 11.3135 19.6328C11.3966 19.5028 11.4382 19.3366 11.4382 19.1342C11.4382 18.9318 11.3966 18.7646 11.3135 18.6325C11.2304 18.4982 11.1079 18.3981 10.946 18.332C10.7841 18.2638 10.5848 18.2298 10.3483 18.2298H9.56851V23.5H7.98648ZM11.6715 20.5085L13.3015 23.5H11.5756L9.9776 20.5085H11.6715ZM17.1475 16.9545V23.5H15.5655V16.9545H17.1475ZM25.3313 16.9545V23.5H23.989L21.3842 19.7223H21.3427V23.5H19.7607V16.9545H21.1222L23.6982 20.7259H23.7525V16.9545H25.3313ZM33.8875 19.326H32.2895C32.2682 19.1619 32.2245 19.0138 32.1584 18.8817C32.0924 18.7496 32.005 18.6367 31.8964 18.543C31.7877 18.4492 31.6588 18.3778 31.5097 18.3288C31.3626 18.2777 31.1996 18.2521 31.0207 18.2521C30.7032 18.2521 30.4294 18.3299 30.1993 18.4854C29.9713 18.641 29.7955 18.8658 29.6719 19.1598C29.5505 19.4538 29.4898 19.8097 29.4898 20.2273C29.4898 20.6619 29.5516 21.0263 29.6751 21.3203C29.8008 21.6122 29.9766 21.8327 30.2025 21.9819C30.4305 22.1289 30.7 22.2024 31.0111 22.2024C31.1858 22.2024 31.3445 22.18 31.4873 22.1353C31.6322 22.0906 31.7589 22.0256 31.8676 21.9403C31.9784 21.853 32.069 21.7475 32.1393 21.6239C32.2117 21.4982 32.2618 21.3565 32.2895 21.1989L33.8875 21.2085C33.8598 21.4982 33.7756 21.7837 33.635 22.065C33.4965 22.3462 33.3058 22.603 33.0629 22.8352C32.82 23.0653 32.5239 23.2486 32.1744 23.3849C31.8271 23.5213 31.4287 23.5895 30.9791 23.5895C30.3868 23.5895 29.8562 23.4595 29.3875 23.1996C28.9209 22.9375 28.5523 22.5561 28.2817 22.0554C28.0111 21.5547 27.8758 20.9453 27.8758 20.2273C27.8758 19.5071 28.0132 18.8967 28.2881 18.396C28.5629 17.8952 28.9347 17.5149 29.4035 17.255C29.8722 16.995 30.3974 16.8651 30.9791 16.8651C31.3754 16.8651 31.7419 16.9205 32.0785 17.0312C32.4152 17.1399 32.7114 17.2997 32.967 17.5107C33.2227 17.7195 33.4305 17.9762 33.5903 18.2809C33.7501 18.5856 33.8491 18.9339 33.8875 19.326ZM36.4128 23.5V16.9545H40.9767V18.2393H37.9948V19.5817H40.7434V20.8697H37.9948V22.2152H40.9767V23.5H36.4128Z" fill="#FFA500"/>
<path d="M47.4106 22.3047V20.8024H44L48.7933 14.1932V2.5H54.8771V8.26186L60.4078 2.5L77 21.4803H72.9441V44.5H64.7308" stroke="#FFA500" stroke-width="3"/>
<path d="M0.5 45L22 45" stroke="#FFA500" stroke-width="3"/>
</svg>
