<svg width="24" height="24" viewBox="0 0 24 24" fill="none" xmlns="http://www.w3.org/2000/svg">
<path d="M15.8652 7.955C15.8352 8.005 15.8018 8.04333 15.7652 8.07C15.7318 8.09333 15.6902 8.105 15.6402 8.105C15.5835 8.105 15.5168 8.07667 15.4402 8.02C15.3635 7.96333 15.2668 7.90167 15.1502 7.835C15.0368 7.765 14.8985 7.70167 14.7352 7.645C14.5752 7.58833 14.3802 7.56 14.1502 7.56C13.9335 7.56 13.7418 7.59 13.5752 7.65C13.4118 7.70667 13.2735 7.785 13.1602 7.885C13.0502 7.985 12.9668 8.10333 12.9102 8.24C12.8535 8.37333 12.8252 8.51833 12.8252 8.675C12.8252 8.875 12.8735 9.04167 12.9702 9.175C13.0702 9.305 13.2002 9.41667 13.3602 9.51C13.5235 9.60333 13.7068 9.685 13.9102 9.755C14.1168 9.82167 14.3268 9.89167 14.5402 9.965C14.7568 10.0383 14.9668 10.1217 15.1702 10.215C15.3768 10.305 15.5602 10.42 15.7202 10.56C15.8835 10.7 16.0135 10.8717 16.1102 11.075C16.2102 11.2783 16.2602 11.5283 16.2602 11.825C16.2602 12.1383 16.2068 12.4333 16.1002 12.71C15.9935 12.9833 15.8368 13.2217 15.6302 13.425C15.4268 13.6283 15.1752 13.7883 14.8752 13.905C14.5785 14.0217 14.2402 14.08 13.8602 14.08C13.3935 14.08 12.9702 13.9967 12.5902 13.83C12.2102 13.66 11.8852 13.4317 11.6152 13.145L11.8952 12.685C11.9218 12.6483 11.9535 12.6183 11.9902 12.595C12.0302 12.5683 12.0735 12.555 12.1202 12.555C12.1635 12.555 12.2118 12.5733 12.2652 12.61C12.3218 12.6433 12.3852 12.6867 12.4552 12.74C12.5252 12.7933 12.6052 12.8517 12.6952 12.915C12.7852 12.9783 12.8868 13.0367 13.0002 13.09C13.1168 13.1433 13.2485 13.1883 13.3952 13.225C13.5418 13.2583 13.7068 13.275 13.8902 13.275C14.1202 13.275 14.3252 13.2433 14.5052 13.18C14.6852 13.1167 14.8368 13.0283 14.9602 12.915C15.0868 12.7983 15.1835 12.66 15.2502 12.5C15.3168 12.34 15.3502 12.1617 15.3502 11.965C15.3502 11.7483 15.3002 11.5717 15.2002 11.435C15.1035 11.295 14.9752 11.1783 14.8152 11.085C14.6552 10.9917 14.4718 10.9133 14.2652 10.85C14.0585 10.7833 13.8485 10.7167 13.6352 10.65C13.4218 10.58 13.2118 10.5 13.0052 10.41C12.7985 10.32 12.6152 10.2033 12.4552 10.06C12.2952 9.91667 12.1652 9.73833 12.0652 9.525C11.9685 9.30833 11.9202 9.04167 11.9202 8.725C11.9202 8.47167 11.9685 8.22667 12.0652 7.99C12.1652 7.75333 12.3085 7.54333 12.4952 7.36C12.6852 7.17667 12.9168 7.03 13.1902 6.92C13.4668 6.81 13.7835 6.755 14.1402 6.755C14.5402 6.755 14.9035 6.81833 15.2302 6.945C15.5602 7.07167 15.8502 7.255 16.1002 7.495L15.8652 7.955Z" fill="white"/>
<path d="M11.2852 16.55H16.7102V16.995H11.2852V16.55Z" fill="white"/>
<a href="https://www.instagram.com/prince_handyman_services?igsh=MWJvcHhsNnowY3lqdQ%3D%3D&#38;utm_source=qr">
<rect fill="black" fill-opacity="0" x="5.28516" y="2" width="5.425" height="12"/>
</a>
<circle cx="12" cy="12" r="12" fill="#FFA500"/>
<path d="M4.08301 12C4.08301 8.26809 4.08301 6.40211 5.24238 5.24274C6.40175 4.08337 8.26772 4.08337 11.9997 4.08337C15.7316 4.08337 17.5976 4.08337 18.757 5.24274C19.9163 6.40211 19.9163 8.26809 19.9163 12C19.9163 15.732 19.9163 17.598 18.757 18.7573C17.5976 19.9167 15.7316 19.9167 11.9997 19.9167C8.26772 19.9167 6.40175 19.9167 5.24238 18.7573C4.08301 17.598 4.08301 15.732 4.08301 12Z" stroke="white" stroke-width="1.5" stroke-linejoin="round"/>
<path d="M15.75 12C15.75 14.0711 14.0711 15.75 12 15.75C9.92893 15.75 8.25 14.0711 8.25 12C8.25 9.92893 9.92893 8.25 12 8.25C14.0711 8.25 15.75 9.92893 15.75 12Z" stroke="white" stroke-width="1.5"/>
<path d="M16.5898 7.41669L16.5824 7.41669" stroke="white" stroke-width="2" stroke-linecap="round" stroke-linejoin="round"/>
</svg>
