<svg width="76" height="44" viewBox="0 0 76 44" fill="none" xmlns="http://www.w3.org/2000/svg">
<path opacity="0.7" d="M0.632102 33V25.7273H2.16974V28.728H5.29119V25.7273H6.82528V33H5.29119V29.9957H2.16974V33H0.632102ZM10.0466 33H8.39886L10.9095 25.7273H12.8911L15.3982 33H13.7504L11.9287 27.3892H11.8719L10.0466 33ZM9.94361 30.1413H13.8357V31.3416H9.94361V30.1413ZM23.0566 25.7273V33H21.7285L18.5644 28.4226H18.5112V33H16.9735V25.7273H18.3229L21.4621 30.3011H21.5261V25.7273H23.0566ZM27.6051 33H25.027V25.7273H27.6265C28.358 25.7273 28.9877 25.8729 29.5157 26.1641C30.0436 26.4529 30.4496 26.8684 30.7337 27.4105C31.0202 27.9527 31.1634 28.6013 31.1634 29.3565C31.1634 30.1141 31.0202 30.7652 30.7337 31.3097C30.4496 31.8542 30.0412 32.272 29.5086 32.5632C28.9783 32.8544 28.3438 33 27.6051 33ZM26.5647 31.6825H27.5412C27.9958 31.6825 28.3781 31.602 28.6882 31.4411C29.0007 31.2777 29.2351 31.0256 29.3914 30.6847C29.55 30.3414 29.6293 29.8987 29.6293 29.3565C29.6293 28.8191 29.55 28.38 29.3914 28.0391C29.2351 27.6982 29.0019 27.4472 28.6918 27.2862C28.3817 27.1252 27.9993 27.0447 27.5448 27.0447H26.5647V31.6825ZM32.1368 25.7273H33.8591L35.5175 28.8594H35.5885L37.2469 25.7273H38.9692L36.3165 30.429V33H34.7895V30.429L32.1368 25.7273ZM40.5091 25.7273H42.4054L44.4082 30.6136H44.4934L46.4963 25.7273H48.3926V33H46.9011V28.2663H46.8407L44.9586 32.9645H43.943L42.0609 28.2486H42.0005V33H40.5091V25.7273ZM51.613 33H49.9653L52.4759 25.7273H54.4575L56.9646 33H55.3168L53.4951 27.3892H53.4383L51.613 33ZM51.51 30.1413H55.4021V31.3416H51.51V30.1413ZM64.623 25.7273V33H63.2949L60.1308 28.4226H60.0776V33H58.5399V25.7273H59.8893L63.0286 30.3011H63.0925V25.7273H64.623Z" fill="#272727"/>
<path d="M24.2042 39.3732C24.1843 39.1727 24.099 39.0169 23.9482 38.9059C23.7973 38.7949 23.5927 38.7393 23.3342 38.7393C23.1585 38.7393 23.0102 38.7642 22.8892 38.8139C22.7682 38.862 22.6754 38.9291 22.6108 39.0153C22.5478 39.1014 22.5163 39.1992 22.5163 39.3086C22.513 39.3997 22.5321 39.4793 22.5735 39.5472C22.6166 39.6152 22.6754 39.674 22.75 39.7237C22.8246 39.7718 22.9107 39.814 23.0085 39.8505C23.1063 39.8853 23.2107 39.9151 23.3217 39.94L23.7791 40.0494C24.0012 40.0991 24.205 40.1654 24.3906 40.2482C24.5762 40.3311 24.737 40.433 24.8729 40.554C25.0088 40.675 25.114 40.8175 25.1886 40.9815C25.2648 41.1456 25.3037 41.3337 25.3054 41.5458C25.3037 41.8574 25.2242 42.1275 25.0668 42.3562C24.911 42.5832 24.6856 42.7597 24.3906 42.8857C24.0973 43.0099 23.7435 43.0721 23.3292 43.0721C22.9182 43.0721 22.5603 43.0091 22.2553 42.8832C21.9521 42.7572 21.7151 42.5708 21.5444 42.3239C21.3754 42.0753 21.2867 41.7679 21.2784 41.4016H22.32C22.3316 41.5723 22.3804 41.7148 22.4666 41.8292C22.5545 41.9419 22.6713 42.0272 22.8171 42.0852C22.9646 42.1416 23.1312 42.1697 23.3168 42.1697C23.4991 42.1697 23.6573 42.1432 23.7915 42.0902C23.9274 42.0372 24.0327 41.9634 24.1072 41.869C24.1818 41.7745 24.2191 41.666 24.2191 41.5433C24.2191 41.429 24.1851 41.3329 24.1172 41.255C24.0509 41.1771 23.9531 41.1108 23.8239 41.0561C23.6963 41.0014 23.5397 40.9517 23.354 40.907L22.7997 40.7678C22.3705 40.6634 22.0316 40.5001 21.783 40.2781C21.5344 40.056 21.411 39.7569 21.4126 39.3807C21.411 39.0724 21.493 38.8031 21.6587 38.5728C21.8261 38.3424 22.0556 38.1626 22.3473 38.0334C22.639 37.9041 22.9704 37.8395 23.3416 37.8395C23.7195 37.8395 24.0492 37.9041 24.331 38.0334C24.6143 38.1626 24.8348 38.3424 24.9922 38.5728C25.1496 38.8031 25.2308 39.07 25.2358 39.3732H24.2042ZM26.5894 43V37.9091H30.0198V38.7965H27.6657V40.0096H29.8433V40.897H27.6657V42.1126H30.0297V43H26.5894ZM31.4355 43V37.9091H33.444C33.8285 37.9091 34.1566 37.9779 34.4284 38.1154C34.7019 38.2513 34.9098 38.4444 35.0524 38.6946C35.1965 38.9432 35.2686 39.2357 35.2686 39.5721C35.2686 39.9102 35.1957 40.201 35.0499 40.4446C34.904 40.6866 34.6927 40.8722 34.416 41.0014C34.1409 41.1307 33.8078 41.1953 33.4167 41.1953H32.0719V40.3303H33.2427C33.4482 40.3303 33.6189 40.3021 33.7548 40.2457C33.8907 40.1894 33.9917 40.1049 34.058 39.9922C34.126 39.8795 34.16 39.7395 34.16 39.5721C34.16 39.4031 34.126 39.2605 34.058 39.1445C33.9917 39.0285 33.8898 38.9407 33.7523 38.881C33.6164 38.8197 33.4449 38.7891 33.2377 38.7891H32.5119V43H31.4355ZM34.1848 40.6832L35.4501 43H34.2619L33.0239 40.6832H34.1848ZM37.3723 37.9091L38.6028 41.777H38.65L39.8829 37.9091H41.0761L39.3212 43H37.9341L36.1766 37.9091H37.3723ZM43.3252 37.9091V43H42.2489V37.9091H43.3252ZM49.2626 39.6914H48.1738C48.154 39.5505 48.1134 39.4254 48.052 39.3161C47.9907 39.205 47.912 39.1106 47.8159 39.0327C47.7198 38.9548 47.6087 38.8951 47.4828 38.8537C47.3585 38.8123 47.2234 38.7915 47.0776 38.7915C46.8141 38.7915 46.5846 38.857 46.389 38.9879C46.1935 39.1172 46.0419 39.3061 45.9341 39.5547C45.8264 39.8016 45.7726 40.1016 45.7726 40.4545C45.7726 40.8175 45.8264 41.1224 45.9341 41.3693C46.0435 41.6162 46.196 41.8027 46.3915 41.9286C46.5871 42.0546 46.8133 42.1175 47.0702 42.1175C47.2143 42.1175 47.3477 42.0985 47.4704 42.0604C47.5947 42.0223 47.7049 41.9667 47.801 41.8938C47.8971 41.8192 47.9766 41.7289 48.0396 41.6229C48.1042 41.5168 48.149 41.3958 48.1738 41.2599L49.2626 41.2649C49.2345 41.4986 49.164 41.724 49.0513 41.9411C48.9403 42.1565 48.7903 42.3496 48.6014 42.5202C48.4141 42.6893 48.1904 42.8235 47.9302 42.9229C47.6717 43.0207 47.3792 43.0696 47.0528 43.0696C46.5987 43.0696 46.1927 42.9669 45.8347 42.7614C45.4784 42.5559 45.1967 42.2584 44.9895 41.869C44.784 41.4795 44.6813 41.008 44.6813 40.4545C44.6813 39.8994 44.7857 39.4271 44.9945 39.0376C45.2033 38.6482 45.4867 38.3516 45.8447 38.1477C46.2026 37.9422 46.6053 37.8395 47.0528 37.8395C47.3477 37.8395 47.6212 37.8809 47.8731 37.9638C48.1266 38.0466 48.3512 38.1676 48.5467 38.3267C48.7423 38.4841 48.9014 38.6772 49.024 38.9059C49.1483 39.1346 49.2278 39.3964 49.2626 39.6914ZM50.5945 43V37.9091H54.0249V38.7965H51.6708V40.0096H53.8484V40.897H51.6708V42.1126H54.0348V43H50.5945ZM58.2023 39.3732C58.1824 39.1727 58.0971 39.0169 57.9463 38.9059C57.7955 38.7949 57.5908 38.7393 57.3323 38.7393C57.1566 38.7393 57.0083 38.7642 56.8873 38.8139C56.7664 38.862 56.6735 38.9291 56.6089 39.0153C56.5459 39.1014 56.5145 39.1992 56.5145 39.3086C56.5111 39.3997 56.5302 39.4793 56.5716 39.5472C56.6147 39.6152 56.6735 39.674 56.7481 39.7237C56.8227 39.7718 56.9089 39.814 57.0066 39.8505C57.1044 39.8853 57.2088 39.9151 57.3199 39.94L57.7772 40.0494C57.9993 40.0991 58.2031 40.1654 58.3887 40.2482C58.5744 40.3311 58.7351 40.433 58.871 40.554C59.0069 40.675 59.1121 40.8175 59.1867 40.9815C59.2629 41.1456 59.3019 41.3337 59.3035 41.5458C59.3019 41.8574 59.2223 42.1275 59.0649 42.3562C58.9091 42.5832 58.6837 42.7597 58.3887 42.8857C58.0954 43.0099 57.7416 43.0721 57.3273 43.0721C56.9163 43.0721 56.5584 43.0091 56.2534 42.8832C55.9502 42.7572 55.7132 42.5708 55.5425 42.3239C55.3735 42.0753 55.2848 41.7679 55.2765 41.4016H56.3181C56.3297 41.5723 56.3786 41.7148 56.4647 41.8292C56.5526 41.9419 56.6694 42.0272 56.8152 42.0852C56.9627 42.1416 57.1293 42.1697 57.3149 42.1697C57.4972 42.1697 57.6554 42.1432 57.7897 42.0902C57.9256 42.0372 58.0308 41.9634 58.1054 41.869C58.1799 41.7745 58.2172 41.666 58.2172 41.5433C58.2172 41.429 58.1833 41.3329 58.1153 41.255C58.049 41.1771 57.9512 41.1108 57.822 41.0561C57.6944 41.0014 57.5378 40.9517 57.3522 40.907L56.7978 40.7678C56.3686 40.6634 56.0297 40.5001 55.7811 40.2781C55.5326 40.056 55.4091 39.7569 55.4108 39.3807C55.4091 39.0724 55.4911 38.8031 55.6569 38.5728C55.8242 38.3424 56.0538 38.1626 56.3454 38.0334C56.6371 37.9041 56.9685 37.8395 57.3397 37.8395C57.7176 37.8395 58.0474 37.9041 58.3291 38.0334C58.6125 38.1626 58.8329 38.3424 58.9903 38.5728C59.1477 38.8031 59.2289 39.07 59.2339 39.3732H58.2023Z" fill="#272727"/>
<path d="M0.495384 21V14.4545H3.19922C3.68928 14.4545 4.11222 14.5504 4.46804 14.7422C4.82599 14.9318 5.10192 15.1971 5.29581 15.538C5.4897 15.8768 5.58665 16.271 5.58665 16.7205C5.58665 17.1722 5.48757 17.5675 5.28942 17.9062C5.09339 18.2429 4.81321 18.5039 4.44886 18.6893C4.08452 18.8746 3.65199 18.9673 3.15128 18.9673H1.48295V17.7209H2.85724C3.09588 17.7209 3.2951 17.6793 3.4549 17.5962C3.61683 17.5131 3.73935 17.397 3.82244 17.2479C3.90554 17.0966 3.94709 16.9208 3.94709 16.7205C3.94709 16.5181 3.90554 16.3434 3.82244 16.1964C3.73935 16.0472 3.61683 15.9322 3.4549 15.8512C3.29297 15.7702 3.09375 15.7298 2.85724 15.7298H2.07741V21H0.495384ZM7.98648 21V14.4545H10.6903C11.1804 14.4545 11.6033 14.543 11.9591 14.7198C12.3171 14.8945 12.593 15.146 12.7869 15.4741C12.9808 15.8001 13.0777 16.1868 13.0777 16.6342C13.0777 17.0881 12.9787 17.4737 12.7805 17.7912C12.5824 18.1065 12.3011 18.3473 11.9368 18.5135C11.5724 18.6776 11.141 18.7596 10.6424 18.7596H8.9325V17.5131H10.3483C10.587 17.5131 10.7862 17.4822 10.946 17.4205C11.1079 17.3565 11.2304 17.2607 11.3135 17.1328C11.3966 17.0028 11.4382 16.8366 11.4382 16.6342C11.4382 16.4318 11.3966 16.2646 11.3135 16.1325C11.2304 15.9982 11.1079 15.8981 10.946 15.832C10.7841 15.7638 10.5848 15.7298 10.3483 15.7298H9.56851V21H7.98648ZM11.6715 18.0085L13.3015 21H11.5756L9.9776 18.0085H11.6715ZM17.1475 14.4545V21H15.5655V14.4545H17.1475ZM25.3313 14.4545V21H23.989L21.3842 17.2223H21.3427V21H19.7607V14.4545H21.1222L23.6982 18.2259H23.7525V14.4545H25.3313ZM33.8875 16.826H32.2895C32.2682 16.6619 32.2245 16.5138 32.1584 16.3817C32.0924 16.2496 32.005 16.1367 31.8964 16.043C31.7877 15.9492 31.6588 15.8778 31.5097 15.8288C31.3626 15.7777 31.1996 15.7521 31.0207 15.7521C30.7032 15.7521 30.4294 15.8299 30.1993 15.9854C29.9713 16.141 29.7955 16.3658 29.6719 16.6598C29.5505 16.9538 29.4898 17.3097 29.4898 17.7273C29.4898 18.1619 29.5516 18.5263 29.6751 18.8203C29.8008 19.1122 29.9766 19.3327 30.2025 19.4819C30.4305 19.6289 30.7 19.7024 31.0111 19.7024C31.1858 19.7024 31.3445 19.68 31.4873 19.6353C31.6322 19.5906 31.7589 19.5256 31.8676 19.4403C31.9784 19.353 32.069 19.2475 32.1393 19.1239C32.2117 18.9982 32.2618 18.8565 32.2895 18.6989L33.8875 18.7085C33.8598 18.9982 33.7756 19.2837 33.635 19.565C33.4965 19.8462 33.3058 20.103 33.0629 20.3352C32.82 20.5653 32.5239 20.7486 32.1744 20.8849C31.8271 21.0213 31.4287 21.0895 30.9791 21.0895C30.3868 21.0895 29.8562 20.9595 29.3875 20.6996C28.9209 20.4375 28.5523 20.0561 28.2817 19.5554C28.0111 19.0547 27.8758 18.4453 27.8758 17.7273C27.8758 17.0071 28.0132 16.3967 28.2881 15.896C28.5629 15.3952 28.9347 15.0149 29.4035 14.755C29.8722 14.495 30.3974 14.3651 30.9791 14.3651C31.3754 14.3651 31.7419 14.4205 32.0785 14.5312C32.4152 14.6399 32.7114 14.7997 32.967 15.0107C33.2227 15.2195 33.4305 15.4762 33.5903 15.7809C33.7501 16.0856 33.8491 16.4339 33.8875 16.826ZM36.4128 21V14.4545H40.9767V15.7393H37.9948V17.0817H40.7434V18.3697H37.9948V19.7152H40.9767V21H36.4128Z" fill="#FFA500"/>
<path d="M46.8939 21.0545V19.5593H44L48.067 13.5796V3H53.229V8.21312L57.9218 3L72 20.1726H68.5587V41H61.5897" stroke="#FFA500" stroke-width="3"/>
<path d="M0 42L19 42" stroke="#FFA500" stroke-width="3"/>
</svg>
