<svg width="11" height="16" viewBox="0 0 11 16" fill="none" xmlns="http://www.w3.org/2000/svg">
<path d="M0.833008 6.00001C0.833008 3.80012 0.833008 2.70018 1.51643 2.01676C2.19984 1.33334 3.29979 1.33334 5.49967 1.33334C7.69956 1.33334 8.79951 1.33334 9.48292 2.01676C10.1663 2.70018 10.1663 3.80012 10.1663 6.00001V10C10.1663 12.1999 10.1663 13.2998 9.48292 13.9833C8.79951 14.6667 7.69956 14.6667 5.49967 14.6667C3.29979 14.6667 2.19984 14.6667 1.51643 13.9833C0.833008 13.2998 0.833008 12.1999 0.833008 10V6.00001Z" stroke="white" stroke-width="1.5" stroke-linecap="round"/>
<path d="M4.83301 12.6667H6.16634" stroke="white" stroke-width="1.5" stroke-linecap="round" stroke-linejoin="round"/>
<path d="M3.5 1.33334L3.55934 1.68935C3.68792 2.46087 3.75221 2.84663 4.01679 3.08137C4.29278 3.32624 4.6841 3.33334 5.5 3.33334C6.3159 3.33334 6.70721 3.32624 6.98321 3.08137C7.24779 2.84663 7.31208 2.46087 7.44067 1.68935L7.5 1.33334" stroke="white" stroke-width="1.5" stroke-linejoin="round"/>
</svg>
