<svg width="13" height="16" viewBox="0 0 13 16" fill="none" xmlns="http://www.w3.org/2000/svg">
<path d="M8.16732 6.00001C8.16732 6.92048 7.42113 7.66668 6.50065 7.66668C5.58018 7.66668 4.83398 6.92048 4.83398 6.00001C4.83398 5.07954 5.58018 4.33334 6.50065 4.33334C7.42113 4.33334 8.16732 5.07954 8.16732 6.00001Z" stroke="white" stroke-width="1.5"/>
<path d="M10.6485 11.3333C11.5782 12.659 12.0229 13.365 11.758 13.9333C11.7314 13.9903 11.7003 14.0453 11.6649 14.0978C11.2819 14.6667 10.292 14.6667 8.31217 14.6667H4.68848C2.70866 14.6667 1.71876 14.6667 1.33573 14.0978C1.30036 14.0453 1.26926 13.9903 1.24269 13.9333C0.977786 13.365 1.4225 12.659 2.35218 11.3333" stroke="white" stroke-width="1.5" stroke-linecap="round" stroke-linejoin="round"/>
<path d="M7.33892 11.6624C7.11407 11.879 6.81353 12 6.50075 12C6.18798 12 5.88744 11.879 5.66259 11.6624C3.60352 9.6672 0.844111 7.43837 2.18979 4.2025C2.91739 2.45289 4.66395 1.33334 6.50075 1.33334C8.33756 1.33334 10.0841 2.45289 10.8117 4.2025C12.1557 7.43429 9.40307 9.67408 7.33892 11.6624Z" stroke="white" stroke-width="1.5"/>
</svg>
