<svg width="139" height="72" viewBox="0 0 139 72" fill="none" xmlns="http://www.w3.org/2000/svg">
<path d="M87.9333 32.5H81L89.6667 23V4H99.2V12.5L107 4L133 32.5H126.067V65.5H110" stroke="#FFA500" stroke-width="5"/>
<path d="M1.27841 54V42.3636H3.03409V47.4205H8.83523V42.3636H10.5966V54H8.83523V48.9261H3.03409V54H1.27841ZM17.0164 54H15.1527L19.3402 42.3636H21.3686L25.5561 54H23.6925L20.4027 44.4773H20.3118L17.0164 54ZM17.3289 49.4432H23.3743V50.9205H17.3289V49.4432ZM39.5086 42.3636V54H37.8949L31.9802 45.4659H31.8722V54H30.1165V42.3636H31.7415L37.662 50.9091H37.7699V42.3636H39.5086ZM48.7167 54H44.9497V42.3636H48.836C49.9762 42.3636 50.9553 42.5966 51.7735 43.0625C52.5917 43.5246 53.2186 44.1894 53.6542 45.0568C54.0936 45.9205 54.3133 46.9564 54.3133 48.1648C54.3133 49.3769 54.0917 50.4186 53.6485 51.2898C53.2091 52.161 52.5728 52.8314 51.7394 53.3011C50.9061 53.767 49.8985 54 48.7167 54ZM46.7053 52.4659H48.6201C49.5065 52.4659 50.2432 52.2992 50.8303 51.9659C51.4175 51.6288 51.8569 51.142 52.1485 50.5057C52.4402 49.8655 52.586 49.0852 52.586 48.1648C52.586 47.2519 52.4402 46.4773 52.1485 45.8409C51.8606 45.2045 51.4307 44.7216 50.8587 44.392C50.2868 44.0625 49.5766 43.8977 48.7281 43.8977H46.7053V52.4659ZM57.8851 42.3636H59.8794L62.9191 47.6534H63.0441L66.0839 42.3636H68.0782L63.8566 49.4318V54H62.1066V49.4318L57.8851 42.3636ZM72.6159 42.3636H74.7466L78.4511 51.4091H78.5875L82.292 42.3636H84.4227V54H82.7523V45.5795H82.6443L79.2125 53.983H77.8261L74.3943 45.5739H74.2864V54H72.6159V42.3636ZM90.8382 54H88.9746L93.1621 42.3636H95.1905L99.378 54H97.5144L94.2246 44.4773H94.1337L90.8382 54ZM91.1507 49.4432H97.1962V50.9205H91.1507V49.4432ZM113.33 42.3636V54H111.717L105.802 45.4659H105.694V54H103.938V42.3636H105.563L111.484 50.9091H111.592V42.3636H113.33Z" fill="#434037"/>
<path d="M42.8295 62.4545C42.7784 62.0227 42.571 61.6875 42.2074 61.4489C41.8438 61.2102 41.3977 61.0909 40.8693 61.0909C40.483 61.0909 40.1449 61.1534 39.8551 61.2784C39.5682 61.4034 39.3438 61.5753 39.1818 61.794C39.0227 62.0128 38.9432 62.2614 38.9432 62.5398C38.9432 62.7727 38.9986 62.973 39.1094 63.1406C39.223 63.3054 39.3679 63.4432 39.544 63.554C39.7202 63.6619 39.9048 63.7514 40.098 63.8224C40.2912 63.8906 40.4688 63.946 40.6307 63.9886L41.517 64.2273C41.7443 64.2869 41.9972 64.3693 42.2756 64.4744C42.5568 64.5795 42.8253 64.723 43.081 64.9048C43.3395 65.0838 43.5526 65.3139 43.7202 65.5952C43.8878 65.8764 43.9716 66.2216 43.9716 66.6307C43.9716 67.1023 43.848 67.5284 43.6009 67.9091C43.3565 68.2898 42.9986 68.5923 42.527 68.8168C42.0582 69.0412 41.4886 69.1534 40.8182 69.1534C40.1932 69.1534 39.652 69.0526 39.1946 68.8509C38.7401 68.6491 38.3821 68.3679 38.1207 68.0071C37.8622 67.6463 37.7159 67.2273 37.6818 66.75H38.7727C38.8011 67.0795 38.9119 67.3523 39.1051 67.5682C39.3011 67.7812 39.5483 67.9403 39.8466 68.0455C40.1477 68.1477 40.4716 68.1989 40.8182 68.1989C41.2216 68.1989 41.5838 68.1335 41.9048 68.0028C42.2259 67.8693 42.4801 67.6847 42.6676 67.4489C42.8551 67.2102 42.9489 66.9318 42.9489 66.6136C42.9489 66.3239 42.8679 66.0881 42.706 65.9062C42.544 65.7244 42.331 65.5767 42.0668 65.4631C41.8026 65.3494 41.517 65.25 41.2102 65.1648L40.1364 64.858C39.4545 64.6619 38.9148 64.3821 38.517 64.0185C38.1193 63.6548 37.9205 63.179 37.9205 62.5909C37.9205 62.1023 38.0526 61.6761 38.3168 61.3125C38.5838 60.946 38.9418 60.6619 39.3906 60.4602C39.8423 60.2557 40.3466 60.1534 40.9034 60.1534C41.4659 60.1534 41.9659 60.2543 42.4034 60.456C42.8409 60.6548 43.1875 60.9276 43.4432 61.2741C43.7017 61.6207 43.8381 62.0142 43.8523 62.4545H42.8295ZM47.8692 69V60.2727H53.1362V61.2102H48.926V64.1591H52.8635V65.0966H48.926V68.0625H53.2044V69H47.8692ZM57.201 69V60.2727H60.1499C60.8317 60.2727 61.3914 60.3892 61.8289 60.6222C62.2664 60.8523 62.5902 61.169 62.8005 61.5724C63.0107 61.9759 63.1158 62.4347 63.1158 62.9489C63.1158 63.4631 63.0107 63.919 62.8005 64.3168C62.5902 64.7145 62.2678 65.027 61.8331 65.2543C61.3985 65.4787 60.8431 65.5909 60.1669 65.5909H57.7806V64.6364H60.1329C60.5988 64.6364 60.9738 64.5682 61.2579 64.4318C61.5448 64.2955 61.7522 64.1023 61.88 63.8523C62.0107 63.5994 62.076 63.2983 62.076 62.9489C62.076 62.5994 62.0107 62.294 61.88 62.0327C61.7493 61.7713 61.5405 61.5696 61.2536 61.4276C60.9667 61.2827 60.5874 61.2102 60.1158 61.2102H58.2579V69H57.201ZM61.309 65.0795L63.4567 69H62.2294L60.1158 65.0795H61.309ZM67.1956 60.2727L69.7865 67.6193H69.8887L72.4796 60.2727H73.5876L70.3831 69H69.2921L66.0876 60.2727H67.1956ZM78.1638 60.2727V69H77.107V60.2727H78.1638ZM89.4655 63H88.4087C88.3462 62.696 88.2368 62.429 88.0805 62.1989C87.9271 61.9688 87.7396 61.7756 87.518 61.6193C87.2993 61.4602 87.0564 61.3409 86.7893 61.2614C86.5223 61.1818 86.2439 61.142 85.9541 61.142C85.4257 61.142 84.947 61.2756 84.518 61.5426C84.0919 61.8097 83.7524 62.2031 83.4996 62.723C83.2496 63.2429 83.1246 63.8807 83.1246 64.6364C83.1246 65.392 83.2496 66.0298 83.4996 66.5497C83.7524 67.0696 84.0919 67.4631 84.518 67.7301C84.947 67.9972 85.4257 68.1307 85.9541 68.1307C86.2439 68.1307 86.5223 68.0909 86.7893 68.0114C87.0564 67.9318 87.2993 67.8139 87.518 67.6577C87.7396 67.4986 87.9271 67.304 88.0805 67.0739C88.2368 66.8409 88.3462 66.5739 88.4087 66.2727H89.4655C89.3859 66.7187 89.2411 67.1179 89.0308 67.4702C88.8206 67.8224 88.5592 68.1222 88.2467 68.3693C87.9342 68.6136 87.5834 68.7997 87.1942 68.9276C86.8078 69.0554 86.3945 69.1193 85.9541 69.1193C85.2098 69.1193 84.5479 68.9375 83.9683 68.5739C83.3888 68.2102 82.9328 67.6932 82.6004 67.0227C82.268 66.3523 82.1018 65.5568 82.1018 64.6364C82.1018 63.7159 82.268 62.9205 82.6004 62.25C82.9328 61.5795 83.3888 61.0625 83.9683 60.6989C84.5479 60.3352 85.2098 60.1534 85.9541 60.1534C86.3945 60.1534 86.8078 60.2173 87.1942 60.3452C87.5834 60.473 87.9342 60.6605 88.2467 60.9077C88.5592 61.152 88.8206 61.4503 89.0308 61.8026C89.2411 62.152 89.3859 62.5511 89.4655 63ZM93.3332 69V60.2727H98.6003V61.2102H94.39V64.1591H98.3275V65.0966H94.39V68.0625H98.6685V69H93.3332ZM107.438 62.4545C107.387 62.0227 107.179 61.6875 106.816 61.4489C106.452 61.2102 106.006 61.0909 105.478 61.0909C105.091 61.0909 104.753 61.1534 104.463 61.2784C104.176 61.4034 103.952 61.5753 103.79 61.794C103.631 62.0128 103.551 62.2614 103.551 62.5398C103.551 62.7727 103.607 62.973 103.718 63.1406C103.831 63.3054 103.976 63.4432 104.152 63.554C104.328 63.6619 104.513 63.7514 104.706 63.8224C104.899 63.8906 105.077 63.946 105.239 63.9886L106.125 64.2273C106.353 64.2869 106.605 64.3693 106.884 64.4744C107.165 64.5795 107.434 64.723 107.689 64.9048C107.948 65.0838 108.161 65.3139 108.328 65.5952C108.496 65.8764 108.58 66.2216 108.58 66.6307C108.58 67.1023 108.456 67.5284 108.209 67.9091C107.965 68.2898 107.607 68.5923 107.135 68.8168C106.667 69.0412 106.097 69.1534 105.426 69.1534C104.801 69.1534 104.26 69.0526 103.803 68.8509C103.348 68.6491 102.99 68.3679 102.729 68.0071C102.47 67.6463 102.324 67.2273 102.29 66.75H103.381C103.409 67.0795 103.52 67.3523 103.713 67.5682C103.909 67.7812 104.157 67.9403 104.455 68.0455C104.756 68.1477 105.08 68.1989 105.426 68.1989C105.83 68.1989 106.192 68.1335 106.513 68.0028C106.834 67.8693 107.088 67.6847 107.276 67.4489C107.463 67.2102 107.557 66.9318 107.557 66.6136C107.557 66.3239 107.476 66.0881 107.314 65.9062C107.152 65.7244 106.939 65.5767 106.675 65.4631C106.411 65.3494 106.125 65.25 105.819 65.1648L104.745 64.858C104.063 64.6619 103.523 64.3821 103.125 64.0185C102.728 63.6548 102.529 63.179 102.529 62.5909C102.529 62.1023 102.661 61.6761 102.925 61.3125C103.192 60.946 103.55 60.6619 103.999 60.4602C104.451 60.2557 104.955 60.1534 105.512 60.1534C106.074 60.1534 106.574 60.2543 107.012 60.456C107.449 60.6548 107.796 60.9276 108.051 61.2741C108.31 61.6207 108.446 62.0142 108.461 62.4545H107.438Z" fill="#434037"/>
<path d="M0.75 35V23.3636H5.77273C6.63636 23.3636 7.39205 23.5341 8.03977 23.875C8.6875 24.2159 9.19129 24.6951 9.55114 25.3125C9.91098 25.9299 10.0909 26.6515 10.0909 27.4773C10.0909 28.3106 9.9053 29.0322 9.53409 29.642C9.16667 30.2519 8.64962 30.7216 7.98295 31.0511C7.32008 31.3807 6.54545 31.5455 5.65909 31.5455H2.65909V29.0909H5.02273C5.39394 29.0909 5.71023 29.0265 5.97159 28.8977C6.23674 28.7652 6.43939 28.5777 6.57955 28.3352C6.72349 28.0928 6.79545 27.8068 6.79545 27.4773C6.79545 27.1439 6.72349 26.8598 6.57955 26.625C6.43939 26.3864 6.23674 26.2045 5.97159 26.0795C5.71023 25.9508 5.39394 25.8864 5.02273 25.8864H3.90909V35H0.75ZM14.13 35V23.3636H19.1527C20.0164 23.3636 20.772 23.5208 21.4198 23.8352C22.0675 24.1496 22.5713 24.6023 22.9311 25.1932C23.291 25.7841 23.4709 26.4924 23.4709 27.3182C23.4709 28.1515 23.2853 28.8542 22.9141 29.4261C22.5467 29.9981 22.0296 30.4299 21.363 30.7216C20.7001 31.0133 19.9255 31.1591 19.0391 31.1591H16.0391V28.7045H18.4027C18.7739 28.7045 19.0902 28.6591 19.3516 28.5682C19.6167 28.4735 19.8194 28.3239 19.9595 28.1193C20.1035 27.9148 20.1755 27.6477 20.1755 27.3182C20.1755 26.9848 20.1035 26.714 19.9595 26.5057C19.8194 26.2936 19.6167 26.1383 19.3516 26.0398C19.0902 25.9375 18.7739 25.8864 18.4027 25.8864H17.2891V35H14.13ZM20.9482 29.6591L23.8573 35H20.4255L17.5845 29.6591H20.9482ZM30.8566 23.3636V35H27.6975V23.3636H30.8566ZM45.3019 23.3636V35H42.6656L38.461 28.8864H38.3928V35H35.2337V23.3636H37.9156L42.0519 29.4545H42.1428V23.3636H45.3019ZM60.5399 27.7273H57.3353C57.3126 27.4621 57.252 27.2216 57.1535 27.0057C57.0588 26.7898 56.9263 26.6042 56.7558 26.4489C56.5891 26.2898 56.3865 26.1686 56.1478 26.0852C55.9092 25.9981 55.6384 25.9545 55.3353 25.9545C54.805 25.9545 54.3562 26.0833 53.9888 26.3409C53.6251 26.5985 53.3486 26.9678 53.1592 27.4489C52.9736 27.9299 52.8808 28.5076 52.8808 29.1818C52.8808 29.8939 52.9755 30.4905 53.1649 30.9716C53.3581 31.4489 53.6365 31.8087 54.0001 32.0511C54.3638 32.2898 54.8013 32.4091 55.3126 32.4091C55.6043 32.4091 55.8656 32.3731 56.0967 32.3011C56.3278 32.2254 56.5285 32.1174 56.699 31.9773C56.8694 31.8371 57.0077 31.6686 57.1138 31.4716C57.2236 31.2708 57.2975 31.0455 57.3353 30.7955L60.5399 30.8182C60.502 31.3106 60.3638 31.8125 60.1251 32.3239C59.8865 32.8314 59.5475 33.3011 59.1081 33.733C58.6725 34.161 58.1327 34.5057 57.4888 34.767C56.8448 35.0284 56.0967 35.1591 55.2444 35.1591C54.1763 35.1591 53.2179 34.9299 52.3694 34.4716C51.5247 34.0133 50.8562 33.339 50.3638 32.4489C49.8751 31.5587 49.6308 30.4697 49.6308 29.1818C49.6308 27.8864 49.8808 26.7955 50.3808 25.9091C50.8808 25.0189 51.555 24.3466 52.4035 23.892C53.252 23.4337 54.199 23.2045 55.2444 23.2045C55.9793 23.2045 56.6554 23.3049 57.2728 23.5057C57.8903 23.7064 58.4319 24 58.8978 24.3864C59.3638 24.7689 59.7388 25.2405 60.0228 25.8011C60.3069 26.3617 60.4793 27.0038 60.5399 27.7273ZM64.8531 35V23.3636H73.2395V25.9091H68.0122V27.9091H72.8077V30.4545H68.0122V32.4545H73.2168V35H64.8531Z" fill="#FFA500"/>
<line y1="66" x2="34" y2="66" stroke="#FFA500" stroke-width="6"/>
</svg>
