<svg width="17" height="16" viewBox="0 0 17 16" fill="none" xmlns="http://www.w3.org/2000/svg">
<path d="M15.9408 7.88483H13.8631V6.75549C13.8631 4.51931 14.7416 2.46673 16.26 1.08341C16.2803 1.08341 16.2803 1.06 16.2998 1.03748V1.01407C16.4996 0.806928 16.5394 0.483609 16.3599 0.230554C16.26 0.091862 16.0806 1.37421e-07 15.9206 0.0234152C15.9003 0.0234152 15.8808 0 15.8605 0C12.2651 0.461107 9.44824 4.19584 9.44824 8.4846L9.44902 15.3777C9.44902 15.7235 9.68856 16 9.98818 16H15.9602C16.2598 16 16.4994 15.7235 16.4994 15.3777L16.5002 8.4846C16.4799 8.1613 16.2404 7.88483 15.9408 7.88483Z" fill="#E5E5E5"/>
<path d="M7.01216 7.88483H4.91481V6.75549C4.91481 4.51931 5.79338 2.46673 7.31178 1.08341C7.33206 1.08341 7.33206 1.06 7.33206 1.03748C7.35235 1.03748 7.35235 1.03748 7.35235 1.01407C7.53181 0.806928 7.57239 0.483609 7.41243 0.230554C7.29227 0.091862 7.1331 1.37421e-07 6.97315 0.0234152C6.95286 0.0234152 6.93335 0 6.91307 0C3.31762 0.461107 0.50078 4.19584 0.50078 8.4846L0.5 15.3777C0.5 15.7235 0.739537 16 1.03916 16H7.0112C7.31082 16 7.55036 15.7235 7.55036 15.3777L7.55114 8.4846C7.53085 8.1613 7.29148 7.88483 7.01216 7.88483Z" fill="#E5E5E5"/>
</svg>
