<svg width="122" height="122" viewBox="0 0 122 122" fill="none" xmlns="http://www.w3.org/2000/svg">
<path d="M101.195 101.25H101.25M101.195 101.25C97.6149 104.801 91.1261 103.916 86.5756 103.916C80.9899 103.916 78.3001 105.009 74.3137 108.995C70.9193 112.39 66.3689 118.5 61.0001 118.5C55.6312 118.5 51.0808 112.39 47.6863 108.995C43.6999 105.009 41.0101 103.916 35.4244 103.916C30.8739 103.916 24.3851 104.801 20.8046 101.25C17.1954 97.671 18.0836 91.1553 18.0836 86.5755C18.0836 80.7882 16.8179 78.1269 12.6964 74.0055C6.56554 67.8748 3.50009 64.8091 3.5 60.9999C3.50005 57.1907 6.56546 54.1253 12.6963 47.9945C16.3754 44.3153 18.0836 40.6696 18.0836 35.4243C18.0836 30.8738 17.1993 24.3848 20.75 20.8043C24.329 17.1953 30.8447 18.0835 35.4244 18.0835C40.6696 18.0835 44.3153 16.3754 47.9944 12.6964C54.1253 6.56546 57.1907 3.5 61 3.5C64.8093 3.5 67.8747 6.56546 74.0056 12.6964C77.6839 16.3746 81.3289 18.0835 86.5756 18.0835C91.1262 18.0835 97.6152 17.1992 101.196 20.75C104.805 24.329 103.916 30.8446 103.916 35.4243C103.916 41.2118 105.182 43.8729 109.304 47.9945C115.435 54.1253 118.5 57.1907 118.5 60.9999C118.5 64.8091 115.434 67.8748 109.304 74.0055C105.182 78.1268 103.916 80.7882 103.916 86.5755C103.916 91.1553 104.805 97.6711 101.195 101.25Z" stroke="#008000" stroke-width="6"/>
<path d="M43.75 66.1339L54.1 75.375L78.25 46.625" stroke="#008000" stroke-width="6" stroke-linecap="round" stroke-linejoin="round"/>
</svg>
