<svg width="24" height="24" viewBox="0 0 24 24" fill="none" xmlns="http://www.w3.org/2000/svg">
<path d="M21.4 24H2.6C1.91044 24 1.24912 23.6839 0.761522 23.1213C0.273928 22.5587 0 21.7956 0 21V6.69231C0 5.89666 0.273928 5.1336 0.761522 4.57099C1.24912 4.00838 1.91044 3.69231 2.6 3.69231H21.4C22.0896 3.69231 22.7509 4.00838 23.2385 4.57099C23.7261 5.1336 24 5.89666 24 6.69231V21C24 21.7956 23.7261 22.5587 23.2385 23.1213C22.7509 23.6839 22.0896 24 21.4 24ZM2.6 5.53846C2.33478 5.53846 2.08043 5.66003 1.89289 5.87641C1.70536 6.0928 1.6 6.38629 1.6 6.69231V21C1.6 21.306 1.70536 21.5995 1.89289 21.8159C2.08043 22.0323 2.33478 22.1538 2.6 22.1538H21.4C21.6652 22.1538 21.9196 22.0323 22.1071 21.8159C22.2946 21.5995 22.4 21.306 22.4 21V6.69231C22.4 6.38629 22.2946 6.0928 22.1071 5.87641C21.9196 5.66003 21.6652 5.53846 21.4 5.53846H2.6Z" fill="white"/>
<path d="M16.8 5.53846H7.19995V2.27077C7.19995 1.97257 7.25086 1.67729 7.34976 1.40178C7.44866 1.12628 7.59362 0.875953 7.77636 0.665093C7.95911 0.454233 8.17606 0.286969 8.41483 0.172852C8.6536 0.0587352 8.90951 0 9.16795 0H14.832C15.0904 0 15.3463 0.0587352 15.5851 0.172852C15.8238 0.286969 16.0408 0.454233 16.2235 0.665093C16.4063 0.875953 16.5512 1.12628 16.6501 1.40178C16.749 1.67729 16.8 1.97257 16.8 2.27077V5.53846ZM8.79995 3.69231H15.2V2.27077C15.2 2.21501 15.1904 2.15979 15.1719 2.10828C15.1534 2.05676 15.1263 2.00995 15.0922 1.97052C15.058 1.93109 15.0174 1.89981 14.9728 1.87848C14.9281 1.85714 14.8803 1.84615 14.832 1.84615H9.16795C9.07035 1.84615 8.97675 1.89089 8.90774 1.97052C8.83872 2.05015 8.79995 2.15815 8.79995 2.27077V3.69231Z" fill="white"/>
<path d="M12 19.2092C12.8837 19.2092 13.6 18.3827 13.6 17.3631C13.6 16.3435 12.8837 15.5169 12 15.5169C11.1164 15.5169 10.4 16.3435 10.4 17.3631C10.4 18.3827 11.1164 19.2092 12 19.2092Z" fill="white"/>
</svg>
